<svg width="25" height="24" viewBox="0 0 25 24" fill="none" xmlns="http://www.w3.org/2000/svg">
<path fill-rule="evenodd" clip-rule="evenodd" d="M7.80009 3.28143L10.9375 6.47732C11.3263 6.87363 11.3266 7.49463 10.9381 7.89127L9.42149 9.43982C10.3738 12.2348 12.5035 14.4708 15.2026 15.5281L15.5048 15.6407L16.9424 14.1729C17.3462 13.7606 18.0193 13.7427 18.4459 14.133L21.5833 17.3289C21.9721 17.7252 21.9724 18.3462 21.5839 18.7428L20.8037 19.5395C19.3788 20.9944 17.2087 21.4045 15.3028 20.5789C12.6086 19.412 10.4347 17.9857 8.78096 16.3C7.12723 14.6143 5.72731 12.3976 4.58119 9.65009C3.80281 7.78412 4.14042 5.66885 5.42938 4.21538L5.59544 4.03721L6.29661 3.32128C6.7004 2.90899 7.37353 2.89115 7.80009 3.28143Z" stroke="#FCE389" stroke-opacity="0.5" stroke-width="1.5" stroke-linecap="round" stroke-linejoin="round"/>
</svg>
