<svg width="174" height="114" viewBox="0 0 174 114" fill="none" xmlns="http://www.w3.org/2000/svg">
<path d="M91.9625 39.64H90.828C90.7106 39.633 90.5923 39.6415 90.48 39.6648C90.365 39.6954 90.2693 39.7503 90.2085 39.8208C90.1774 39.8573 90.1562 39.8971 90.1459 39.9383C90.1406 39.9819 90.1406 40.0257 90.1459 40.0694V40.205C90.1544 40.2515 90.1544 40.2985 90.1459 40.3451C90.1093 40.4389 90.0183 40.5198 89.8919 40.5711C89.8243 40.5986 89.7483 40.6164 89.6692 40.6231C89.5891 40.6231 89.5091 40.6231 89.429 40.6231H85.3017C85.2476 40.6286 85.1924 40.6286 85.1382 40.6231C85.0276 40.6041 84.9284 40.564 84.8533 40.508C84.7782 40.452 84.7308 40.3826 84.7171 40.3089C84.7137 40.272 84.7137 40.2351 84.7171 40.1982V40.0874C84.7305 40.0114 84.7186 39.9343 84.6823 39.8614C84.644 39.7915 84.5716 39.7317 84.4761 39.6909C84.3807 39.6501 84.2674 39.6306 84.1533 39.6354H81.5399C81.2758 39.6285 81.0129 39.6612 80.7715 39.731C80.5301 39.8007 80.3167 39.9057 80.1479 40.0377C79.977 40.1746 79.8578 40.3356 79.7999 40.5078C79.7825 40.553 79.7755 40.5959 79.7651 40.6411V40.7541V58.9291C79.7618 59.0496 79.7852 59.1699 79.8347 59.2861C79.9481 59.5311 80.1861 59.7438 80.5098 59.8896C80.8354 60.0343 81.2261 60.1043 81.6199 60.0884H91.9346C92.3 60.0884 92.6689 60.0884 93.0308 60.0884C93.3901 60.0748 93.7335 59.9878 94.0122 59.8398C94.1474 59.7666 94.2647 59.6805 94.3602 59.5845C94.4555 59.4885 94.5294 59.3843 94.5794 59.2748C94.6263 59.1645 94.6474 59.0502 94.6421 58.9358V58.5923C94.6421 58.1403 94.6421 57.6883 94.6421 57.2363C94.6421 53.661 94.6421 50.4405 94.6421 47.7443C94.6421 45.0481 94.6421 42.8514 94.6421 41.3395V40.8039C94.6466 40.6493 94.604 40.4957 94.5168 40.3519C94.4382 40.2271 94.3262 40.1123 94.1862 40.0129C94.0727 39.9306 93.94 39.8604 93.7929 39.8049C93.5946 39.7257 93.3729 39.6741 93.1422 39.6535C93.0831 39.6511 93.0238 39.6511 92.9647 39.6535H91.9694L91.9625 39.64Z" fill="#FAFAFA"/>
<path d="M64.4009 41.4909C64.4009 41.4909 64.1121 41.502 63.7537 41.5043C63.3952 41.5065 63.1099 41.5043 63.1099 41.5043C63.1099 41.5043 63.3987 41.5043 63.7537 41.4931C64.1086 41.4819 64.4009 41.4864 64.4009 41.4909Z" fill="#263238"/>
<path d="M64.4009 41.7056C64.4009 41.7056 64.112 41.7174 63.7571 41.7197C63.4021 41.7221 63.1133 41.7197 63.1133 41.7197C63.1133 41.7197 63.4021 41.7197 63.7571 41.7197C64.112 41.7197 64.4009 41.7009 64.4009 41.7056Z" fill="#263238"/>
<path d="M52.6594 42.1643H52.7603H53.0387V42.0355C53.0387 42.0106 53.0387 41.988 53.0387 41.9609C53.043 41.9468 53.0541 41.934 53.0704 41.9242C53.0866 41.9145 53.1072 41.9083 53.1292 41.9067H53.2441C53.2693 41.9098 53.292 41.9185 53.3085 41.9312C53.325 41.944 53.3342 41.9601 53.3345 41.9767C53.3345 42.0378 53.3345 42.101 53.3345 42.1666H53.6825V41.814C53.6812 41.8032 53.6762 41.7927 53.6677 41.7833C53.6593 41.7739 53.6477 41.7659 53.6338 41.7598L53.4807 41.6626L53.3345 41.5699L53.2649 41.5225C53.2448 41.5078 53.2198 41.4962 53.1919 41.4886C53.1792 41.4852 53.1656 41.4834 53.1518 41.4834C53.1381 41.4834 53.1245 41.4852 53.1118 41.4886L53.0457 41.5315L52.9239 41.6129C52.8439 41.6649 52.7638 41.7146 52.7012 41.7598C52.6909 41.7872 52.6909 41.8159 52.7012 41.8434V42.1327C52.7012 42.153 52.7012 42.1621 52.7012 42.1621C52.7012 42.1621 52.7012 42.1621 52.7012 42.1349V41.8005C52.7016 41.7837 52.7088 41.7673 52.7221 41.753C52.7847 41.701 52.8613 41.6558 52.9413 41.6016L53.0666 41.5202C53.0868 41.5048 53.1089 41.4904 53.1327 41.4773C53.1467 41.4701 53.1632 41.4651 53.1807 41.4627C53.1982 41.4604 53.2163 41.4607 53.2336 41.4637C53.2684 41.4637 53.2928 41.4886 53.3171 41.5021L53.3867 41.5473L53.5364 41.6423L53.686 41.7394C53.7022 41.7462 53.7154 41.7555 53.7243 41.7666C53.7378 41.7774 53.7452 41.791 53.7452 41.805V41.875C53.7452 41.9722 53.7452 42.0671 53.7452 42.1575H53.3728C53.3728 42.092 53.3728 42.0287 53.3728 41.9677C53.3739 41.9546 53.3673 41.9418 53.3544 41.9317C53.3415 41.9217 53.3232 41.9151 53.3032 41.9135C53.2615 41.9135 53.2162 41.9135 53.1779 41.9135C53.1599 41.9145 53.1428 41.9193 53.1291 41.927C53.1153 41.9347 53.1057 41.9449 53.1014 41.9564C53.1014 41.979 53.1014 42.0061 53.1014 42.0287V42.1643H52.7534C52.7534 42.1643 52.6594 42.1666 52.6594 42.1643Z" fill="#263238"/>
<path d="M61.4045 46.0152C60.3771 46.0734 59.3453 46.093 58.3143 46.074C57.2845 46.093 56.2539 46.0734 55.2275 46.0152C56.2536 45.9542 57.2844 45.9338 58.3143 45.9542C59.3453 45.9338 60.3773 45.9542 61.4045 46.0152Z" fill="#263238"/>
<path d="M57.7193 60.938C57.7238 60.9605 57.7238 60.9833 57.7193 61.0058C57.7193 61.0555 57.7193 61.1188 57.7193 61.1979C57.7193 61.3787 57.7193 61.6273 57.7367 61.946C57.7541 62.2646 57.7367 62.6669 57.7367 63.1257C57.7367 63.3517 57.7367 63.6048 57.7367 63.8602C57.7723 64.1416 57.9689 64.4041 58.2877 64.5961C58.6066 64.7881 59.0245 64.8956 59.4593 64.8975H60.9766H64.3243H71.9977H79.6711H83.0224H84.5396C84.9774 64.8985 85.3997 64.7922 85.7222 64.5999C86.0447 64.4077 86.2437 64.1435 86.2796 63.8602C86.2796 63.6048 86.2796 63.3539 86.2796 63.1257C86.2796 62.6737 86.2796 62.2714 86.2796 61.9437C86.2796 61.616 86.2796 61.3787 86.297 61.1979V61.0058C86.297 60.9606 86.297 60.938 86.297 60.938C86.3016 60.9605 86.3016 60.9833 86.297 61.0058V61.1979C86.297 61.3787 86.297 61.6273 86.3144 61.9437C86.3318 62.2601 86.3144 62.6669 86.3144 63.1257C86.3144 63.3517 86.3144 63.598 86.3144 63.8647C86.2806 64.168 86.0734 64.4521 85.7333 64.6612C85.3933 64.8703 84.9452 64.9893 84.477 64.9947H82.9597H79.6085H71.9351H64.2617H60.9139H59.3932C58.9251 64.9897 58.4769 64.8709 58.1373 64.6616C57.7977 64.4524 57.5914 64.168 57.5592 63.8647C57.5592 63.598 57.5592 63.3562 57.5592 63.1257C57.5592 62.6737 57.5592 62.2714 57.5592 61.946C57.5592 61.6205 57.5592 61.3787 57.5766 61.1979C57.5766 61.1188 57.5766 61.0555 57.5766 61.0058C57.6159 60.9766 57.6646 60.9535 57.7193 60.938Z" fill="#FAD757"/>
<path d="M57.3052 60.9381C57.3052 60.8849 57.3295 60.8329 57.375 60.7887C57.4205 60.7445 57.4851 60.71 57.5608 60.6897C57.6365 60.6693 57.7198 60.664 57.8001 60.6744C57.8804 60.6847 57.9542 60.7103 58.0121 60.748C58.07 60.7856 58.1095 60.8335 58.1255 60.8857C58.1414 60.9378 58.1332 60.9919 58.1019 61.041C58.0705 61.0902 58.0175 61.1322 57.9494 61.1617C57.8813 61.1913 57.8012 61.2071 57.7193 61.2071C57.6095 61.2071 57.5041 61.1787 57.4265 61.1283C57.3488 61.0779 57.3052 61.0095 57.3052 60.9381Z" fill="#FAD757"/>
<path d="M92.916 39.6534H92.9752C93.0343 39.6508 93.0935 39.6508 93.1526 39.6534C93.3854 39.6717 93.6095 39.7218 93.8104 39.8003C93.9578 39.8572 94.0915 39.9281 94.2071 40.0105C94.3532 40.1091 94.4711 40.2239 94.5551 40.3495C94.6437 40.4932 94.6886 40.6467 94.6873 40.8015V41.3371C94.6873 42.849 94.6873 45.039 94.6873 47.7419V58.9628C94.6915 59.0796 94.6693 59.1961 94.6212 59.3086C94.5732 59.4225 94.4981 59.5308 94.3985 59.6295C94.2966 59.7278 94.1735 59.8161 94.0331 59.8917C93.746 60.0431 93.3931 60.1324 93.0239 60.1471C92.6759 60.1471 92.2931 60.1471 91.9242 60.1471H81.599C81.1954 60.1604 80.7961 60.0882 80.4611 59.9414C80.1268 59.7918 79.8813 59.5725 79.7651 59.3199C79.7113 59.1949 79.6867 59.0654 79.692 58.9357V58.5538C79.692 58.043 79.692 57.5368 79.692 57.035V54.0677C79.692 52.1195 79.692 50.2437 79.692 48.4561C79.692 46.6684 79.692 44.9689 79.692 43.3779C79.692 42.5823 79.692 41.8139 79.692 41.0772V40.8015C79.692 40.7563 79.692 40.7088 79.692 40.6636C79.692 40.6184 79.7129 40.5732 79.7303 40.528C79.7933 40.3514 79.9183 40.1866 80.0957 40.0466C80.2739 39.9118 80.4963 39.8045 80.7464 39.7325C80.9912 39.6642 81.2562 39.6318 81.5225 39.6376H84.1394C84.2626 39.6323 84.3851 39.6537 84.4874 39.6986C84.5854 39.744 84.6595 39.8079 84.6997 39.8816C84.734 39.9548 84.7458 40.0315 84.7345 40.1076V40.2184C84.731 40.2545 84.731 40.2907 84.7345 40.3269C84.7482 40.3969 84.7929 40.4629 84.8633 40.5167C84.9336 40.5696 85.0271 40.6074 85.1312 40.6252C85.1833 40.6285 85.2358 40.6285 85.2878 40.6252H89.436C89.516 40.6252 89.5961 40.6252 89.6726 40.6252C89.7492 40.6189 89.8228 40.6019 89.8884 40.5755C90.0113 40.5233 90.0986 40.4423 90.132 40.3495C90.1408 40.3037 90.1408 40.2574 90.132 40.2116V40.076C90.1251 40.0317 90.1251 39.987 90.132 39.9427C90.1413 39.9002 90.1638 39.8595 90.1981 39.8229C90.2594 39.75 90.3578 39.6933 90.4765 39.6624C90.5887 39.6387 90.7071 39.6302 90.8245 39.6376C90.7071 39.6308 90.5888 39.6393 90.4765 39.6624C90.3625 39.6931 90.268 39.7481 90.2086 39.8184C90.1774 39.8549 90.1563 39.8947 90.1459 39.9359C90.1389 39.9794 90.1389 40.0234 90.1459 40.067V40.2026C90.1545 40.2491 90.1545 40.2961 90.1459 40.3427C90.1312 40.3912 90.1014 40.4373 90.0583 40.4781C90.0152 40.5189 89.9598 40.5536 89.8954 40.58C89.8278 40.6075 89.7518 40.6253 89.6726 40.632C89.5891 40.632 89.5125 40.632 89.4325 40.632H85.3122C85.258 40.6375 85.2028 40.6375 85.1486 40.632C85.0395 40.6132 84.9414 40.5739 84.8668 40.519C84.7929 40.4614 84.7447 40.3919 84.7276 40.3178C84.7241 40.2809 84.7241 40.244 84.7276 40.2071V40.0963C84.7372 40.0203 84.7254 39.9437 84.6928 39.8703C84.6546 39.8008 84.584 39.7408 84.4909 39.6986C84.3952 39.6555 84.2799 39.6348 84.1638 39.6398H81.5468C81.2854 39.6344 81.0254 39.666 80.7847 39.7325C80.5403 39.8044 80.323 39.9101 80.1479 40.0421C79.978 40.1794 79.8589 40.3402 79.7999 40.5122C79.7825 40.5574 79.779 40.6003 79.7651 40.6455V40.7811V41.0568C79.7651 41.7936 79.7651 42.562 79.7651 43.3575V58.9154C79.7586 59.042 79.7821 59.1685 79.8347 59.2905C79.9481 59.5355 80.1861 59.7482 80.5098 59.8939C80.8354 60.0387 81.2261 60.1087 81.6199 60.0928H91.9312C92.3 60.0928 92.6689 60.0928 93.0274 60.0928C93.3877 60.0791 93.7322 59.9922 94.0122 59.8442C94.1465 59.7704 94.2637 59.6844 94.3602 59.5888C94.4557 59.4933 94.5285 59.3889 94.5759 59.2792C94.6223 59.1688 94.6445 59.0547 94.6421 58.9402V57.2384C94.6421 53.6631 94.6421 50.4426 94.6421 47.7464C94.6421 45.0503 94.6421 42.8535 94.6421 41.3416C94.6421 41.1518 94.6421 40.9732 94.6421 40.806C94.6522 40.5127 94.4891 40.2281 94.1862 40.0105C94.0707 39.9286 93.937 39.8585 93.7895 39.8025C93.5914 39.7229 93.3696 39.6713 93.1387 39.6511C93.0796 39.6486 93.0203 39.6486 92.9612 39.6511L92.916 39.6534Z" fill="#263238"/>
<path d="M93.264 41.4909C93.264 41.4909 92.9751 41.502 92.6202 41.5043C92.2652 41.5065 91.9729 41.5043 91.9729 41.5043C91.9729 41.5043 92.2617 41.5043 92.6202 41.4931C92.9786 41.4819 93.264 41.4864 93.264 41.4909Z" fill="#263238"/>
<path d="M93.264 41.7056C93.264 41.7056 92.9751 41.7174 92.6202 41.7197C92.2652 41.7221 91.9729 41.7197 91.9729 41.7197C91.9729 41.7197 92.2617 41.7197 92.6202 41.7197C92.9786 41.7197 93.264 41.7009 93.264 41.7056Z" fill="#263238"/>
<path d="M93.264 41.9209C93.264 41.9209 92.9751 41.9209 92.6167 41.9209C92.2583 41.9209 91.9729 41.9209 91.9729 41.9209C91.9729 41.9209 92.2617 41.9209 92.6167 41.9091C92.9717 41.8973 93.264 41.9162 93.264 41.9209Z" fill="#263238"/>
<path d="M81.5085 42.1643H81.6095H81.8844C81.8844 42.1259 81.8844 42.083 81.8844 42.0355C81.8844 41.988 81.8844 41.988 81.8844 41.9609C81.8888 41.9465 81.9004 41.9334 81.9174 41.9236C81.9343 41.9138 81.9557 41.9079 81.9783 41.9067H82.1071C82.1329 41.9089 82.1565 41.9173 82.1733 41.9303C82.19 41.9433 82.1987 41.9598 82.1976 41.9767C82.1976 42.0378 82.1976 42.101 82.1976 42.1666H82.5456V41.814C82.5443 41.8032 82.5392 41.7927 82.5308 41.7833C82.5223 41.7739 82.5107 41.7659 82.4969 41.7598L82.3472 41.6626L82.2011 41.5699L82.128 41.5225C82.1036 41.5089 82.0862 41.4931 82.0549 41.4886C82.0304 41.482 82.0029 41.482 81.9783 41.4886C81.9546 41.5017 81.9325 41.5161 81.9122 41.5315L81.7869 41.6129C81.7104 41.6649 81.6269 41.7146 81.5677 41.7598C81.5498 41.786 81.5438 41.815 81.5503 41.8434V42.1621C81.5503 42.1621 81.5503 42.1621 81.5503 42.1349C81.5503 42.1078 81.5503 42.0875 81.5503 42.0558C81.5503 42.0242 81.5503 41.9745 81.5503 41.9248C81.5503 41.875 81.5503 41.8728 81.5503 41.8457V41.8005C81.544 41.7849 81.544 41.7685 81.5503 41.753C81.6164 41.701 81.693 41.6558 81.7695 41.6016L81.8948 41.5202L81.9609 41.4773C81.975 41.4701 81.9914 41.4651 82.0089 41.4627C82.0265 41.4604 82.0446 41.4607 82.0619 41.4637C82.0952 41.4705 82.1244 41.484 82.1454 41.5021L82.2185 41.5473L82.3646 41.6423L82.5177 41.7394C82.533 41.7468 82.546 41.756 82.556 41.7666C82.561 41.7792 82.561 41.7924 82.556 41.805V41.875C82.556 41.9722 82.556 42.0671 82.556 42.1575H82.1837V41.9609C82.1838 41.9476 82.1765 41.9348 82.163 41.9248C82.1495 41.9148 82.1309 41.9083 82.1106 41.9067C82.0723 41.9067 82.0236 41.9067 81.9853 41.9067C81.9675 41.9075 81.9506 41.9122 81.9374 41.92C81.9241 41.9278 81.9153 41.9382 81.9122 41.9496C81.9122 41.9722 81.9122 41.9993 81.9122 42.0219V42.1575H81.5642C81.5642 42.1575 81.5085 42.1666 81.5085 42.1643Z" fill="#263238"/>
<path d="M90.2648 46.6953C90.5224 45.6615 89.4407 44.6879 87.8489 44.5207C86.2571 44.3534 84.7579 45.0559 84.5004 46.0896C84.2428 47.1234 85.3245 48.097 86.9163 48.2643C88.5081 48.4315 90.0073 47.7291 90.2648 46.6953Z" fill="#FAD757"/>
<path d="M92.0216 50.4653H82.1802V51.7716H92.0216V50.4653Z" fill="#EBEBEB"/>
<path d="M92.0216 52.3591H82.1802V53.6654H92.0216V52.3591Z" fill="#EBEBEB"/>
<path d="M89.6587 56.2508H84.7171C84.4504 56.2508 84.1946 56.182 84.006 56.0595C83.8174 55.937 83.7114 55.7709 83.7114 55.5977C83.7123 55.4248 83.8187 55.2593 84.0072 55.1373C84.1957 55.0153 84.451 54.9468 84.7171 54.9468H89.6587C89.9246 54.9468 90.1795 55.0154 90.3674 55.1374C90.5554 55.2595 90.661 55.425 90.661 55.5977C90.6614 55.6833 90.6359 55.7682 90.5857 55.8474C90.5355 55.9267 90.4618 55.9987 90.3687 56.0594C90.2756 56.12 90.1649 56.1682 90.0431 56.201C89.9213 56.2339 89.7907 56.2508 89.6587 56.2508Z" fill="#FAD757"/>
<path d="M90.2712 49.6766C89.245 49.7362 88.2143 49.7558 87.1845 49.7354C86.1535 49.7558 85.1216 49.7362 84.0942 49.6766C85.1217 49.6185 86.1535 49.5989 87.1845 49.6179C88.2143 49.5988 89.2449 49.6184 90.2712 49.6766Z" fill="#263238"/>
<path d="M83.5409 51.4031H83.1059C83.0856 51.4031 83.0661 51.3978 83.0517 51.3885C83.0374 51.3792 83.0293 51.3665 83.0293 51.3534C83.0293 51.3036 83.0597 51.2559 83.1139 51.2207C83.1681 51.1855 83.2415 51.1658 83.3181 51.1658C83.3947 51.1658 83.4682 51.1855 83.5224 51.2207C83.5765 51.2559 83.607 51.3036 83.607 51.3534C83.6072 51.3654 83.6005 51.3772 83.5884 51.3863C83.5762 51.3955 83.5593 51.4014 83.5409 51.4031Z" fill="#E0E0E0"/>
<path d="M83.3216 51.1794C83.4177 51.1794 83.4956 51.1288 83.4956 51.0664C83.4956 51.004 83.4177 50.9534 83.3216 50.9534C83.2255 50.9534 83.1476 51.004 83.1476 51.0664C83.1476 51.1288 83.2255 51.1794 83.3216 51.1794Z" fill="#E0E0E0"/>
<path d="M83.5826 53.0327H83.0641V53.27H83.5826V53.0327Z" fill="#E0E0E0"/>
<path d="M83.6418 53.087H83.4678V53.0147C83.471 53.0008 83.4697 52.9867 83.4637 52.9732C83.4578 52.9597 83.4475 52.9472 83.4334 52.9366C83.4194 52.926 83.402 52.9174 83.3824 52.9116C83.3627 52.9057 83.3414 52.9027 83.3199 52.9027C83.2983 52.9027 83.277 52.9057 83.2574 52.9116C83.2378 52.9174 83.2203 52.926 83.2063 52.9366C83.1922 52.9472 83.1819 52.9597 83.176 52.9732C83.17 52.9867 83.1687 53.0008 83.172 53.0147V53.087H82.998V53.0147C82.9933 52.9854 82.9981 52.9558 83.0121 52.9278C83.0262 52.8998 83.0491 52.874 83.0794 52.8522C83.1098 52.8303 83.1469 52.8128 83.1883 52.8009C83.2297 52.7889 83.2745 52.7827 83.3199 52.7827C83.3652 52.7827 83.41 52.7889 83.4514 52.8009C83.4928 52.8128 83.5299 52.8303 83.5603 52.8522C83.5906 52.874 83.6135 52.8998 83.6276 52.9278C83.6416 52.9558 83.6465 52.9854 83.6418 53.0147V53.087Z" fill="#E0E0E0"/>
<path d="M64.5226 15.3224C64.5226 15.3224 64.2338 15.3348 63.8788 15.3348C63.5239 15.3348 63.2316 15.3348 63.2316 15.3348C63.2316 15.3348 63.5204 15.3348 63.8788 15.3348C64.2373 15.3348 64.5226 15.3175 64.5226 15.3224Z" fill="#263238"/>
<path d="M64.5262 15.537C64.5262 15.537 64.2373 15.537 63.8789 15.5488C63.5205 15.5605 63.2351 15.5488 63.2351 15.5488C63.2351 15.5488 63.5239 15.5488 63.8789 15.5488C64.2339 15.5488 64.5262 15.5323 64.5262 15.537Z" fill="#263238"/>
<path d="M64.5296 15.7525C64.5296 15.7525 64.2408 15.7525 63.8823 15.7525C63.5239 15.7525 63.2385 15.7525 63.2385 15.7525C63.2385 15.7525 63.5274 15.7525 63.8823 15.7383C64.2373 15.7242 64.5296 15.7478 64.5296 15.7525Z" fill="#263238"/>
<path d="M52.7811 15.9957H52.8855H53.1604V15.8646C53.1604 15.8397 53.1604 15.8171 53.1604 15.79C53.1646 15.7757 53.1755 15.7625 53.1917 15.7523C53.208 15.7422 53.2287 15.7356 53.2509 15.7335H53.3832C53.409 15.7358 53.4326 15.7442 53.4493 15.7572C53.4661 15.7701 53.4747 15.7867 53.4736 15.8036C53.4736 15.8646 53.4736 15.9256 53.4736 15.9912H53.8216V15.6386C53.8203 15.6278 53.8153 15.6173 53.8068 15.6079C53.7984 15.5985 53.7868 15.5904 53.7729 15.5844L53.6233 15.4872L53.4736 15.3923L53.4041 15.3471C53.3797 15.3312 53.3588 15.3154 53.331 15.3132C53.3185 15.3093 53.3048 15.3073 53.2909 15.3073C53.2771 15.3073 53.2634 15.3093 53.2509 15.3132L53.1883 15.3538L53.063 15.4375C52.983 15.4894 52.9029 15.5369 52.8438 15.5844C52.8257 15.6106 52.8197 15.6396 52.8264 15.668V15.7471C52.8264 15.7968 52.8264 15.8397 52.8264 15.8759V15.9573C52.8264 15.9753 52.8264 15.9866 52.8264 15.9866V15.625C52.8232 15.6084 52.8294 15.5915 52.8438 15.5776C52.9099 15.5256 52.9864 15.4804 53.063 15.4262L53.1883 15.3448L53.2544 15.2996C53.2687 15.2928 53.2853 15.2882 53.3028 15.2862C53.3203 15.2843 53.3383 15.285 53.3553 15.2883C53.3887 15.2951 53.4179 15.3086 53.4388 15.3267L53.5119 15.3719C53.5572 15.4036 53.6094 15.4329 53.6581 15.4646C53.7068 15.4962 53.759 15.5301 53.8112 15.5618L53.8495 15.5889C53.8545 15.6015 53.8545 15.6147 53.8495 15.6273V15.6996C53.8495 15.7968 53.8495 15.8895 53.8495 15.9821H53.4771C53.4771 15.9166 53.4771 15.8533 53.4771 15.7923C53.4782 15.7792 53.4716 15.7664 53.4587 15.7563C53.4458 15.7463 53.4275 15.7397 53.4075 15.738H53.244C53.2256 15.7396 53.2084 15.7448 53.1948 15.7528C53.1811 15.7609 53.1715 15.7715 53.1674 15.7832V15.9889H52.7811V15.9957Z" fill="#263238"/>
<path d="M88.392 39.172C88.392 39.2252 88.3677 39.2772 88.3222 39.3214C88.2767 39.3657 88.212 39.4001 88.1363 39.4205C88.0606 39.4408 87.9774 39.4462 87.897 39.4358C87.8167 39.4254 87.7429 39.3998 87.685 39.3622C87.6271 39.3246 87.5877 39.2767 87.5717 39.2245C87.5557 39.1723 87.5639 39.1182 87.5952 39.0691C87.6266 39.02 87.6797 38.978 87.7478 38.9484C87.8159 38.9188 87.8959 38.9031 87.9778 38.9031C88.0877 38.9031 88.193 38.9314 88.2707 38.9818C88.3483 39.0323 88.392 39.1007 88.392 39.172Z" fill="#FAD757"/>
<path d="M150.204 41.3733C150.204 41.3733 149.908 41.3851 149.55 41.3874C149.191 41.3898 148.892 41.3874 148.892 41.3874C148.892 41.3874 149.188 41.3874 149.546 41.3874C149.905 41.3874 150.204 41.3686 150.204 41.3733Z" fill="#263238"/>
<path d="M150.204 41.5904C149.986 41.6027 149.768 41.6074 149.55 41.6045C149.202 41.6045 148.895 41.6045 148.895 41.6045C149.113 41.5923 149.331 41.5876 149.55 41.5904C149.911 41.5833 150.204 41.5857 150.204 41.5904Z" fill="#263238"/>
<path d="M150.207 41.8095C150.207 41.8095 149.915 41.8095 149.553 41.8207C149.191 41.832 148.899 41.8207 148.899 41.8207C148.899 41.8207 149.191 41.8207 149.553 41.8072C149.771 41.8002 149.989 41.801 150.207 41.8095Z" fill="#263238"/>
<path d="M138.299 42.0558H138.4H138.682C138.682 42.0151 138.682 41.9699 138.682 41.9224C138.682 41.875 138.682 41.875 138.682 41.8479C138.685 41.833 138.697 41.8194 138.714 41.8092C138.731 41.7989 138.752 41.7927 138.775 41.7914C138.817 41.7914 138.859 41.7914 138.908 41.7914C138.933 41.7941 138.956 41.8026 138.973 41.8155C138.99 41.8283 138.999 41.8446 138.998 41.8614C138.998 41.9224 138.998 41.9857 138.998 42.0535H139.346C139.346 41.9609 139.346 41.8659 139.346 41.7688V41.6964C139.341 41.6746 139.322 41.6551 139.294 41.6422L139.141 41.5428L138.991 41.4478L138.922 41.4004C138.894 41.3868 138.876 41.371 138.849 41.3665C138.835 41.3626 138.821 41.3606 138.807 41.3606C138.792 41.3606 138.778 41.3626 138.765 41.3665C138.744 41.3778 138.723 41.3959 138.702 41.4094L138.574 41.4908C138.494 41.545 138.41 41.5947 138.351 41.6399C138.335 41.6673 138.329 41.6967 138.334 41.7258V42.049C138.332 42.04 138.332 42.0309 138.334 42.0219V41.9405C138.334 41.9044 138.334 41.8592 138.334 41.8094C138.334 41.7597 138.334 41.7575 138.334 41.7281V41.6829C138.334 41.6664 138.34 41.6502 138.351 41.6354C138.417 41.5834 138.494 41.536 138.574 41.4817L138.702 41.3981C138.723 41.3827 138.745 41.3683 138.769 41.3552C138.782 41.3476 138.799 41.3424 138.816 41.3401C138.834 41.3377 138.852 41.3382 138.869 41.3416C138.903 41.349 138.933 41.3623 138.956 41.38L139.03 41.4275L139.176 41.5224L139.332 41.6196C139.346 41.6281 139.359 41.6372 139.371 41.6467C139.376 41.6593 139.376 41.6725 139.371 41.6851V42.0535H138.991C138.991 41.9857 138.991 41.9224 138.991 41.8614C138.992 41.8482 138.985 41.8353 138.972 41.825C138.959 41.8147 138.942 41.8076 138.922 41.8049H138.793C138.775 41.8065 138.757 41.8116 138.744 41.8197C138.73 41.8278 138.72 41.8384 138.716 41.8501C138.716 41.8727 138.716 41.8998 138.716 41.9224V42.0603H138.327L138.299 42.0558Z" fill="#263238"/>
<path d="M149.376 43.9021C149.376 43.9021 149.376 43.8772 149.355 43.8388C149.329 43.7831 149.276 43.7341 149.205 43.6987C149.152 43.6741 149.091 43.6583 149.027 43.6528C148.962 43.6472 148.897 43.6522 148.836 43.6671C148.764 43.6842 148.702 43.7149 148.658 43.7551C148.613 43.7954 148.588 43.8435 148.586 43.8931C148.589 43.9425 148.614 43.9903 148.659 44.0305C148.703 44.0706 148.765 44.1014 148.836 44.1191C148.897 44.1337 148.963 44.1382 149.027 44.1323C149.092 44.1264 149.153 44.1102 149.205 44.0852C149.277 44.0511 149.329 44.0026 149.355 43.9473C149.372 43.9066 149.372 43.884 149.376 43.884C149.379 43.884 149.376 43.884 149.376 43.8998C149.378 43.9164 149.378 43.933 149.376 43.9496C149.355 44.0095 149.303 44.0629 149.229 44.101C149.167 44.1325 149.091 44.152 149.012 44.1572C148.933 44.1624 148.854 44.1531 148.783 44.1304C148.711 44.1077 148.651 44.0725 148.609 44.0287C148.567 43.985 148.545 43.9344 148.545 43.8829C148.545 43.8313 148.567 43.7808 148.609 43.7371C148.651 43.6933 148.711 43.6581 148.783 43.6354C148.854 43.6127 148.933 43.6034 149.012 43.6086C149.091 43.6138 149.167 43.6333 149.229 43.6648C149.304 43.7037 149.355 43.7579 149.376 43.8185C149.378 43.8343 149.378 43.8502 149.376 43.8659C149.379 43.8953 149.379 43.9021 149.376 43.9021Z" fill="#263238"/>
<path d="M149.602 44.3587C149.524 44.3266 149.456 44.2861 149.4 44.2389C149.299 44.1689 149.226 44.1079 149.236 44.1011C149.311 44.1339 149.378 44.1734 149.435 44.2186C149.501 44.2595 149.557 44.3067 149.602 44.3587Z" fill="#263238"/>
<path d="M149.341 46.9849C149.341 46.9849 147.733 47.0009 145.753 47.0009C143.773 47.0009 142.161 47.0009 142.161 46.9849C142.161 46.969 143.769 46.969 145.753 46.969C147.736 46.969 149.341 46.9713 149.341 46.9849Z" fill="#263238"/>
<path d="M146.4 47.3465C146.4 47.3465 145.454 47.3625 144.281 47.3625C143.108 47.3625 142.161 47.3625 142.161 47.3465C142.161 47.3306 143.112 47.3329 144.281 47.3329C145.45 47.3329 146.4 47.3397 146.4 47.3465Z" fill="#263238"/>
<path d="M149.341 49.9071C149.341 49.9071 147.733 49.923 145.753 49.923C143.773 49.923 142.161 49.923 142.161 49.9071C142.161 49.8911 143.769 49.8934 145.753 49.8934C147.736 49.8934 149.341 49.9003 149.341 49.9071Z" fill="#263238"/>
<path d="M146.4 50.2755C146.4 50.2755 145.454 50.2891 144.281 50.2891C143.108 50.2891 142.161 50.2891 142.161 50.2755C142.161 50.2618 143.112 50.2595 144.281 50.2595C145.45 50.2595 146.4 50.2663 146.4 50.2755Z" fill="#263238"/>
<path d="M149.428 52.452C149.428 52.452 147.799 52.4656 145.795 52.4656C143.79 52.4656 142.161 52.4656 142.161 52.452C142.161 52.4383 143.79 52.436 145.795 52.436C147.799 52.436 149.428 52.4429 149.428 52.452Z" fill="#263238"/>
<path d="M149.341 52.836C149.341 52.836 147.733 52.8497 145.753 52.8497C143.773 52.8497 142.161 52.8497 142.161 52.836C142.161 52.8223 143.769 52.8201 145.753 52.8201C147.736 52.8201 149.341 52.8269 149.341 52.836Z" fill="#263238"/>
<path d="M146.4 53.2022C146.4 53.2022 145.454 53.2182 144.281 53.2182C143.108 53.2182 142.161 53.2182 142.161 53.2022C142.161 53.1863 143.112 53.1886 144.281 53.1886C145.45 53.1886 146.4 53.1954 146.4 53.2022Z" fill="#263238"/>
<path d="M149.341 55.7628C149.341 55.7628 147.733 55.7787 145.753 55.7787C143.773 55.7787 142.161 55.7787 142.161 55.7628C142.161 55.7469 143.769 55.7491 145.753 55.7491C147.736 55.7491 149.341 55.756 149.341 55.7628Z" fill="#263238"/>
<path d="M146.4 56.1312C146.4 56.1312 145.454 56.1448 144.281 56.1448C143.108 56.1448 142.161 56.1448 142.161 56.1312C142.161 56.1175 143.112 56.1152 144.281 56.1152C145.45 56.1152 146.4 56.1221 146.4 56.1312Z" fill="#263238"/>
<path d="M149.428 58.285C149.428 58.285 147.799 58.3009 145.795 58.3009C143.79 58.3009 142.161 58.3009 142.161 58.285C142.161 58.2691 143.79 58.2714 145.795 58.2714C147.799 58.2714 149.428 58.285 149.428 58.285Z" fill="#263238"/>
<path d="M149.341 58.6715C149.341 58.6715 147.733 58.6851 145.753 58.6851C143.773 58.6851 142.161 58.6851 142.161 58.6715C142.161 58.6578 143.769 58.6555 145.753 58.6555C147.736 58.6555 149.341 58.6623 149.341 58.6715Z" fill="#263238"/>
<path d="M146.4 59.0377C146.4 59.0377 145.454 59.0536 144.281 59.0536C143.108 59.0536 142.161 59.0536 142.161 59.0377C142.161 59.0217 143.112 59.0217 144.281 59.0217C145.45 59.0217 146.4 59.0286 146.4 59.0377Z" fill="#263238"/>
<path d="M122.103 41.4909C122.103 41.4909 121.814 41.502 121.459 41.5043C121.104 41.5065 120.812 41.5043 120.812 41.5043C120.812 41.5043 121.1 41.5043 121.459 41.4931C121.817 41.4819 122.103 41.4864 122.103 41.4909Z" fill="#263238"/>
<path d="M122.106 41.7056C122.106 41.7056 121.817 41.7174 121.459 41.7197C121.101 41.7221 120.815 41.7197 120.815 41.7197C120.815 41.7197 121.104 41.7197 121.459 41.7197C121.814 41.7197 122.106 41.7009 122.106 41.7056Z" fill="#263238"/>
<path d="M122.11 41.9209C122.11 41.9209 121.821 41.9209 121.462 41.9209C121.104 41.9209 120.819 41.9209 120.819 41.9209C120.819 41.9209 121.107 41.9209 121.462 41.9091C121.817 41.8973 122.11 41.9162 122.11 41.9209Z" fill="#263238"/>
<path d="M110.361 42.1643H110.466H110.741C110.741 42.1259 110.741 42.083 110.741 42.0355C110.741 41.988 110.741 41.988 110.741 41.9609C110.745 41.9468 110.756 41.934 110.772 41.9242C110.788 41.9145 110.809 41.9083 110.831 41.9067H110.963C110.989 41.9094 111.012 41.9179 111.029 41.9308C111.045 41.9437 111.054 41.96 111.054 41.9767C111.054 42.0378 111.054 42.101 111.054 42.1666H111.402V41.8841V41.814C111.4 41.8032 111.395 41.7927 111.387 41.7833C111.378 41.7739 111.367 41.7659 111.353 41.7598L111.2 41.6626L111.012 41.5609L110.942 41.5134C110.922 41.4987 110.897 41.4871 110.869 41.4795C110.844 41.4729 110.815 41.4729 110.789 41.4795C110.768 41.4908 110.747 41.5089 110.727 41.5225L110.601 41.6038C110.521 41.6558 110.441 41.7055 110.382 41.7507C110.364 41.777 110.358 41.806 110.365 41.8344V42.1236C110.365 42.144 110.365 42.153 110.365 42.153V42.1259C110.365 42.1056 110.365 42.0784 110.365 42.0468V41.9157V41.7914C110.365 41.7747 110.372 41.7583 110.386 41.744C110.448 41.692 110.528 41.6468 110.605 41.5925L110.73 41.5112C110.75 41.4958 110.772 41.4814 110.796 41.4682C110.81 41.461 110.827 41.4561 110.844 41.4537C110.862 41.4513 110.88 41.4517 110.897 41.4547C110.93 41.4615 110.96 41.4749 110.981 41.4931L111.054 41.5383C111.098 41.5699 111.147 41.6016 111.2 41.6332L111.353 41.7304C111.367 41.7384 111.38 41.7475 111.391 41.7575C111.396 41.7701 111.396 41.7833 111.391 41.7959V41.866C111.391 41.9632 111.391 42.0581 111.391 42.1485H111.012V41.9519C111.013 41.9388 111.006 41.926 110.994 41.9159C110.981 41.9059 110.962 41.8993 110.942 41.8976C110.904 41.8976 110.855 41.8976 110.817 41.8976C110.799 41.8987 110.782 41.9034 110.768 41.9111C110.754 41.9188 110.745 41.9291 110.741 41.9406C110.741 41.9632 110.741 41.9903 110.741 42.0129V42.1485H110.393C110.393 42.1485 110.361 42.1666 110.361 42.1643Z" fill="#263238"/>
<path d="M120.234 70.0685C120.234 70.0685 119.945 70.0685 119.587 70.0798C119.228 70.0911 118.943 70.0798 118.943 70.0798C119.157 70.0681 119.372 70.0635 119.587 70.0662C119.802 70.0593 120.018 70.06 120.234 70.0685Z" fill="#263238"/>
<path d="M120.234 70.2811C120.02 70.2933 119.805 70.298 119.59 70.2952C119.242 70.2952 118.946 70.2952 118.946 70.2952C119.16 70.2828 119.375 70.2781 119.59 70.2811C119.945 70.274 120.234 70.2764 120.234 70.2811Z" fill="#263238"/>
<path d="M120.237 70.4887C120.023 70.5004 119.809 70.5048 119.594 70.5022C119.378 70.5098 119.162 70.5098 118.946 70.5022C118.946 70.5022 119.235 70.5022 119.594 70.491C119.952 70.4798 120.237 70.4887 120.237 70.4887Z" fill="#263238"/>
<path d="M108.492 70.7419H108.868V70.6108C108.868 70.5882 108.868 70.5656 108.868 70.5362C108.874 70.5221 108.886 70.5093 108.902 70.4997C108.919 70.49 108.94 70.4838 108.962 70.482H109.094C109.12 70.4842 109.143 70.4923 109.159 70.5048C109.176 70.5173 109.185 70.5333 109.185 70.5498C109.185 70.6108 109.185 70.6741 109.185 70.7396H109.533V70.3871C109.533 70.3645 109.512 70.3509 109.484 70.3328C109.456 70.3147 109.38 70.2695 109.331 70.2356L109.185 70.143L109.115 70.0978C109.096 70.0818 109.071 70.0693 109.042 70.0616C109.028 70.0595 109.014 70.0594 109 70.0613C108.986 70.0633 108.973 70.0672 108.962 70.0729L108.896 70.1136L108.774 70.195C108.694 70.2492 108.611 70.2967 108.552 70.3419C108.535 70.3684 108.529 70.3971 108.534 70.4255V70.7148C108.533 70.7245 108.533 70.7344 108.534 70.7441C108.535 70.7351 108.535 70.7261 108.534 70.717V70.3803C108.535 70.3635 108.542 70.3472 108.555 70.3328C108.618 70.2831 108.694 70.2379 108.774 70.1837L108.896 70.1L108.966 70.0571C108.98 70.0505 108.997 70.0458 109.014 70.0435C109.031 70.0411 109.049 70.0412 109.067 70.0435C109.098 70.0524 109.127 70.0655 109.15 70.082L109.22 70.1294L109.366 70.2221L109.519 70.3193C109.534 70.3272 109.546 70.3363 109.557 70.3464C109.569 70.3578 109.577 70.371 109.578 70.3848V70.4571C109.578 70.552 109.578 70.647 109.578 70.7374H109.206V70.5385C109.205 70.5257 109.198 70.5133 109.186 70.5034C109.173 70.4936 109.156 70.4868 109.136 70.4842H109.011C108.993 70.4853 108.976 70.49 108.962 70.4977C108.948 70.5054 108.939 70.5157 108.934 70.5272C108.934 70.5498 108.934 70.5769 108.934 70.5995V70.7351H108.548L108.492 70.7419Z" fill="#263238"/>
<path d="M86.304 39.441C86.5327 39.441 86.7181 39.3205 86.7181 39.172C86.7181 39.0235 86.5327 38.9031 86.304 38.9031C86.0753 38.9031 85.8899 39.0235 85.8899 39.172C85.8899 39.3205 86.0753 39.441 86.304 39.441Z" fill="#FAD757"/>
<path d="M50.9403 68.8301L57.4444 87.0819L55.0328 104.595H32.726L31.9708 95.3716V68.7465L36.5609 67.5261L47.4986 68.1363" fill="#FAFAFA"/>
<path d="M80.1514 79.9944L84.912 65.3179L85.1591 62.893C85.1591 62.893 86.2031 57.4509 86.2031 56.9198C86.2031 56.3051 86.6555 56.1582 87.0035 56.174C87.5464 56.1966 87.9327 56.626 87.957 57.1571C87.957 57.3401 87.9327 60.2149 87.9327 60.2149C88.1897 59.9437 88.4757 59.6847 88.7888 59.4397C89.4465 58.8995 90.9812 58.5922 92.5611 58.6261C94.141 58.66 94.576 58.7594 94.5864 59.1572C94.5824 59.2325 94.5525 59.3063 94.4989 59.3731C94.4453 59.44 94.3694 59.4983 94.2767 59.5436C93.9831 59.6994 93.6116 59.7798 93.2327 59.7696C90.7028 59.7403 90.0207 60.6171 90.0207 60.6171L89.9894 60.9358C89.9894 60.9358 91.5275 60.2216 92.749 60.5222C92.9307 60.5663 93.0974 60.6331 93.2397 60.7188C93.5846 60.7197 93.9232 60.7792 94.2219 60.8914C94.5205 61.0035 94.7687 61.1645 94.9418 61.3583C95.1149 61.5521 95.2069 61.7719 95.2087 61.9959C95.2104 62.22 95.1219 62.4404 94.9518 62.6353C94.8859 62.735 94.7745 62.8193 94.6327 62.8766C94.4908 62.934 94.3253 62.9618 94.1584 62.9562C93.9881 62.9232 93.8336 62.8626 93.7095 62.78C93.6406 62.7401 93.566 62.7045 93.4868 62.6737L93.2049 63.5529C93.2049 63.5529 92.4045 65.51 92.2061 66.3869L91.1134 80.9051C91.0753 81.3831 90.8915 81.8513 90.5726 82.2828C90.2538 82.7142 89.8063 83.1002 89.256 83.4185C88.7057 83.7368 88.0636 83.981 87.3669 84.1369C86.6702 84.2928 85.9328 84.3573 85.1974 84.3268C84.408 84.2891 83.64 84.1425 82.9447 83.8968C82.2494 83.6511 81.6427 83.3119 81.1652 82.9019C80.6877 82.4919 80.3503 82.0205 80.1755 81.5192C80.0006 81.0178 79.9924 80.498 80.1514 79.9944Z" fill="#B78876"/>
<path d="M85.6359 65.1213C86.0987 65.2026 86.5755 64.9834 86.8261 64.7167C87.0766 64.4501 87.1741 64.1359 87.4003 63.8579C88.058 63.0263 89.6518 62.6285 90.2469 61.7787C90.3304 61.6612 90.3757 61.4985 90.2156 61.4194C90.0555 61.3403 89.8676 61.4036 89.6936 61.4623L85.5176 62.963" fill="#B78876"/>
<path d="M85.5245 62.963C85.6519 62.8867 85.7948 62.822 85.9491 62.7709C86.2345 62.6556 86.6451 62.4974 87.1601 62.303L88.9697 61.625L89.4917 61.4329C89.589 61.3829 89.7007 61.346 89.8202 61.3243C89.9397 61.3025 90.0646 61.2965 90.1877 61.3064C90.263 61.322 90.3294 61.3518 90.3784 61.3921C90.4274 61.4324 90.4567 61.4812 90.4627 61.5324C90.4692 61.6183 90.4454 61.7042 90.3931 61.7832C90.298 61.921 90.1814 62.052 90.0451 62.1742C89.4674 62.6624 88.7227 62.9675 88.1833 63.3223C87.9213 63.4834 87.6984 63.6693 87.5221 63.8737C87.3655 64.0658 87.2645 64.267 87.1427 64.4455C87.0685 64.5979 86.9433 64.7377 86.776 64.8549C86.6088 64.9722 86.4036 65.0639 86.1753 65.1235C85.8273 65.1913 85.6429 65.1235 85.6533 65.1122C85.8191 65.1133 85.9839 65.0957 86.1405 65.0602C86.3412 64.9936 86.5182 64.9005 86.6602 64.7868C86.8022 64.6732 86.9061 64.5415 86.9653 64.4003C87.0731 64.2263 87.1601 64.0206 87.3133 63.8082C87.4941 63.5862 87.7291 63.3847 88.0093 63.2116C88.5626 62.8364 89.3003 62.5336 89.8293 62.0816C89.9589 61.9726 90.0687 61.8543 90.1564 61.729C90.2365 61.6115 90.226 61.4917 90.1216 61.4804C90.0172 61.4691 89.8189 61.5233 89.6414 61.5889L89.1089 61.7765L87.2715 62.4138C86.7495 62.5946 86.3215 62.737 86.0222 62.8319C85.8655 62.889 85.6983 62.9331 85.5245 62.963Z" fill="#AA6550"/>
<path d="M89.9407 60.9562C89.9706 60.7598 90.0694 60.5703 90.2295 60.4025C90.4213 60.2317 90.6919 60.1051 91.0021 60.0409C91.3884 59.9629 91.7912 59.9247 92.1957 59.9279C92.6159 59.9319 93.0356 59.9084 93.4485 59.8579C93.7933 59.812 94.1136 59.7084 94.3777 59.5573C94.4677 59.5037 94.537 59.4371 94.5799 59.3629C94.6229 59.2887 94.6382 59.2089 94.6248 59.1301C94.6004 59.0217 94.5482 58.9719 94.5413 58.9742C94.5429 59.0278 94.5487 59.0814 94.5587 59.1347C94.5574 59.2043 94.5328 59.2729 94.4865 59.3358C94.4402 59.3986 94.3734 59.4542 94.2907 59.4985C94.0335 59.6292 93.7314 59.7176 93.4103 59.7562C93.0077 59.799 92.6001 59.8187 92.1923 59.8149C91.7691 59.8123 91.3482 59.8551 90.9464 59.9415C90.6096 60.0176 90.3217 60.1648 90.1286 60.3596C90.0027 60.4896 89.9286 60.638 89.9129 60.7912C89.9059 60.8997 89.9303 60.9585 89.9407 60.9562Z" fill="#AA6550"/>
<path d="M87.9501 56.9539C87.9248 57.1441 87.9248 57.3354 87.9501 57.5256C87.9501 57.9189 87.9501 58.3867 87.9744 58.902C87.9988 59.4173 87.9744 59.8873 87.9744 60.2783C87.9555 60.4689 87.9625 60.6603 87.9953 60.8501C88.0645 60.6636 88.0996 60.4724 88.0997 60.2806C88.138 59.928 88.1623 59.4421 88.1589 58.902C88.1554 58.3618 88.1275 57.8759 88.0858 57.5234C88.0729 57.3309 88.0274 57.1399 87.9501 56.9539Z" fill="#AA6550"/>
<path d="M90.9395 61.6048C91.0293 61.5903 91.1158 61.5683 91.197 61.5393C91.3039 61.5036 91.4214 61.4833 91.5416 61.4798C91.6617 61.4762 91.7815 61.4896 91.893 61.519C91.9591 61.5429 92.0147 61.5776 92.0543 61.6195C92.0939 61.6615 92.1162 61.7093 92.1192 61.7585C92.1315 61.8827 92.1175 62.0074 92.0774 62.1292C92.0277 62.2833 92.066 62.444 92.1853 62.5812C92.2623 62.6508 92.3637 62.7076 92.481 62.7469C92.5984 62.7862 92.7284 62.8068 92.8604 62.8072C92.9907 62.8072 93.1196 62.79 93.2393 62.7566C93.359 62.7232 93.4669 62.6743 93.5564 62.6128C93.7235 62.5032 93.8372 62.3641 93.8835 62.2128C93.9336 61.9679 93.9266 61.7195 93.8627 61.476C93.8238 61.3079 93.7389 61.1456 93.6121 60.9969C93.5216 60.8929 93.4381 60.8523 93.4311 60.8568C93.4242 60.8613 93.4833 60.9133 93.5495 61.015C93.6354 61.1648 93.6904 61.3213 93.713 61.4805C93.7554 61.715 93.7496 61.9522 93.6956 62.1857C93.6578 62.3186 93.5533 62.4397 93.3985 62.53C93.2436 62.6204 93.0471 62.6749 92.8395 62.6851C92.7356 62.6849 92.6332 62.669 92.5402 62.6388C92.4473 62.6087 92.3663 62.5649 92.3036 62.5111C92.2063 62.3969 92.1754 62.2637 92.2166 62.1359C92.2505 62.0046 92.2587 61.8709 92.241 61.7382C92.2312 61.6748 92.1967 61.6142 92.1407 61.562C92.0846 61.5097 92.0089 61.4677 91.9208 61.4399C91.7962 61.4093 91.6622 61.3982 91.5297 61.4077C91.3973 61.4171 91.2702 61.4467 91.1587 61.4941C91.0752 61.5214 91.0007 61.559 90.9395 61.6048Z" fill="#AA6550"/>
<path d="M93.4659 62.5246C93.4659 62.5246 93.4311 62.5856 93.4903 62.6873C93.5345 62.7587 93.6037 62.8225 93.6925 62.8735C93.7813 62.9245 93.8872 62.9613 94.0018 62.9811C94.1757 63.0067 94.3568 63.0022 94.5272 62.9681C94.6976 62.934 94.8512 62.8714 94.9727 62.7868C95.2613 62.5808 95.4159 62.3103 95.4043 62.0319C95.4049 61.7563 95.2722 61.4875 95.0249 61.2635C94.8235 61.0827 94.5506 60.9406 94.235 60.8522C94.0275 60.7917 93.8044 60.7572 93.5773 60.7505C93.4172 60.7505 93.3267 60.7505 93.3302 60.7663C93.624 60.794 93.9108 60.8472 94.1828 60.9245C94.4689 61.0165 94.7143 61.1541 94.8962 61.3245C95.1195 61.5321 95.2408 61.7787 95.2442 62.0319C95.2528 62.28 95.1202 62.5214 94.8718 62.7099C94.7699 62.7839 94.6409 62.8401 94.4968 62.8733C94.3527 62.9065 94.198 62.9156 94.0471 62.8998C93.947 62.8862 93.8524 62.8591 93.7697 62.8202C93.6869 62.7812 93.6177 62.7313 93.5668 62.6738C93.5288 62.6253 93.4951 62.5755 93.4659 62.5246Z" fill="#AA6550"/>
<path d="M90.4174 64.4479C90.2791 64.42 90.1311 64.42 89.9928 64.4479C89.6319 64.4995 89.3076 64.6275 89.0706 64.8117L89.2203 64.8388C89.2014 64.7095 89.1688 64.5811 89.1228 64.4546C88.995 64.0084 88.6794 63.5938 88.2111 63.2568C88.5235 63.6472 88.7719 64.0577 88.9523 64.4818C88.9962 64.604 89.0299 64.7278 89.0532 64.8524L89.0811 64.979L89.2029 64.8795C89.4154 64.7093 89.6995 64.5829 90.0207 64.5157C90.2608 64.4659 90.4174 64.4614 90.4174 64.4479Z" fill="#AA6550"/>
<path d="M90.4974 59.5527C90.4556 59.5662 90.6296 59.7787 91.0159 59.8804C91.4022 59.9821 91.7537 59.9324 91.7398 59.903C91.7258 59.8736 91.4231 59.8736 91.0855 59.7764C90.748 59.6793 90.5392 59.5323 90.4974 59.5527Z" fill="#AA6550"/>
<path d="M29.4235 58.2216C28.9074 57.5982 28.0622 57.1167 27.0431 56.8656C26.5341 56.746 25.9854 56.7162 25.4528 56.7794C24.9203 56.8425 24.4231 56.9963 24.012 57.225C23.6195 57.4667 23.3697 57.7901 23.3062 58.139C23.2426 58.4878 23.3692 58.8401 23.664 59.1347C23.1376 59.078 22.5976 59.1079 22.0935 59.2217C21.5894 59.3354 21.1372 59.5293 20.7782 59.7857C20.4192 60.0422 20.1649 60.3529 20.0383 60.6896C19.9118 61.0263 19.9172 61.3782 20.054 61.7132C20.1907 62.0482 20.4545 62.3556 20.8213 62.6073C21.1881 62.8591 21.6461 63.0471 22.1536 63.1544C22.661 63.2616 23.2018 63.2845 23.7264 63.2211C24.251 63.1577 24.7429 63.01 25.157 62.7914C25.2499 63.0491 25.4429 63.287 25.7177 63.4824C25.9925 63.6778 26.3399 63.8243 26.7266 63.9077C27.1134 63.9911 27.5266 64.0087 27.9269 63.9589C28.3271 63.9091 28.701 63.7934 29.0128 63.623C30.5788 62.7688 30.1125 60.8726 31.8699 60.1924" fill="#263238"/>
<path d="M45.7273 69.743C46.8024 70.2179 48.0345 70.5218 49.3241 70.6302C50.6136 70.7385 51.9243 70.6483 53.1501 70.3667C53.8204 70.2326 54.4346 70.0007 54.9458 69.6887C55.5518 69.2325 55.9237 68.665 56.0098 68.0651C56.0958 67.4652 55.8918 66.8628 55.426 66.3417C54.8101 65.684 53.78 65.1891 53.3868 64.4614C52.9587 63.6726 53.3867 62.807 53.432 61.9754C53.4584 61.1693 53.1366 60.3745 52.5031 59.6811C51.8695 58.9876 50.9497 58.4233 49.8476 58.052L44.1056 62.007L45.2401 69.5351L45.7273 69.743Z" fill="#263238"/>
<path d="M30.2134 59.4918C31.0173 60.4817 31.8316 61.4942 32.0892 62.6016C32.3467 63.709 31.95 64.9429 30.6484 65.6774C29.5766 66.2831 28.0732 66.4639 26.9248 67.0063C25.2336 67.8064 24.5898 69.246 24.374 70.5975C24.1582 71.949 24.2487 73.3434 23.5632 74.6271C22.6758 76.2836 20.5599 77.6012 19.9231 79.3053C19.6045 80.1515 19.6749 81.0399 20.1255 81.8604C20.576 82.681 21.387 83.3978 22.4582 83.9222C23.5294 84.4467 24.8137 84.7557 26.1525 84.8112C27.4912 84.8667 28.8256 84.6661 29.9907 84.2343C33.3211 83.0026 34.4451 80.2929 35.2629 77.8634C37.5423 71.1173 39.8252 64.1271 37.6502 57.3674" fill="#263238"/>
<path d="M32.0543 49.2969C32.6598 48.0787 35.7744 46.9781 37.4831 46.3385C40.0374 45.3848 42.4073 45.5769 43.8654 46.4244C46.5033 44.987 49.9763 43.6084 53.3067 44.1644C56.637 44.7204 59.341 46.9442 58.7355 49.1364C58.3875 50.4336 56.9955 51.5975 57.0755 52.9129C57.1312 53.8169 57.862 54.6214 58.4466 55.435C59.0313 56.2486 59.4906 57.2001 58.9582 58.0318C58.4745 58.8069 57.2669 59.2883 56.6162 60.0115C56.0872 60.5969 55.9654 61.2975 55.6244 61.9416C54.3681 64.3304 50.0285 65.6683 46.2005 65.2479C42.3725 64.8276 39.1779 62.9563 37.3683 60.7279C35.5587 58.4996 34.9636 55.9345 34.7513 53.4146" fill="#263238"/>
<path d="M34.9149 51.0235L35.6805 70.9273C35.9554 73.2099 40.1071 76.5773 43.8655 76.3694C47.6622 76.157 49.6492 72.4121 49.4335 70.1047C49.2038 67.682 49.0298 65.1327 49.0298 65.1327C49.0298 65.1327 53.7835 64.414 54.3751 60.3031C54.6778 58.1945 54.1524 54.7435 53.599 51.9976C53.4895 51.4516 53.211 50.9257 52.7803 50.4514C52.3496 49.9772 51.7756 49.5644 51.0929 49.238C50.4101 48.9116 49.6328 48.6783 48.8076 48.552C47.9823 48.4258 47.1263 48.4094 46.291 48.5036" fill="#B78876"/>
<path d="M48.988 65.0762C46.0394 65.2301 43.0829 64.849 40.4481 63.9756C40.4481 63.9756 42.8215 66.7147 49.0576 66.0706L48.988 65.0762Z" fill="#AA6550"/>
<path d="M44.4535 52.61C44.3839 52.7659 43.5139 52.7298 42.5082 52.8518C41.5025 52.9738 40.6986 53.1885 40.549 53.0575C40.4828 52.9942 40.6116 52.8315 40.9283 52.6823C41.3519 52.4826 41.84 52.3482 42.3554 52.289C42.8709 52.2299 43.4004 52.2477 43.9037 52.341C44.2865 52.4224 44.4848 52.5354 44.4535 52.61Z" fill="#263238"/>
<path d="M52.4611 52.7479C52.3219 52.8812 51.7129 52.7728 50.996 52.7976C50.2791 52.8225 49.6805 52.9377 49.5274 52.8112C49.4613 52.7479 49.5448 52.6168 49.7989 52.4857C50.1366 52.3212 50.5459 52.2302 50.9681 52.2258C51.3896 52.2129 51.8069 52.2855 52.1618 52.4338C52.4263 52.5535 52.5237 52.6824 52.4611 52.7479Z" fill="#263238"/>
<path d="M44.9164 57.1977C44.9164 57.2272 44.9029 57.2561 44.8777 57.2806C44.8524 57.3051 44.8166 57.3243 44.7746 57.3355C44.7326 57.3468 44.6865 57.3498 44.6419 57.344C44.5973 57.3383 44.5564 57.3241 44.5243 57.3032C44.4922 57.2824 44.4703 57.2558 44.4614 57.2268C44.4526 57.1979 44.4571 57.1679 44.4745 57.1407C44.4919 57.1134 44.5213 57.0901 44.5591 57.0737C44.5969 57.0573 44.6413 57.0486 44.6867 57.0486C44.7476 57.0486 44.806 57.0643 44.8491 57.0923C44.8922 57.1202 44.9164 57.1582 44.9164 57.1977Z" fill="#AA6550"/>
<path d="M51.41 56.4768C51.41 56.5063 51.3966 56.5351 51.3713 56.5597C51.3461 56.5842 51.3102 56.6033 51.2683 56.6146C51.2263 56.6259 51.1801 56.6288 51.1356 56.6231C51.091 56.6173 51.0501 56.6031 51.018 56.5823C50.9858 56.5614 50.964 56.5348 50.9551 56.5059C50.9462 56.477 50.9508 56.447 50.9682 56.4197C50.9855 56.3925 51.015 56.3692 51.0528 56.3528C51.0905 56.3364 51.1349 56.3276 51.1804 56.3276C51.2413 56.3276 51.2997 56.3434 51.3428 56.3713C51.3858 56.3993 51.41 56.4372 51.41 56.4768Z" fill="#AA6550"/>
<path d="M52.6803 56.8542C52.6803 56.8837 52.6668 56.9126 52.6416 56.9371C52.6164 56.9616 52.5805 56.9808 52.5385 56.992C52.4966 57.0033 52.4504 57.0063 52.4058 57.0005C52.3613 56.9948 52.3203 56.9806 52.2882 56.9597C52.2561 56.9389 52.2342 56.9123 52.2254 56.8833C52.2165 56.8544 52.221 56.8244 52.2384 56.7972C52.2558 56.7699 52.2853 56.7466 52.323 56.7302C52.3608 56.7138 52.4052 56.7051 52.4506 56.7051C52.5115 56.7051 52.57 56.7208 52.613 56.7488C52.6561 56.7767 52.6803 56.8147 52.6803 56.8542Z" fill="#AA6550"/>
<path d="M53.0665 56.2329C53.0665 56.2725 53.0423 56.3104 52.9993 56.3384C52.9562 56.3663 52.8978 56.3821 52.8369 56.3821C52.7759 56.3821 52.7175 56.3663 52.6745 56.3384C52.6314 56.3104 52.6072 56.2725 52.6072 56.2329C52.6072 56.1933 52.6314 56.1554 52.6745 56.1274C52.7175 56.0995 52.7759 56.0837 52.8369 56.0837C52.8978 56.0837 52.9562 56.0995 52.9993 56.1274C53.0423 56.1554 53.0665 56.1933 53.0665 56.2329Z" fill="#AA6550"/>
<path d="M43.8655 57.8555C43.8655 57.875 43.8595 57.8944 43.848 57.9125C43.8365 57.9306 43.8195 57.9471 43.7982 57.9609C43.7769 57.9748 43.7516 57.9858 43.7237 57.9933C43.6958 58.0008 43.666 58.0046 43.6358 58.0046C43.6056 58.0046 43.5758 58.0008 43.5479 57.9933C43.52 57.9858 43.4947 57.9748 43.4734 57.9609C43.4521 57.9471 43.4352 57.9306 43.4236 57.9125C43.4121 57.8944 43.4061 57.875 43.4061 57.8555C43.4061 57.8159 43.4303 57.778 43.4734 57.75C43.5165 57.722 43.5749 57.7063 43.6358 57.7063C43.6967 57.7063 43.7551 57.722 43.7982 57.75C43.8413 57.778 43.8655 57.8159 43.8655 57.8555Z" fill="#AA6550"/>
<path d="M43.0059 57.2566C43.0059 57.2961 42.9817 57.3341 42.9386 57.3621C42.8955 57.39 42.8371 57.4057 42.7762 57.4057C42.7153 57.4057 42.6569 57.39 42.6138 57.3621C42.5707 57.3341 42.5465 57.2961 42.5465 57.2566C42.5465 57.217 42.5707 57.1791 42.6138 57.1511C42.6569 57.1231 42.7153 57.1074 42.7762 57.1074C42.8371 57.1074 42.8955 57.1231 42.9386 57.1511C42.9817 57.1791 43.0059 57.217 43.0059 57.2566Z" fill="#AA6550"/>
<path d="M45.9708 47.864C45.6503 49.4875 44.6313 51.0194 43.0309 52.2838C41.4305 53.5483 39.3134 54.494 36.9228 55.0124C38.4679 56.4588 37.4935 59.2092 37.5353 61.5076C37.5701 63.6433 37.5701 64.2535 35.4473 65.3496C33.6864 65.6254 32.6633 62.493 31.3653 61.6184C30.0672 60.7437 28.804 59.6635 28.9014 58.4544C28.9467 57.8848 29.2877 57.3379 29.3364 56.7684C29.3886 56.1379 29.0789 55.5209 28.9049 54.8971C28.1428 52.1422 30.3421 49.1793 34.0379 47.7375C37.7337 46.2956 42.6683 46.395 46.3327 47.8685" fill="#263238"/>
<path d="M29.4618 56.4474C29.4047 56.4119 29.3524 56.3734 29.3052 56.3322C29.1697 56.2132 29.0716 56.078 29.0163 55.9344C28.8448 55.3969 28.9679 54.8373 29.3643 54.3524C29.6112 54.0147 29.9495 53.7085 30.3631 53.4484C30.8205 53.1386 31.3254 52.86 31.8699 52.6167C32.473 52.3481 33.1298 52.1345 33.8222 51.9817C34.5391 51.8235 35.2977 51.6992 36.0738 51.5726C36.8498 51.4461 37.6015 51.3218 38.3114 51.1613C38.9928 51.009 39.6548 50.8223 40.2915 50.6031C41.3711 50.2337 42.3753 49.7782 43.2808 49.2471C43.8888 48.8853 44.4509 48.4923 44.9617 48.0719C45.1461 47.9227 45.2784 47.8029 45.3688 47.7216C45.4125 47.6792 45.4614 47.6391 45.515 47.6018C45.4799 47.6476 45.4392 47.6914 45.3932 47.7329C45.3097 47.8165 45.1844 47.9408 45.0069 48.0922C44.5125 48.525 43.958 48.9275 43.3504 49.2945C42.4467 49.8399 41.4398 50.3085 40.3542 50.689C39.7121 50.9116 39.0443 51.1013 38.3566 51.2562C37.6432 51.4212 36.8811 51.5455 36.1086 51.6721C35.336 51.7986 34.5774 51.9207 33.8674 52.0766C33.1853 52.2258 32.5378 52.4349 31.943 52.6981C31.4035 52.9351 30.9032 53.2078 30.4501 53.5117C30.0405 53.7652 29.7045 54.0645 29.4583 54.3954C29.0571 54.8642 28.9147 55.4081 29.0546 55.9367C29.1356 56.1231 29.2741 56.2969 29.4618 56.4474Z" fill="#455A64"/>
<path d="M45.5289 47.5906C45.4908 47.6277 45.4478 47.6625 45.4001 47.6945C45.3096 47.7601 45.1774 47.8527 44.9999 47.9725C44.5002 48.3091 43.9678 48.6247 43.4061 48.9172C42.5762 49.3587 41.6526 49.7203 40.6638 49.9907C40.0706 50.1329 39.4592 50.2411 38.8368 50.3139C38.193 50.3952 37.5214 50.463 36.8358 50.5399C35.5453 50.6396 34.2704 50.8113 33.0252 51.0529C32.0215 51.2671 31.0888 51.6021 30.276 52.0405C29.7277 52.339 29.2749 52.7045 28.9432 53.1163C28.8569 53.2287 28.7803 53.3442 28.7135 53.4621C28.6928 53.5047 28.6672 53.5462 28.637 53.5864C28.6442 53.5422 28.6606 53.4989 28.6857 53.4575C28.7432 53.3349 28.813 53.2149 28.8945 53.0982C29.2107 52.6741 29.6586 52.2971 30.2099 51.9908C31.0272 51.5358 31.9727 51.1881 32.9939 50.967C34.2434 50.7171 35.5243 50.5394 36.8219 50.4359C37.5179 50.3704 38.1756 50.3048 38.816 50.2235C39.4306 50.1531 40.0348 50.0488 40.6221 49.9116C41.6019 49.6467 42.5202 49.2946 43.3504 48.8652C43.9143 48.5781 44.4545 48.2718 44.9686 47.9477L45.3827 47.681C45.4275 47.6483 45.4764 47.618 45.5289 47.5906Z" fill="#455A64"/>
<path d="M52.548 44.0469C52.548 44.0695 52.0086 44.0808 51.156 44.2254C50.928 44.2635 50.7038 44.3103 50.4843 44.3656C50.2442 44.4176 49.9971 44.4944 49.7396 44.569C49.1843 44.7469 48.6584 44.9612 48.1701 45.2086C47.6906 45.462 47.2511 45.7459 46.8582 46.0561C46.6882 46.1923 46.5291 46.3341 46.3814 46.4809C46.2553 46.6089 46.1391 46.7409 46.0334 46.8764C45.6297 47.3714 45.4905 47.7126 45.4592 47.7059C45.4778 47.6241 45.5093 47.5438 45.5532 47.4663C45.5947 47.374 45.6447 47.2835 45.7028 47.1951C45.7724 47.0911 45.8385 46.9691 45.9429 46.8448C46.0475 46.7059 46.1637 46.5709 46.2909 46.4402C46.437 46.2889 46.595 46.1426 46.7642 46.0018C47.1559 45.6825 47.6005 45.3922 48.0901 45.1362C48.5865 44.8847 49.1232 44.6688 49.6909 44.4921C49.939 44.4166 50.1934 44.3501 50.453 44.2932C50.6803 44.2397 50.9128 44.1959 51.149 44.1622C51.3391 44.1299 51.532 44.105 51.7267 44.0876C51.8728 44.0703 52.0204 44.059 52.1687 44.0537C52.2947 44.0454 52.4215 44.0432 52.548 44.0469Z" fill="#455A64"/>
<path d="M56.9954 59.5391L57.0372 59.503L57.1694 59.4036C57.2843 59.3154 57.4583 59.1775 57.6566 59.0103C57.9037 58.8008 58.0911 58.5643 58.21 58.312C58.2777 58.1548 58.2978 57.9905 58.2691 57.8283C58.2268 57.6475 58.1299 57.4739 57.9838 57.3176C57.6075 56.9696 57.1947 56.6388 56.7484 56.3277C55.7436 55.509 55.0991 54.5289 54.8831 53.4914C54.7944 52.9102 54.7723 52.3255 54.817 51.7421C54.8592 51.1635 54.7772 50.5839 54.5734 50.02C54.3457 49.5034 53.9358 49.0283 53.3762 48.6324C52.8728 48.2719 52.2603 47.9826 51.5771 47.7826C50.9791 47.6119 50.3368 47.5161 49.684 47.5001C48.7336 47.477 47.7898 47.6116 46.9417 47.8911C46.7136 47.9692 46.4928 48.056 46.2805 48.151L46.117 48.2278C46.0787 48.2437 46.0578 48.2527 46.0543 48.2504C46.315 48.0966 46.6051 47.9652 46.9174 47.8595C47.7711 47.5602 48.7318 47.4136 49.7014 47.4346C50.3689 47.4459 51.0269 47.5402 51.6397 47.7126C52.3413 47.9129 52.9707 48.2062 53.4876 48.5736C54.0651 48.979 54.4882 49.4666 54.723 49.9974C54.9353 50.5681 55.0197 51.1558 54.9736 51.7421C54.9293 52.3217 54.9502 52.9025 55.0362 53.4801C55.1447 54.0138 55.3685 54.535 55.7009 55.0282C56.0033 55.4755 56.3915 55.8962 56.8562 56.2802C57.3033 56.596 57.715 56.932 58.0882 57.2859C58.2368 57.4505 58.3338 57.6325 58.3735 57.8215C58.4016 57.991 58.3767 58.1624 58.3004 58.3255C58.1737 58.583 57.9742 58.8228 57.7123 59.0329C57.5539 59.1662 57.3843 59.2937 57.2042 59.4148L57.0616 59.5098C57.0423 59.522 57.0199 59.5319 56.9954 59.5391Z" fill="#455A64"/>
<path d="M29.7888 56.6758L29.7227 56.6577L29.5313 56.5922C29.2869 56.5021 29.0541 56.3993 28.8353 56.2848C28.0341 55.8604 27.4214 55.3049 27.0605 54.6757C26.7977 54.2076 26.6835 53.7098 26.7248 53.2122C26.7661 52.7147 26.9619 52.2277 27.3006 51.7806C27.6905 51.2452 28.2759 50.7797 29.0058 50.4246C29.7855 50.0495 30.6641 49.7699 31.5984 49.5997C32.5305 49.4293 33.4864 49.3195 34.452 49.272C35.3812 49.2155 36.279 49.1884 37.1281 49.15C37.9339 49.1186 38.7366 49.0598 39.5328 48.9737C40.224 48.8983 40.9023 48.7794 41.5582 48.6189C42.5155 48.3919 43.3874 48.0352 44.116 47.5725C44.3086 47.4433 44.4876 47.3059 44.6519 47.1612L44.7772 47.0482C44.7907 47.034 44.8071 47.0211 44.8259 47.0098C44.6441 47.2239 44.4194 47.4215 44.1577 47.5974C43.435 48.0746 42.5611 48.444 41.5965 48.6799C40.9361 48.847 40.2518 48.9711 39.5537 49.0505C38.7544 49.1406 37.9482 49.2025 37.1386 49.2359C35.4403 49.324 33.5403 49.333 31.6541 49.6879C30.7366 49.857 29.8728 50.131 29.1033 50.4969C28.3917 50.8409 27.8187 51.2913 27.4329 51.81C27.0999 52.2471 26.9052 52.7231 26.8604 53.2099C26.8155 53.6966 26.9215 54.1843 27.1719 54.644C27.5155 55.268 28.106 55.8222 28.884 56.2509C29.0921 56.3685 29.3144 56.475 29.5487 56.5696L29.7331 56.6441L29.7888 56.6758Z" fill="#263238"/>
<path d="M28.623 71.264C28.6723 71.1663 28.7352 71.0717 28.8109 70.9815L29.3782 70.1882C29.8549 69.4967 30.5997 68.4955 31.3374 67.2389C31.6782 66.5431 31.6351 65.7919 31.2156 65.1145C30.9902 64.7367 30.6857 64.3808 30.3108 64.0568C30.118 63.8873 29.9063 63.7272 29.6775 63.5777C29.4255 63.4186 29.1928 63.2471 28.9815 63.0647C28.0913 62.2877 27.5776 61.3562 27.5059 60.3889C27.4337 59.346 27.9004 58.3175 28.8318 57.4667C29.7556 56.6182 31.0742 55.9845 32.5937 55.6587C34.0379 55.3287 35.4856 55.1841 36.7697 54.8519C39.0484 54.2804 41.0577 53.3323 42.5987 52.1014C43.6433 51.276 44.4668 50.3425 45.0347 49.3397C45.421 48.6233 45.5323 48.2097 45.5706 48.2097C45.5631 48.3121 45.5386 48.4136 45.4975 48.5126C45.4067 48.8006 45.2905 49.0851 45.1495 49.3646C44.4839 50.6406 43.4009 51.8079 41.9748 52.7863C40.5487 53.7647 38.8134 54.5311 36.888 55.0327C35.583 55.3762 34.1284 55.5276 32.712 55.8508C31.2571 56.1663 29.9969 56.7772 29.1172 57.5932C28.226 58.4031 27.7765 59.383 27.84 60.3776C27.9034 61.3038 28.3878 62.1972 29.232 62.9449C29.4312 63.1193 29.6499 63.284 29.8863 63.4376C30.5809 63.8987 31.1211 64.4481 31.4731 65.0512C31.905 65.7666 31.9358 66.5578 31.5601 67.2864C30.7806 68.5633 30.0115 69.5464 29.493 70.2244C29.2285 70.5656 29.0162 70.8278 28.8666 71.0018C28.8005 71.0948 28.7189 71.1827 28.623 71.264Z" fill="#455A64"/>
<path d="M52.3149 55.0056C52.3275 55.1412 52.2582 55.2747 52.1218 55.3776C51.9853 55.4806 51.7924 55.545 51.5841 55.5571C51.4813 55.5659 51.3768 55.561 51.277 55.5428C51.1772 55.5246 51.0841 55.4934 51.0034 55.4512C50.9227 55.4089 50.8561 55.3564 50.8076 55.2969C50.759 55.2374 50.7296 55.1722 50.721 55.1051C50.7075 54.9697 50.776 54.8362 50.9119 54.7332C51.0478 54.6302 51.2403 54.5657 51.4484 54.5536C51.5514 54.5445 51.6563 54.5491 51.7565 54.5672C51.8567 54.5852 51.9502 54.6163 52.0313 54.6586C52.1124 54.7009 52.1793 54.7535 52.2281 54.8132C52.2769 54.8728 52.3064 54.9383 52.3149 55.0056Z" fill="#263238"/>
<path d="M52.2 54.4C52.1061 54.4701 51.4727 54.2011 50.6131 54.2305C49.7536 54.2599 49.1411 54.565 49.0402 54.4994C48.9915 54.4701 49.0854 54.3435 49.3499 54.2034C49.7098 54.0236 50.1457 53.9195 50.5992 53.9051C51.0487 53.8915 51.4933 53.9706 51.8694 54.1311C52.1513 54.2486 52.2522 54.3684 52.2 54.4Z" fill="#263238"/>
<path d="M43.7366 55.3921C43.7493 55.5274 43.6805 55.6605 43.5448 55.7634C43.409 55.8663 43.217 55.9309 43.0093 55.9436C42.9077 55.9524 42.8043 55.9479 42.7054 55.9304C42.6064 55.913 42.5139 55.8828 42.4331 55.8417C42.3524 55.8007 42.2851 55.7495 42.2352 55.6913C42.1854 55.6331 42.154 55.5691 42.1428 55.5029C42.1292 55.3669 42.1981 55.2329 42.3346 55.1294C42.4712 55.0259 42.6646 54.9613 42.8736 54.9492C42.9752 54.9407 43.0785 54.9454 43.1772 54.9632C43.276 54.981 43.3683 55.0114 43.4487 55.0527C43.5291 55.0939 43.596 55.1452 43.6454 55.2035C43.6949 55.2618 43.7259 55.3259 43.7366 55.3921Z" fill="#263238"/>
<path d="M43.7367 54.7954C43.6428 54.8678 43.0129 54.5966 42.1498 54.6282C41.2868 54.6598 40.6778 54.9604 40.5804 54.8949C40.5316 54.8678 40.6221 54.7412 40.8866 54.6011C41.2475 54.421 41.6847 54.3169 42.1394 54.3028C42.5889 54.2892 43.0335 54.3683 43.4096 54.5288C43.6845 54.644 43.7854 54.7638 43.7367 54.7954Z" fill="#263238"/>
<path d="M47.2062 58.8409C47.2062 58.8093 47.7317 58.7324 48.5982 58.6285C48.8175 58.6081 49.0228 58.572 49.0506 58.4725C49.0588 58.3243 48.9956 58.1782 48.8697 58.0544C48.6377 57.7154 48.3906 57.3599 48.1284 56.9877C47.0844 55.469 46.3397 54.2147 46.4337 54.1898C46.5276 54.165 47.4429 55.3718 48.4729 56.9018C48.72 57.277 48.9601 57.6341 49.1863 57.9753C49.3389 58.1434 49.3955 58.341 49.3464 58.5336C49.319 58.586 49.2733 58.6337 49.213 58.6729C49.1526 58.7121 49.0792 58.7417 48.9984 58.7596C48.8777 58.7848 48.7526 58.8 48.6261 58.8047C47.7561 58.8522 47.2132 58.8748 47.2062 58.8409Z" fill="#263238"/>
<path d="M46.9521 60.2036C46.7771 60.0752 46.5545 59.9779 46.3055 59.921C46.0564 59.864 45.7891 59.8493 45.5288 59.8781C45.3393 59.8949 45.1571 59.9369 44.9936 60.0015C44.8302 60.066 44.6889 60.1517 44.5788 60.2533C44.4695 60.3521 44.4106 60.4707 44.4106 60.5923C44.4106 60.714 44.4695 60.8325 44.5788 60.9313C44.7254 61.0271 44.9127 61.0922 45.1167 61.1184C45.3207 61.1445 45.532 61.1305 45.7237 61.0782C46.1234 60.9701 46.4864 60.8119 46.7921 60.6126C46.8841 60.5641 46.9619 60.5051 47.0217 60.4386C47.0517 60.4069 47.0661 60.3701 47.063 60.3329C47.0599 60.2958 47.0394 60.2601 47.0043 60.2307" fill="#AA6550"/>
<path d="M44.7006 59.3178C44.8398 59.3065 44.892 59.9144 45.7446 60.319C46.5972 60.7235 47.5751 60.6218 47.589 60.7054C47.589 60.7438 47.3767 60.832 46.9556 60.8546C46.4077 60.8778 45.8646 60.7754 45.4209 60.5653C44.9947 60.3627 44.7065 60.0604 44.6171 59.7223C44.544 59.4692 44.6379 59.3155 44.7006 59.3178Z" fill="#263238"/>
<path d="M60.6878 82.3856L82.5352 89.048C83.3652 89.2511 84.2482 89.347 85.1348 89.3305C85.267 89.3305 85.3993 89.3305 85.528 89.3147C89.0637 89.1136 91.6702 87.066 91.538 84.7631L92.7595 67.3611H83.5966L79.793 79.6216L58.4919 70.2629C57.4537 69.8061 56.2824 69.4923 55.0502 69.3408L50.9403 68.8369" fill="#FAD757"/>
<path d="M50.9403 68.8301C50.9403 68.8301 56.0037 81.7505 55.1859 86.9101C54.3681 92.0697 53.5921 104.595 53.5921 104.595H59.4385C59.4385 104.595 61.6761 104.701 61.1402 102.305C60.4442 99.1209 60.6321 95.3218 60.6321 95.3218C60.6321 95.3218 60.6321 91.6335 60.9801 88.2073C61.1193 86.7858 60.9105 83.2353 60.9105 83.2353L59.8387 79.0498L60.8827 72.7218L50.9403 68.8301Z" fill="#FAD757"/>
<path d="M54.8379 96.8586C54.8437 96.8347 54.853 96.8112 54.8658 96.7885C54.8901 96.7388 54.9249 96.671 54.9632 96.5874C55.0572 96.4043 55.1894 96.1354 55.3599 95.8145C55.7079 95.1365 56.2021 94.1737 56.6475 92.9443C56.8906 92.2743 57.0672 91.5949 57.1765 90.9103C57.2906 90.1246 57.3278 89.335 57.2878 88.5463C57.2565 87.7124 57.1626 86.8378 57.0408 85.9338C56.919 85.0298 56.7728 84.0919 56.5988 83.1359C55.9837 79.868 55.0539 76.6283 53.8148 73.436C53.3485 72.211 52.91 71.2279 52.6177 70.5477C52.468 70.2132 52.3532 69.951 52.2697 69.7657C52.2314 69.6821 52.2036 69.6143 52.1827 69.5623C52.1689 69.5391 52.1607 69.5148 52.1583 69.49C52.1761 69.5115 52.1901 69.5342 52.2001 69.5578C52.2244 69.6098 52.2592 69.6753 52.3045 69.7589L52.6873 70.5341C53.0005 71.2121 53.4564 72.1907 53.9401 73.4156C55.2132 76.6063 56.1595 79.8482 56.7728 83.1201C56.9468 84.0783 57.0999 85.0162 57.2113 85.9225C57.3226 86.8287 57.4201 87.7056 57.4479 88.5441C57.4841 89.3368 57.4411 90.1302 57.3192 90.9193C57.2022 91.6045 57.0162 92.2839 56.7624 92.9533C56.2995 94.1828 55.774 95.15 55.4191 95.819C55.2346 96.1444 55.092 96.4021 54.991 96.5829L54.8762 96.7817C54.8553 96.8383 54.8414 96.8608 54.8379 96.8586Z" fill="#263238"/>
<path d="M58.558 75.9128C58.5939 75.9491 58.6209 75.9887 58.638 76.0304C58.6867 76.123 58.7529 76.2383 58.8294 76.3784C58.9965 76.6812 59.2122 77.1219 59.4558 77.6734C60.0873 79.1103 60.5526 80.5758 60.8478 82.0578C61.1346 83.541 61.2509 85.0359 61.1958 86.5303C61.1749 87.1021 61.1367 87.5654 61.0914 87.8863L61.0392 88.2547C61.0376 88.2976 61.0271 88.3402 61.0079 88.3813C61.0004 88.3385 61.0004 88.2952 61.0079 88.2524C61.0079 88.1553 61.0079 88.0264 61.0288 87.8841C61.0497 87.5654 61.0671 87.1021 61.074 86.5281C61.0901 85.039 60.9541 83.5509 60.6669 82.0736C60.3745 80.5968 59.9304 79.1343 59.3375 77.696C59.1113 77.1423 58.9164 76.6971 58.7703 76.392C58.7041 76.2496 58.6519 76.1321 58.6102 76.0394C58.5845 75.9988 58.5669 75.9563 58.558 75.9128Z" fill="#263238"/>
<path d="M81.0388 83.2669C80.839 83.127 80.6724 82.9686 80.5446 82.7968C80.2083 82.3926 79.9612 81.9597 79.8103 81.5108C79.6576 81.0615 79.606 80.6002 79.6572 80.1413C79.6613 79.9507 79.7106 79.7617 79.8034 79.5808C79.6229 80.8627 80.0542 82.1496 81.0388 83.2669Z" fill="#263238"/>
<g opacity="0.2">
<path d="M56.5604 97.1886C57.0198 96.9626 57.3017 96.3366 57.4165 95.9682C58.5266 92.4358 58.7076 88.4243 57.0024 84.9937C58.0046 89.6764 57.1416 93.2088 54.8552 96.8248" fill="black"/>
</g>
<g opacity="0.2">
<path d="M79.5076 79.5469C78.3661 79.6916 77.6632 80.521 77.7502 81.2758C77.8372 82.0307 78.5297 82.6951 79.3162 83.2511C79.5389 83.407 79.8973 83.5697 80.1618 83.4432C80.238 83.394 80.2946 83.3336 80.3267 83.267C80.3589 83.2005 80.3656 83.1298 80.3462 83.0612C80.2975 82.4623 79.9495 81.8928 79.699 81.3143C79.4484 80.7357 79.2918 80.1074 79.6154 79.5447" fill="black"/>
</g>
<path d="M35.5308 67.0605L46.4232 75.592L49.2385 67.9374L50.9402 68.8301L52.6454 73.6326L46.0787 77.4181L41.499 78.0012L37.1211 76.9752L33.9752 68.2131L35.5308 67.0605Z" fill="#FAFAFA"/>
<path d="M55.0745 88.3632C55.05 88.3161 55.0314 88.2677 55.0188 88.2186C54.9875 88.1101 54.9457 87.97 54.8935 87.796C54.8413 87.6219 54.7752 87.3869 54.6812 87.1293C54.5873 86.8716 54.5003 86.5756 54.3646 86.2524L54.1662 85.7439L53.9261 85.1992C53.766 84.8195 53.5537 84.424 53.3484 84.0037C52.903 83.172 52.367 82.2657 51.7302 81.3346C51.0934 80.4035 50.3939 79.547 49.7327 78.7763C49.3847 78.3966 49.0715 78.0305 48.7409 77.7028L48.2746 77.2214C48.118 77.0723 47.9648 76.9276 47.8222 76.7875C47.5403 76.5095 47.2619 76.2677 47.0218 76.053C46.7816 75.8383 46.5763 75.653 46.3954 75.5083L45.9952 75.1648C45.9458 75.1259 45.9016 75.0843 45.8629 75.0405C45.921 75.0745 45.9745 75.1115 46.023 75.1513L46.451 75.479C46.639 75.6213 46.8582 75.7999 47.1053 76.0123C47.3524 76.2248 47.6377 76.4643 47.9266 76.74L48.3894 77.1717L48.8662 77.6508C49.2142 77.9763 49.5239 78.3424 49.8754 78.7221C50.5505 79.4927 51.243 80.356 51.8938 81.2872C52.5445 82.2183 53.0665 83.1313 53.505 83.9698C53.7068 84.3924 53.9156 84.7902 54.0688 85.1721C54.1488 85.3619 54.2288 85.545 54.3019 85.7213L54.4898 86.232C54.6151 86.5575 54.7021 86.8558 54.7822 87.1157C54.8622 87.3756 54.9248 87.6016 54.9631 87.7937C55.0014 87.9858 55.0327 88.1124 55.0571 88.2208C55.0706 88.2678 55.0764 88.3155 55.0745 88.3632Z" fill="#263238"/>
<path d="M51.0586 76.8508C50.5546 77.1939 50.0075 77.5091 49.423 77.7933C48.8782 78.1057 48.2964 78.3898 47.683 78.643C48.1877 78.2996 48.736 77.9843 49.3221 77.7006C49.8643 77.3871 50.445 77.1029 51.0586 76.8508Z" fill="#263238"/>
<path d="M51.2848 77.9604C51.3092 77.9921 50.6201 78.2316 49.8928 78.6384C49.1655 79.0452 48.6887 79.4407 48.647 79.4204C48.9202 79.079 49.3064 78.781 49.778 78.5481C50.2086 78.2834 50.7228 78.0829 51.2848 77.9604Z" fill="#263238"/>
<path d="M20.6922 80.6884C20.6922 80.6884 29.9838 93.1184 29.3713 96.8157L27.0884 104.595H35.691L39.2336 104.581C39.331 101.272 38.736 92.2754 38.4228 86.0491C38.1096 79.8228 34.3338 67.8606 34.3338 67.8606L31.1635 68.7646C26.6395 68.9092 20.5182 70.6743 19.3071 75.0361L20.6922 80.6884Z" fill="#FAD757"/>
<path d="M19.4532 74.5569L15.3503 88.4536L14.877 91.6967C14.6377 93.3202 15.3727 94.941 16.9288 96.221C18.4849 97.5011 20.7419 98.3416 23.229 98.5671L49.4369 101.573L54.7787 96.1376L28.2611 90.413L31.7411 80.2702L19.4532 74.5569Z" fill="#FAD757"/>
<path d="M23.7581 98.6258H23.8799L24.2279 98.6642L25.6407 98.8179L30.9721 99.4168L49.4753 101.516L49.3883 101.541L54.7266 96.1036L54.7753 96.1895L50.6654 95.3036L28.2403 90.4581L28.1881 90.4446V90.4061C28.9537 87.145 29.5801 84.4623 30.0255 82.5888C30.2483 81.6599 30.4257 80.93 30.5441 80.4282C30.6067 80.1842 30.6554 79.9943 30.6867 79.8632C30.7181 79.7322 30.7424 79.6711 30.7424 79.6711C30.7424 79.6711 30.7424 79.7367 30.7076 79.8655C30.6728 79.9943 30.6415 80.1887 30.5893 80.4328C30.4779 80.9345 30.3144 81.6645 30.1091 82.5978C29.681 84.4714 29.0651 87.1585 28.3308 90.4197L28.2821 90.3677L50.7141 95.1951L54.8205 96.081L54.9319 96.1036L54.8693 96.1669L49.5205 101.602L49.4927 101.634H49.437L30.9477 99.4846L25.6477 98.8608L24.2557 98.6913L23.9077 98.6461C23.8571 98.6418 23.8071 98.635 23.7581 98.6258Z" fill="#263238"/>
<path d="M28.6439 90.456C28.6439 90.4763 28.362 90.456 27.9201 90.4989C26.7617 90.593 25.6986 90.9636 24.9377 91.5386C24.7963 91.6667 24.6441 91.7897 24.4818 91.9069C24.5535 91.7531 24.6718 91.6102 24.8298 91.4866C25.1943 91.1757 25.6571 90.919 26.187 90.734C26.7167 90.5488 27.3022 90.4408 27.9027 90.4176C28.1512 90.3971 28.4035 90.4102 28.6439 90.456Z" fill="#263238"/>
<path d="M30.6762 75.271C30.6449 75.271 30.5753 74.9343 30.2551 74.428C29.8482 73.7671 29.1957 73.1819 28.356 72.7245C27.5162 72.2671 26.5152 71.9517 25.4423 71.8064C24.621 71.6912 24.092 71.707 24.092 71.6844C24.2129 71.6662 24.3371 71.6593 24.4609 71.6641C24.7983 71.6649 25.1349 71.6853 25.4666 71.7251C26.5736 71.8522 27.6097 72.1659 28.4714 72.6347C29.3331 73.1035 29.9902 73.711 30.3769 74.3964C30.4946 74.6024 30.5831 74.815 30.6414 75.0315C30.6724 75.1096 30.6842 75.1905 30.6762 75.271Z" fill="#263238"/>
<path d="M37.8241 92.4424C37.8062 92.4249 37.7922 92.4059 37.7824 92.3859C37.751 92.343 37.7128 92.2887 37.6675 92.2209C37.5701 92.065 37.4309 91.848 37.2569 91.5746C36.9089 91.0118 36.3973 90.1982 35.8892 89.1609C35.27 87.9466 34.9116 86.6827 34.8244 85.4048C34.7408 83.9606 35.141 82.3945 35.3185 80.7492C35.4664 79.1995 35.3356 77.6439 34.9288 76.1139C34.6002 74.8637 34.174 73.6251 33.6516 72.403C33.2131 71.3566 32.8234 70.5182 32.5554 69.9351L32.2527 69.2571L32.1796 69.0808C32.1675 69.0613 32.1605 69.0407 32.1587 69.0198C32.1757 69.0381 32.1886 69.0579 32.197 69.0785L32.2874 69.2503C32.371 69.4108 32.4823 69.6322 32.6354 69.9125C32.9208 70.491 33.3314 71.3272 33.7873 72.3714C34.328 73.5938 34.7682 74.834 35.1062 76.0868C35.5193 77.6316 35.6501 79.2026 35.496 80.7673C35.315 82.4193 34.9114 83.981 34.9879 85.4116C35.0695 86.6773 35.4137 87.9301 36.0111 89.136C36.4983 90.1711 36.9889 90.9915 37.3161 91.5588C37.4796 91.8345 37.6084 92.0537 37.6989 92.2119C37.7371 92.2797 37.7684 92.3362 37.7963 92.3814C37.8094 92.4009 37.8187 92.4214 37.8241 92.4424Z" fill="#263238"/>
<g opacity="0.2">
<path d="M35.0541 91.9047C34.4242 90.3814 33.7943 88.8469 33.6412 87.2739C33.4881 85.701 33.8395 84.0693 35.068 82.7087C34.285 86.0581 35.6561 89.5678 38.1443 92.5443" fill="black"/>
</g>
<g opacity="0.2">
<path d="M28.1254 101.062L39.244 100.852L39.2753 100.407L28.6961 99.2134L28.1254 101.062Z" fill="black"/>
</g>
<g opacity="0.2">
<path d="M30.3421 81.4229L29.5835 90.6979L28.2611 90.4131L30.3421 81.4229Z" fill="black"/>
</g>
<path d="M54.3402 96.7366L60.5068 98.0519L62.6818 96.8541L70.8354 98.8135L69.9376 102.787L68.8449 102.793L67.6547 100.719L62.0693 102.118L59.7342 102.54L50.2234 100.965L54.3402 96.7366Z" fill="#B78876"/>
<path d="M39.3032 104.594V104.142C39.3078 103.905 39.4565 103.678 39.717 103.511C39.9776 103.343 40.329 103.25 40.6952 103.25H59.2158L67.2198 88.0897C67.3714 87.8016 67.6579 87.5516 68.0392 87.3745C68.4204 87.1974 68.8773 87.1022 69.3461 87.1021H104.445C104.482 87.1022 104.519 87.108 104.552 87.1191C104.585 87.1302 104.613 87.1463 104.635 87.166C104.656 87.1857 104.67 87.2084 104.675 87.2322C104.68 87.2561 104.677 87.2804 104.665 87.3032L95.2686 104.585L39.3032 104.594Z" fill="#263238"/>
<path d="M83.4087 97.2269C84.5772 97.2269 85.5245 96.6117 85.5245 95.8528C85.5245 95.094 84.5772 94.4788 83.4087 94.4788C82.2401 94.4788 81.2928 95.094 81.2928 95.8528C81.2928 96.6117 82.2401 97.2269 83.4087 97.2269Z" fill="white"/>
</svg>
