<svg width="105" height="85" viewBox="0 0 105 85" fill="none" xmlns="http://www.w3.org/2000/svg">
<path d="M99.68 25.0256C99.68 25.0256 99.673 25.0508 99.6562 25.0979C99.6394 25.1449 99.6142 25.2188 99.5834 25.3079L99.295 26.1059C99.043 26.7997 98.6734 27.801 98.2128 29.0358C97.2916 31.5054 95.9952 34.9024 94.5532 38.6488C93.1112 42.3952 91.8036 45.7921 90.8712 48.2567L89.7694 51.1748L89.4698 51.9678C89.4348 52.0552 89.4082 52.124 89.39 52.1728C89.3812 52.1963 89.3714 52.2193 89.3606 52.2416C89.3668 52.217 89.3743 52.1929 89.383 52.1694C89.4012 52.119 89.425 52.0501 89.4558 51.9611C89.523 51.7746 89.621 51.5058 89.7442 51.1614C89.9962 50.4676 90.3658 49.468 90.8264 48.2332C91.7476 45.7636 93.044 42.3666 94.486 38.6185C95.928 34.8704 97.2314 31.4768 98.1638 29.014C98.6286 27.7859 99.0038 26.7896 99.2656 26.0975L99.5666 25.3045C99.6002 25.2155 99.6268 25.1483 99.6464 25.0979C99.666 25.0475 99.68 25.0256 99.68 25.0256Z" fill="#E0E0E0"/>
<path d="M94.9578 30.4102C94.983 30.4629 95.0023 30.5194 95.0152 30.5782C95.0488 30.684 95.0922 30.8402 95.1454 31.0334C95.249 31.4215 95.382 31.9591 95.5192 32.5572L95.865 34.0894C95.907 34.2725 95.942 34.4254 95.9714 34.553C95.9884 34.607 95.9992 34.6636 96.0036 34.721C95.9785 34.6683 95.9592 34.6118 95.9462 34.553C95.9126 34.4472 95.8692 34.291 95.8174 34.0961C95.7166 33.708 95.5892 33.167 95.452 32.569L95.0978 31.0402L94.99 30.5782C94.974 30.5238 94.9632 30.4674 94.9578 30.4102Z" fill="#E0E0E0"/>
<path d="M93.7608 40.3911C93.8106 40.3799 93.8613 40.3748 93.912 40.376L94.3208 40.3592C94.6652 40.3441 95.1426 40.3222 95.6676 40.2735C96.1926 40.2248 96.6672 40.1677 97.0116 40.1206L97.4176 40.0652C97.4674 40.0541 97.5183 40.0507 97.5688 40.0551C97.5235 40.0749 97.4766 40.0889 97.4288 40.0971C97.3336 40.119 97.195 40.1475 97.0242 40.1778C96.6826 40.2399 96.2066 40.3105 95.6802 40.3575C95.1538 40.4046 94.675 40.418 94.3278 40.4163C94.1556 40.4163 94.0156 40.4163 93.919 40.4079C93.8659 40.411 93.8126 40.4054 93.7608 40.3911Z" fill="#E0E0E0"/>
<path d="M91.924 36.7554C91.9564 36.7953 91.9846 36.8399 92.008 36.8881C92.0584 36.9755 92.1312 37.1048 92.218 37.2661C92.393 37.587 92.6296 38.0339 92.8872 38.5295C93.1448 39.0251 93.3758 39.477 93.5396 39.8063C93.6222 39.9743 93.6866 40.1053 93.73 40.1994C93.7565 40.2456 93.7777 40.2959 93.793 40.3489C93.7593 40.3099 93.7306 40.2652 93.7076 40.2162C93.6572 40.1271 93.5858 39.9995 93.4976 39.8382C93.324 39.5173 93.0874 39.0704 92.8284 38.5731C92.5694 38.0759 92.3398 37.6256 92.176 37.2963C92.0948 37.1283 92.036 36.9973 91.9856 36.9049C91.9601 36.8582 91.9395 36.808 91.924 36.7554Z" fill="#E0E0E0"/>
<path d="M89.25 41.4023C89.2908 41.4536 89.327 41.5099 89.3578 41.5703L89.628 42.0542C89.852 42.4641 90.16 43.0336 90.496 43.6653C90.832 44.297 91.133 44.8732 91.3472 45.2915L91.5992 45.7955C91.6318 45.8552 91.6599 45.9181 91.6832 45.9837C91.6425 45.9324 91.6064 45.8761 91.5754 45.8157L91.3066 45.3319C91.0812 44.9203 90.7732 44.3507 90.4372 43.7191C90.1012 43.0874 89.8016 42.5111 89.586 42.0928C89.4852 41.8946 89.4012 41.7266 89.3354 41.5888C89.3015 41.5305 89.2729 41.4679 89.25 41.4023Z" fill="#E0E0E0"/>
<path d="M91.651 45.8528C91.713 45.8358 91.7764 45.8268 91.84 45.8259L92.358 45.7822C92.7948 45.7452 93.3996 45.6915 94.0646 45.6142C94.7296 45.5369 95.3246 45.4462 95.7656 45.374L96.2794 45.2916C96.3422 45.2781 96.406 45.2713 96.4698 45.2715C96.4094 45.2963 96.347 45.3138 96.2836 45.3236C96.1632 45.3521 95.9882 45.3891 95.7726 45.4311C95.3386 45.5168 94.738 45.6176 94.0716 45.6982C93.4052 45.7788 92.799 45.8242 92.3608 45.846C92.141 45.8561 91.9646 45.8628 91.8414 45.8628C91.7778 45.866 91.7141 45.8626 91.651 45.8528Z" fill="#E0E0E0"/>
<path d="M17.22 38.6707C16.695 36.4111 15.26 31.0939 14.399 28.5907L13.7592 26.7427C13.5478 26.1362 13.3392 25.5365 13.1026 24.9636C12.648 23.867 12.1432 22.8013 11.5906 21.7716C11.067 20.7804 10.5406 19.8631 10.0506 19.008C9.56061 18.1529 9.07061 17.3717 8.61141 16.6778C7.88727 15.5784 7.09143 14.5498 6.23141 13.6017C5.92761 13.2657 5.68541 13.0137 5.51881 12.8457L5.32001 12.6408C5.27661 12.5988 5.25281 12.5786 5.25281 12.5786C5.25281 12.5786 5.27241 12.6038 5.31301 12.6492L5.49781 12.8474C5.65881 13.0154 5.89821 13.2775 6.19781 13.6185C7.04491 14.5778 7.8311 15.6116 8.54981 16.7114C9.00621 17.4069 9.47941 18.1932 9.97641 19.0466C10.4734 19.9001 10.9942 20.8207 11.5164 21.8102C12.0655 22.8404 12.567 23.906 13.0186 25.0022C13.2524 25.5734 13.461 26.1782 13.6724 26.778C13.8838 27.3777 14.0924 28.0027 14.3122 28.626C15.1676 31.1258 16.6068 36.438 17.136 38.6909" fill="#E0E0E0"/>
<path d="M13.0732 24.9518C13.1022 24.8491 13.1228 24.7433 13.1348 24.6359C13.1684 24.431 13.2104 24.1319 13.258 23.7657C13.3546 23.0298 13.4596 22.0084 13.573 20.8811C13.6864 19.7538 13.8054 18.7374 13.9146 18.005C13.9678 17.6387 14.014 17.343 14.0546 17.1398C14.0765 17.035 14.091 16.9282 14.098 16.8206C14.0638 16.9204 14.0375 17.0239 14.0196 17.1297C13.9734 17.3313 13.9174 17.6337 13.8558 17.9915C13.72 18.7206 13.594 19.7404 13.4806 20.8727C13.3672 22.005 13.2692 23.0013 13.1936 23.7606C13.1558 24.1134 13.1236 24.4074 13.0984 24.6342C13.0826 24.739 13.0742 24.8453 13.0732 24.9518Z" fill="#E0E0E0"/>
<path d="M5.05682 23.0283C5.08356 23.0385 5.11137 23.0442 5.13942 23.0451L5.37742 23.0737C5.58462 23.0989 5.88282 23.1325 6.24962 23.1879C6.98462 23.2921 7.99682 23.4819 9.10562 23.749C10.2144 24.0161 11.2056 24.3169 11.9196 24.5571C12.2766 24.6747 12.5636 24.7789 12.7596 24.8494L12.9892 24.9301C13.0152 24.9422 13.0426 24.9495 13.0704 24.9519C13.0471 24.9335 13.0216 24.9193 12.9948 24.9099C12.9332 24.8813 12.8548 24.8477 12.7708 24.8091C12.5762 24.7251 12.2906 24.6075 11.9308 24.4731C11.221 24.2127 10.227 23.9019 9.11682 23.6331C8.00662 23.3643 7.00002 23.1946 6.25662 23.1089C5.88842 23.0636 5.58742 23.0417 5.38022 23.0317H5.14082C5.11305 23.0264 5.08483 23.0252 5.05682 23.0283Z" fill="#E0E0E0"/>
<path d="M16.4388 35.5947C16.4602 35.5583 16.4785 35.5195 16.4934 35.4788L16.6334 35.1428C16.7538 34.8437 16.9134 34.4069 17.1206 33.8643C17.521 32.7807 18.0348 31.262 18.585 29.5786C19.1352 27.8952 19.6378 26.3664 20.02 25.2744L20.4792 23.9842C20.5296 23.8397 20.5716 23.7238 20.6038 23.6331C20.6197 23.5926 20.6324 23.5504 20.6416 23.5071C20.619 23.5425 20.6006 23.5815 20.587 23.623L20.447 23.959C20.3266 24.258 20.16 24.6948 19.9612 25.2358C19.5608 26.3211 19.0456 27.8398 18.4968 29.5232C17.948 31.2065 17.4426 32.7286 17.0576 33.8206L16.5984 35.1108L16.4752 35.462C16.4586 35.5042 16.4464 35.5488 16.4388 35.5947Z" fill="#E0E0E0"/>
<path d="M5.80859 31.3257C5.84209 31.3467 5.87727 31.3636 5.91359 31.3761L6.22299 31.5021L7.36259 31.9607C8.32439 32.3471 9.64739 32.8998 11.1076 33.5147C12.5678 34.1296 13.8964 34.6706 14.8638 35.0385C15.3468 35.2216 15.7402 35.3661 16.0118 35.4602L16.3268 35.566C16.3631 35.5808 16.4007 35.5909 16.4388 35.5962C16.4048 35.5748 16.3692 35.5574 16.3324 35.5442L16.023 35.4182L14.8834 34.9629C13.9216 34.5765 12.5986 34.0238 11.1384 33.4089C9.67819 32.794 8.35099 32.2514 7.38359 31.8851C6.89919 31.702 6.50719 31.5575 6.23419 31.4634L5.92059 31.3559C5.88417 31.3415 5.84666 31.3313 5.80859 31.3257Z" fill="#E0E0E0"/>
<path d="M71.2265 12.703H88.8763L85.4238 15.6481V18.1076C85.4161 19.3228 85.0064 20.4846 84.285 21.3374C83.5635 22.1902 82.5893 22.6643 81.5767 22.6554H70.5013C69.4886 22.6643 68.5144 22.1902 67.7929 21.3374C67.0715 20.4846 66.6618 19.3228 66.6541 18.1076C66.6584 17.3924 66.7802 16.6853 67.0124 16.0266C67.2446 15.3679 67.5826 14.7705 68.0072 14.2687C68.4319 13.7668 68.9347 13.3702 69.4871 13.1016C70.0394 12.8329 70.6305 12.6975 71.2265 12.703Z" fill="#F5F5F5"/>
<path d="M82.446 15.9907C82.446 16.0142 79.506 16.0344 75.866 16.0344C72.226 16.0344 69.286 16.0142 69.286 15.9907C69.286 15.9672 72.226 15.947 75.866 15.947C79.506 15.947 82.446 15.9655 82.446 15.9907Z" fill="#E0E0E0"/>
<path d="M82.446 17.6269C82.446 17.6505 79.506 17.6706 75.866 17.6706C72.226 17.6706 69.286 17.6505 69.286 17.6269C69.286 17.6034 72.226 17.5833 75.866 17.5833C79.506 17.5833 82.446 17.6017 82.446 17.6269Z" fill="#E0E0E0"/>
<path d="M44.4486 63.1113H23.5634L26.9654 66.0648V71.8608C26.9654 72.0198 26.9915 72.1772 27.0423 72.324C27.093 72.4709 27.1674 72.6043 27.2611 72.7167C27.3549 72.829 27.4662 72.9181 27.5886 72.9788C27.7111 73.0395 27.8423 73.0706 27.9748 73.0704H44.4486C44.5811 73.0706 44.7123 73.0395 44.8348 72.9788C44.9572 72.9181 45.0685 72.829 45.1623 72.7167C45.256 72.6043 45.3304 72.4709 45.3812 72.324C45.4319 72.1772 45.458 72.0198 45.458 71.8608V64.3209C45.4576 64 45.3511 63.6923 45.1619 63.4655C44.9726 63.2387 44.7161 63.1113 44.4486 63.1113Z" fill="#F5F5F5"/>
<path d="M43.5778 67.2073C43.5778 67.2325 40.4278 67.2509 36.5428 67.2509C32.6578 67.2509 29.5078 67.2325 29.5078 67.2073C29.5078 67.1821 32.6564 67.1636 36.5428 67.1636C40.4292 67.1636 43.5778 67.1837 43.5778 67.2073Z" fill="#E0E0E0"/>
<path d="M43.5778 69.4331C43.5778 69.4566 40.4278 69.4768 36.5428 69.4768C32.6578 69.4768 29.5078 69.4566 29.5078 69.4331C29.5078 69.4096 32.6564 69.3894 36.5428 69.3894C40.4292 69.3894 43.5778 69.4096 43.5778 69.4331Z" fill="#E0E0E0"/>
<path d="M87.0912 34.5481H62.6486C59.6493 34.5481 57.218 37.4657 57.218 41.0648V64.9376C57.218 68.5367 59.6493 71.4543 62.6486 71.4543H87.0912C90.0904 71.4543 92.5218 68.5367 92.5218 64.9376V41.0648C92.5218 37.4657 90.0904 34.5481 87.0912 34.5481Z" fill="#FAD757"/>
<g opacity="0.4">
<path d="M87.0912 34.5481H62.6486C59.6493 34.5481 57.218 37.4657 57.218 41.0648V64.9376C57.218 68.5367 59.6493 71.4543 62.6486 71.4543H87.0912C90.0904 71.4543 92.5218 68.5367 92.5218 64.9376V41.0648C92.5218 37.4657 90.0904 34.5481 87.0912 34.5481Z" fill="black"/>
</g>
<path d="M92.512 47.4136H97.7998L92.393 53.9034L92.512 47.4136Z" fill="#FAD757"/>
<g opacity="0.4">
<path d="M92.512 47.4136H97.7998L92.393 53.9034L92.512 47.4136Z" fill="black"/>
</g>
<path d="M56.3724 51.4036L54.1562 48.3796C53.557 47.6606 53.3512 47.3145 53.4716 47.1885C53.6312 47.0205 53.5626 47.0759 54.8072 48.1965C54.8072 48.1965 53.0432 46.5787 53.655 46.5686C53.7628 46.5686 54.0624 46.7769 54.383 47.0289C53.9462 46.5837 53.823 46.283 53.9084 46.1402C54.0484 45.8915 55.1292 46.7903 55.6262 47.2221C55.2202 46.8592 54.446 46.1553 54.3102 45.9335C54.1226 45.6311 54.502 45.6563 54.81 45.7823C55.1558 45.9235 57.0668 47.0944 57.6324 47.3968C57.6777 47.4293 57.7284 47.4496 57.7809 47.4563C57.8334 47.463 57.8865 47.456 57.9366 47.4357C57.9866 47.4154 58.0324 47.3824 58.0707 47.3388C58.1091 47.2953 58.1391 47.2423 58.1588 47.1835C58.3674 46.1318 58.9988 45.448 59.2396 45.359C59.4804 45.2699 59.6666 45.6395 59.4944 45.9083C59.3324 46.2211 59.2071 46.5592 59.122 46.913C59.044 47.1905 59.0056 47.4819 59.0086 47.7748C59.0086 48.1108 59.0282 48.4015 59.0464 48.6451L61.0722 51.9799L57.6842 54.3319L56.3724 51.4036Z" fill="#B78876"/>
<path d="M55.58 48.6669C55.5576 48.7039 55.16 48.3796 54.7008 47.9411C54.2416 47.5027 53.8832 47.1163 53.9098 47.081C53.9364 47.0457 54.3298 47.3716 54.789 47.8067C55.2482 48.2419 55.5996 48.6283 55.58 48.6669Z" fill="#AA6550"/>
<path d="M56.0084 48.136C55.986 48.1746 55.5506 47.8554 55.0354 47.4253C54.5202 46.9952 54.1198 46.6139 54.1422 46.5769C54.1646 46.54 54.6 46.8558 55.1152 47.2859C55.6304 47.716 56.0308 48.0973 56.0084 48.136Z" fill="#AA6550"/>
<path d="M56.322 47.5715C56.2996 47.6101 55.8824 47.3178 55.391 46.918C54.8996 46.5181 54.5188 46.1636 54.5398 46.1233C54.5608 46.083 54.978 46.377 55.4708 46.7769C55.9636 47.1767 56.343 47.5329 56.322 47.5715Z" fill="#AA6550"/>
<path d="M59.2354 49.0969L67.3106 61.3844L65.4612 66.5504C65.4612 66.5504 63.2464 65.9624 62.5744 64.8436C61.9024 63.7247 56.3724 51.4036 56.3724 51.4036L59.2354 49.0969Z" fill="#B78876"/>
<path d="M79.7342 31.9072C80.3152 32.512 80.3137 33.5771 80.2465 34.4961C80.1793 35.4151 80.1275 36.4617 80.6581 37.1303C81.0963 37.6814 81.8902 37.9216 81.991 38.6726C82.0148 38.849 81.9926 39.03 81.9272 39.1907C81.8619 39.3513 81.7567 39.4837 81.6261 39.5697C81.4955 39.6557 81.346 39.6911 81.1979 39.6709C81.0499 39.6508 80.9108 39.5761 80.7995 39.4571C80.9703 40.0502 80.8528 40.7911 80.4244 41.1506C79.996 41.5101 79.2777 41.2883 79.1447 40.6819C79.1665 40.7831 79.1707 40.8887 79.1569 40.9919C79.1432 41.0952 79.1119 41.1939 79.0649 41.282C79.018 41.3701 78.9564 41.4456 78.884 41.5039C78.8117 41.5622 78.7301 41.6019 78.6443 41.6207C78.5586 41.6394 78.4706 41.6368 78.3858 41.6129C78.3009 41.589 78.2211 41.5444 78.1513 41.4818C78.0814 41.4193 78.0231 41.3401 77.9799 41.2493C77.9367 41.1585 77.9095 41.058 77.9001 40.954" fill="#263238"/>
<path d="M71.414 38.1097C71.3358 38.3347 71.1864 38.5132 70.9985 38.606C70.8107 38.6988 70.5998 38.6982 70.4123 38.6045C70.2248 38.5107 70.076 38.3313 69.9987 38.1059C69.9214 37.8805 69.9218 37.6274 70 37.4024C70.133 37.053 70.448 36.801 70.4788 36.4179C70.5152 35.9559 70.1218 35.625 69.7788 35.4234C69.4358 35.2218 69.0214 34.9597 68.9836 34.496C68.9458 34.0323 69.2804 33.7014 69.559 33.4023C69.8376 33.1033 70.119 32.6396 69.9412 32.2415C69.853 32.0365 69.6696 31.9206 69.5506 31.7375C69.2888 31.3376 69.426 30.7009 69.7606 30.3935C70.0952 30.086 70.5572 30.0373 70.9744 30.1263C71.3916 30.2154 71.7836 30.4237 72.1896 30.5699C72.8626 30.8047 73.5689 30.8695 74.2639 30.7602C74.9588 30.6509 75.6273 30.3699 76.2272 29.9348" fill="#263238"/>
<path d="M73.8934 48.944C74.6166 49.1191 75.3683 48.946 75.9862 48.462C76.604 47.978 77.0386 47.2218 77.196 46.3568L79.1826 35.4267C79.3066 34.7956 79.3238 34.141 79.2333 33.5017C79.1429 32.8624 78.9465 32.2514 78.6558 31.7047C78.3651 31.1581 77.9861 30.687 77.541 30.3192C77.096 29.9514 76.594 29.6944 76.0648 29.5635L75.8576 29.5265C74.8455 29.348 73.8145 29.6335 72.97 30.3263C72.1255 31.019 71.5294 32.0681 71.3006 33.2645C70.8582 35.5712 70.3948 38.1265 70.2548 39.3814C69.965 41.9804 72.0748 42.7633 72.0748 42.7633L71.6954 44.9473C71.6201 45.3824 71.6173 45.8311 71.687 46.2676C71.7567 46.704 71.8976 47.1197 72.1016 47.4906C72.3056 47.8615 72.5687 48.1804 72.8757 48.4289C73.1827 48.6775 73.5276 48.8508 73.8906 48.9389L73.8934 48.944Z" fill="#B78876"/>
<path d="M71.6898 34.9849C71.6775 35.0814 71.6969 35.1798 71.7439 35.2594C71.7909 35.339 71.8619 35.3936 71.9418 35.4116C71.9805 35.4222 72.0206 35.4234 72.0597 35.4151C72.0988 35.4069 72.1362 35.3893 72.1696 35.3635C72.2029 35.3377 72.2317 35.3041 72.2541 35.2648C72.2765 35.2254 72.2922 35.1811 72.3002 35.1344C72.3132 35.0381 72.2943 34.9395 72.2474 34.8597C72.2006 34.7799 72.1296 34.7253 72.0496 34.7077C72.0107 34.6971 71.9706 34.6959 71.9314 34.7041C71.8921 34.7124 71.8547 34.7299 71.8212 34.7557C71.7877 34.7815 71.7588 34.8151 71.7363 34.8544C71.7137 34.8938 71.6979 34.9381 71.6898 34.9849Z" fill="#263238"/>
<path d="M71.61 34.6153C71.6422 34.6708 71.9012 34.5028 72.2344 34.5632C72.5676 34.6237 72.7846 34.864 72.8266 34.822C72.8476 34.8035 72.8182 34.7094 72.7244 34.5985C72.5952 34.4537 72.4319 34.3604 72.2568 34.3314C72.0841 34.3001 71.9077 34.3354 71.7528 34.4322C71.6394 34.5095 71.5946 34.5901 71.61 34.6153Z" fill="#263238"/>
<path d="M74.9364 35.6232C74.9237 35.7197 74.943 35.8183 74.99 35.898C75.0371 35.9777 75.1083 36.0322 75.1884 36.0499C75.2272 36.0604 75.2674 36.0616 75.3066 36.0532C75.3458 36.0448 75.3832 36.0271 75.4166 36.0011C75.45 35.9752 75.4787 35.9414 75.5011 35.9019C75.5234 35.8623 75.539 35.8178 75.5468 35.771C75.5594 35.6747 75.5401 35.5763 75.493 35.4968C75.4459 35.4174 75.3747 35.3632 75.2948 35.346C75.256 35.3351 75.2159 35.3338 75.1767 35.3419C75.1375 35.3501 75.1001 35.3676 75.0666 35.3935C75.0332 35.4193 75.0044 35.453 74.9821 35.4924C74.9597 35.5319 74.9441 35.5763 74.9364 35.6232Z" fill="#263238"/>
<path d="M74.8664 35.2638C74.8986 35.3175 75.1576 35.1512 75.4894 35.2117C75.8212 35.2722 76.041 35.5124 76.083 35.4704C76.1026 35.4519 76.0746 35.3578 75.9794 35.247C75.8502 35.1022 75.6869 35.0089 75.5118 34.9798C75.3391 34.9486 75.1627 34.9839 75.0078 35.0806C74.9 35.1529 74.8496 35.2386 74.8664 35.2638Z" fill="#263238"/>
<path d="M73.2998 38.0088C73.2998 37.9853 73.1024 37.9064 72.7748 37.7972C72.6908 37.772 72.6138 37.7367 72.6082 37.6644C72.614 37.5586 72.6462 37.4573 72.7006 37.3738C72.8117 37.142 72.9269 36.8984 73.0464 36.643C73.5294 35.5997 73.8864 34.7379 73.857 34.7144C73.8276 34.6908 73.402 35.5174 72.919 36.5624L72.583 37.2982C72.5151 37.4124 72.4825 37.5514 72.4906 37.6913C72.4992 37.7284 72.5146 37.7628 72.5357 37.7918C72.5567 37.8209 72.583 37.844 72.6124 37.8593C72.6572 37.8824 72.7042 37.8987 72.7524 37.908C72.9307 37.9688 73.1146 38.0026 73.2998 38.0088Z" fill="#263238"/>
<path d="M74.97 33.6863C74.9896 33.8005 75.3284 33.8072 75.7106 33.9315C76.0928 34.0559 76.3924 34.239 76.4568 34.1516C76.4848 34.1096 76.4428 33.9971 76.3294 33.8711C76.1755 33.7124 75.9935 33.5981 75.7972 33.5366C75.601 33.4752 75.3956 33.4683 75.1968 33.5166C75.04 33.5603 74.963 33.6409 74.97 33.6863Z" fill="#263238"/>
<path d="M71.8731 33.483C71.9207 33.5838 72.1531 33.53 72.4331 33.5737C72.7131 33.6174 72.9343 33.7249 72.9931 33.6392C73.0225 33.5972 72.9931 33.4998 72.9063 33.3956C72.7821 33.2689 72.6292 33.1894 72.4671 33.1672C72.3051 33.1451 72.1412 33.1813 71.9963 33.2713C71.8955 33.3469 71.8521 33.4342 71.8731 33.483Z" fill="#263238"/>
<path d="M77.1833 32.1691L77.1932 32.1825C77.4981 32.5688 77.6667 33.0818 77.6635 33.6139V33.666C77.6635 34.422 77.5502 35.178 77.5516 35.9256C77.553 36.6732 77.6733 37.4695 78.0667 38.0575C78.2277 38.3011 78.5414 38.5027 78.7248 38.2843C78.7894 38.1914 78.8306 38.0784 78.8437 37.9584C79.1769 36.1927 79.7762 34.6807 80.0016 32.8125C80.0328 32.5625 80.0139 32.307 79.9465 32.0675C79.879 31.8279 79.765 31.6111 79.6137 31.4349C79.3225 31.0989 78.9599 30.7361 78.5721 30.8789C78.1843 31.0217 77.6173 31.7525 77.2939 32.0549" fill="#263238"/>
<path d="M78.3104 36.4716C78.3496 36.4582 79.8602 36.2045 79.5956 37.9702C79.331 39.7359 77.9156 39.0538 77.9156 39.0017C77.9156 38.9496 78.3104 36.4716 78.3104 36.4716Z" fill="#B78876"/>
<path d="M78.4644 38.4306C78.4644 38.4306 78.4868 38.4575 78.526 38.4894C78.5824 38.5343 78.6512 38.5512 78.7178 38.5365C78.883 38.5012 79.058 38.2341 79.1126 37.9166C79.1407 37.7667 79.1407 37.6112 79.1126 37.4613C79.1068 37.4032 79.0893 37.3477 79.0618 37.2994C79.0343 37.2511 78.9974 37.2116 78.9544 37.1841C78.9263 37.1682 78.8945 37.1648 78.8645 37.1743C78.8346 37.1838 78.8084 37.2057 78.7906 37.2362C78.764 37.2798 78.7682 37.3185 78.7598 37.3185C78.7514 37.3185 78.7332 37.2832 78.7598 37.2126C78.7743 37.1708 78.8005 37.1363 78.834 37.1152C78.8799 37.0871 78.9331 37.0817 78.9824 37.1001C79.041 37.1281 79.0926 37.1737 79.1323 37.2325C79.1721 37.2914 79.1985 37.3615 79.2092 37.4361C79.248 37.6002 79.2533 37.773 79.2246 37.9401C79.1616 38.2946 78.96 38.5936 78.7374 38.6222C78.6957 38.6275 78.6535 38.6215 78.614 38.6046C78.5745 38.5877 78.5387 38.5604 78.5092 38.5247C78.4602 38.4726 78.4588 38.4323 78.4644 38.4306Z" fill="#AA6550"/>
<path d="M78.589 31.1629C79.0398 30.5161 78.169 29.3233 77.469 28.9185C76.769 28.5136 75.761 28.7723 74.9994 28.9336C74.5192 29.036 74.032 29.2108 73.5532 29.1016C73.2354 29.0062 72.9315 28.8538 72.6516 28.6496C72.3709 28.4492 72.0596 28.3183 71.736 28.2649C71.5732 28.2409 71.4081 28.2706 71.2584 28.3508C71.1086 28.431 70.9799 28.5588 70.8862 28.7202C70.7196 29.0562 70.8358 29.5821 71.1494 29.6913C71.0549 29.6052 70.9444 29.5479 70.8273 29.5243C70.7103 29.5007 70.5903 29.5115 70.4775 29.5558C70.3647 29.6001 70.2626 29.6766 70.1799 29.7787C70.0972 29.8808 70.0363 30.0054 70.0026 30.1419C69.9688 30.2784 69.9631 30.4227 69.986 30.5625C70.009 30.7022 70.0598 30.8331 70.1341 30.9441C70.2085 31.0551 70.3042 31.1427 70.413 31.1996C70.5218 31.2564 70.6404 31.2807 70.7588 31.2705C70.5726 31.042 70.2114 31.3024 70.1988 31.6216C70.1862 31.9408 70.3962 32.2113 70.6188 32.3809C71.1942 32.8144 71.925 32.8362 72.5942 32.6917C73.2634 32.5473 73.9046 32.2482 74.571 32.0836C75.2374 31.9189 76.356 31.6065 76.958 31.9878C77.4004 32.2667 77.644 32.9958 77.9254 32.8967C78.0586 32.8378 78.1786 32.7424 78.2758 32.6182C78.373 32.494 78.4448 32.3443 78.4854 32.181C78.5612 31.8532 78.5929 31.5129 78.5792 31.173" fill="#263238"/>
<path d="M81.4687 39.3528C81.4963 39.3453 81.5224 39.3316 81.5457 39.3125C81.615 39.2591 81.6703 39.1834 81.7053 39.0941C81.7596 38.9512 81.7762 38.7917 81.7529 38.6371C81.7166 38.4339 81.6238 38.2514 81.4897 38.1197C81.3307 37.9625 81.1515 37.8372 80.9592 37.7484C80.7429 37.6537 80.5352 37.5333 80.3389 37.3889C80.1334 37.2155 79.9766 36.9712 79.8895 36.6883C79.7939 36.3838 79.7496 36.0594 79.7594 35.7341C79.7734 35.0621 79.9287 34.4321 79.9665 33.8391C80.0043 33.246 79.9413 32.6899 79.7313 32.3052C79.5735 31.9958 79.3231 31.7705 79.0313 31.6752C78.9532 31.6516 78.8725 31.642 78.7919 31.6467C78.764 31.6472 78.7362 31.6523 78.7094 31.6618C78.8156 31.6609 78.9215 31.6768 79.0244 31.7088C79.3017 31.814 79.537 32.0384 79.6851 32.3388C79.8797 32.7118 79.9469 33.2527 79.8979 33.8323C79.8489 34.4119 79.6991 35.0419 79.6823 35.7324C79.6734 36.0696 79.721 36.4056 79.8223 36.7203C79.916 37.0191 80.0836 37.2764 80.3026 37.4578C80.5035 37.6026 80.7159 37.723 80.9367 37.8173C81.124 37.9006 81.2992 38.0185 81.4562 38.1667C81.5841 38.2882 81.6747 38.4572 81.7137 38.6472C81.7393 38.7919 81.7276 38.9425 81.6801 39.079C81.6369 39.1958 81.5625 39.2921 81.4687 39.3528Z" fill="#455A64"/>
<path d="M71.1018 29.6492C71.0821 29.6315 71.0604 29.6174 71.0374 29.6072C71.0112 29.5917 70.984 29.5788 70.9562 29.5685C70.9174 29.5526 70.8776 29.5408 70.8372 29.5333C70.7044 29.5081 70.5686 29.5196 70.44 29.5667C70.3115 29.6139 70.1935 29.6955 70.0952 29.8054C69.9955 29.9511 69.9209 30.1191 69.8757 30.2996C69.8306 30.4801 69.8157 30.6696 69.832 30.8571C69.8508 31.09 69.9083 31.3159 70.0011 31.5217C70.0939 31.7274 70.2202 31.9087 70.3724 32.0549C70.7223 32.3932 71.1483 32.5985 71.596 32.6446C72.0821 32.6948 72.5717 32.6591 73.0492 32.5388C73.8063 32.3608 74.5314 32.0241 75.1912 31.5442C75.474 31.3343 75.7698 31.1506 76.076 30.9949C76.343 30.8648 76.6278 30.7947 76.916 30.7882C77.3353 30.7773 77.7503 30.8928 78.1228 31.1242C78.2574 31.2146 78.3878 31.3139 78.5134 31.4216C78.4012 31.2894 78.2745 31.1764 78.1368 31.0856C77.7633 30.8358 77.3421 30.7067 76.9146 30.7109C76.6193 30.7136 76.327 30.7814 76.0522 30.9109C75.7428 31.0664 75.4437 31.2501 75.1576 31.4602C74.5024 31.9302 73.7843 32.2604 73.0352 32.4363C72.5647 32.5559 72.0823 32.5926 71.603 32.5455C71.169 32.5023 70.7554 32.3059 70.4144 31.981C70.2677 31.8419 70.1456 31.669 70.0552 31.4726C69.9648 31.2761 69.9079 31.06 69.888 30.8369C69.8709 30.6582 69.8833 30.4771 69.9247 30.3041C69.966 30.1312 70.0353 29.9697 70.1288 29.8289C70.2221 29.722 70.3341 29.6414 70.4566 29.5928C70.5791 29.5443 70.7091 29.5291 70.8372 29.5484C70.9278 29.5722 71.0163 29.6059 71.1018 29.6492Z" fill="#455A64"/>
<path d="M71.9208 28.1792C71.9157 28.3142 71.9333 28.449 71.9726 28.5757C72.0818 28.9258 72.2859 29.2216 72.5522 29.4157C72.7311 29.5555 72.9299 29.6546 73.1388 29.708C73.3783 29.7659 73.6236 29.7812 73.8668 29.7534C74.3806 29.708 74.9182 29.4963 75.4824 29.3216C76.0466 29.1469 76.6108 29.0545 77.098 29.2107C77.5304 29.3482 77.9149 29.6478 78.1956 30.0658C78.3886 30.3435 78.5316 30.6661 78.6156 31.0134C78.6716 31.2603 78.6786 31.4048 78.6884 31.4031C78.6903 31.3684 78.6903 31.3336 78.6884 31.299C78.6807 31.1999 78.6671 31.1017 78.6478 31.005C78.5731 30.6468 78.434 30.3125 78.2404 30.0255C77.957 29.5903 77.5642 29.2763 77.1204 29.1301C76.6164 28.9621 76.0368 29.0578 75.4698 29.2342C74.9028 29.4106 74.3694 29.6223 73.8668 29.671C73.63 29.7004 73.3909 29.6886 73.157 29.6358C72.9546 29.5864 72.7612 29.4942 72.5858 29.3636C72.3262 29.1799 72.1229 28.9007 72.0062 28.5673C71.9687 28.441 71.9401 28.3112 71.9208 28.1792Z" fill="#455A64"/>
<path d="M72.6362 39.3276C72.6546 39.501 72.6927 39.6706 72.7496 39.8316C72.7793 39.9111 72.8227 39.9822 72.877 40.0401C72.9313 40.098 72.9953 40.1415 73.0646 40.1676C73.1397 40.1862 73.2174 40.1819 73.2908 40.1552C73.3641 40.1285 73.4308 40.0802 73.4846 40.0147C73.5919 39.879 73.661 39.7062 73.682 39.5208C73.7044 39.3528 73.682 39.1428 73.542 39.089C73.4854 39.0722 73.4263 39.0722 73.3698 39.089L72.5942 39.257" fill="#AA6550"/>
<path d="M72.772 40.0332C72.8953 40.0902 73.0262 40.1198 73.1584 40.1206C73.2952 40.1109 73.424 40.0402 73.5196 39.9224C73.576 39.8503 73.619 39.7646 73.6458 39.6711C73.6726 39.5775 73.6826 39.4782 73.675 39.3797C73.6708 39.3292 73.6614 39.2796 73.647 39.2319C73.6288 39.1865 73.6344 39.1899 73.6022 39.1848C73.57 39.1798 73.5196 39.1848 73.4776 39.1932L73.3474 39.205C73.1794 39.2201 73.0282 39.2319 72.9008 39.2403C72.7612 39.2636 72.6194 39.2602 72.4808 39.2302C72.6117 39.1728 72.749 39.1389 72.8882 39.1294C73.0142 39.1076 73.1682 39.0857 73.332 39.0622L73.4608 39.0454C73.5072 39.0372 73.5539 39.0322 73.6008 39.0303C73.6378 39.0315 73.6736 39.0468 73.703 39.074C73.7291 39.1017 73.7488 39.137 73.7604 39.1764C73.7794 39.2369 73.7917 39.3002 73.7968 39.3646C73.806 39.4855 73.7928 39.6074 73.7582 39.7216C73.7236 39.8357 73.6684 39.9393 73.5966 40.0248C73.4771 40.1612 73.3176 40.2354 73.1528 40.2315C73.0451 40.232 72.9394 40.1965 72.8476 40.129C72.8 40.082 72.7678 40.04 72.772 40.0332Z" fill="#263238"/>
<path d="M72.0776 42.7632C72.0776 42.7632 73.4888 43.4049 74.8622 42.9312C74.8622 42.9312 73.8262 43.9745 71.9362 43.5746L72.0776 42.7632Z" fill="#AA6550"/>
<path d="M74.2308 66.8494C74.1628 66.7959 74.0982 66.7364 74.0376 66.6713C73.9774 66.6125 73.8976 66.5403 73.8122 66.463C73.7268 66.3857 73.6232 66.295 73.5042 66.2026C73.3852 66.1102 73.262 66.0094 73.1178 65.9136C72.9736 65.8179 72.821 65.7171 72.6572 65.6163C71.939 65.1922 71.1667 64.9151 70.3724 64.7964C70.189 64.7729 70.0154 64.746 69.8516 64.741C69.6878 64.736 69.5352 64.7276 69.3966 64.7292C69.258 64.7309 69.1306 64.7393 69.02 64.7444C68.9094 64.7494 68.8142 64.7595 68.74 64.7696C68.6599 64.7843 68.5789 64.791 68.4978 64.7897C68.5765 64.7655 68.6565 64.7475 68.7372 64.736C68.8299 64.7169 68.9234 64.7034 69.0172 64.6956C69.1278 64.6856 69.2538 64.6671 69.3952 64.6671C69.5366 64.6671 69.6892 64.657 69.8544 64.6671C70.0196 64.6772 70.196 64.694 70.3808 64.7141C70.7814 64.7739 71.1774 64.8717 71.5652 65.0064C71.95 65.1483 72.3246 65.3276 72.6852 65.5424C72.849 65.6465 73.0072 65.7423 73.1458 65.8498C73.2844 65.9573 73.416 66.0531 73.5308 66.1505C73.6456 66.248 73.7464 66.342 73.8346 66.4227C73.9228 66.5033 73.9956 66.5806 74.053 66.6444C74.1169 66.7067 74.1764 66.7752 74.2308 66.8494Z" fill="#FAFAFA"/>
<path d="M66.003 58.221L67.151 52.2519C67.5906 50.0075 68.1114 47.8503 68.9864 47.595V48.2888L68.6112 65.3425C68.6112 65.3425 66.2718 68.5345 63.2912 66.7638C62.3588 66.2077 60.6578 62.3017 60.6578 62.3017C60.6578 62.3017 56.7 53.8278 56.8652 53.4431C57.0304 53.0583 59.4482 49.3186 59.6946 49.1322L66.003 58.221Z" fill="#FAD757"/>
<path d="M77.8162 45.9048C80.0982 46.429 82.6672 48.0267 83.8502 52.1208C84.2814 53.616 87.423 64.6385 87.423 64.6385L82.0652 64.5041L81.2 62.2344L81.62 65.922L81.9826 71.1804L68.453 71.4543L68.5482 63.5314L68.6784 47.773C68.6784 47.773 68.8296 47.5344 71.1634 45.9905C72.611 45.0312 77.8162 45.9048 77.8162 45.9048Z" fill="#FAD757"/>
<g opacity="0.2">
<path d="M79.1658 56.4453C79.3884 59.7717 79.6432 60.7999 79.8658 64.1263C79.8711 64.4413 79.9183 64.7532 80.0058 65.0503C80.0525 65.198 80.1276 65.3305 80.2248 65.437C80.3221 65.5435 80.4389 65.6211 80.5658 65.6635C80.9606 65.7592 81.473 66.102 81.5836 65.6383L81.2098 62.4345C81.1294 61.9685 81.0054 61.5148 80.8402 61.0821C80.01 58.8696 79.7034 58.7402 79.1602 56.4453" fill="black"/>
</g>
<path d="M71.162 47.6958L71.2068 47.3498L71.6394 44.0301C71.6519 43.9336 71.6943 43.8463 71.7582 43.7859C71.8221 43.7254 71.9027 43.6962 71.9838 43.7042L77.3108 44.2384C77.4717 44.2543 77.6209 44.3458 77.7258 44.4931C77.8306 44.6404 77.8828 44.8314 77.8708 45.0246L77.7518 46.9533L76.0886 49.5573L73.6932 50.0058" fill="#FAD757"/>
<path d="M68.4866 53.937C68.5076 53.937 68.523 56.5377 68.523 59.7448C68.523 62.9519 68.5076 65.5525 68.4866 65.5525C68.4656 65.5525 68.4502 62.9519 68.4502 59.7448C68.4502 56.5377 68.467 53.937 68.4866 53.937Z" fill="#263238"/>
<path d="M82.18 65.0384C82.18 65.0384 82.18 65.0266 82.1632 65.0014C82.1464 64.9762 82.1366 64.9342 82.1184 64.8872L81.956 64.4453L81.3722 62.814L79.4696 57.4196C79.1 56.3645 78.7486 55.3599 78.4294 54.4443C78.268 54.0154 78.1523 53.5639 78.085 53.1003C78.0259 52.6953 77.995 52.2851 77.9926 51.8739C77.9748 51.2781 78.0468 50.6833 78.2054 50.1183L78.2488 49.9788L78.2978 49.8612C78.3208 49.7987 78.3489 49.739 78.3818 49.6832L78.4406 49.579C78.4473 49.5672 78.4548 49.5559 78.463 49.5454C78.3709 49.7312 78.2936 49.9269 78.232 50.13C78.0855 50.6938 78.022 51.2839 78.0444 51.8739C78.0468 52.75 78.1988 53.6162 78.491 54.4191L79.5368 57.391L81.4198 62.7956L81.9798 64.4369L82.1296 64.8855L82.1674 65.0031C82.1725 65.0143 82.1767 65.0262 82.18 65.0384Z" fill="#263238"/>
<path d="M79.4766 46.4912C79.4276 46.5509 79.3757 46.607 79.3212 46.6592C79.1637 46.8033 78.9921 46.9234 78.8102 47.0171C78.5219 47.1614 78.2201 47.2629 77.9114 47.3195C77.5033 47.3955 77.092 47.4443 76.6794 47.4656C76.2202 47.4891 75.719 47.4791 75.1814 47.4908C74.6103 47.4897 74.0413 47.5732 73.4874 47.7395C72.8736 47.9135 72.3182 48.3065 71.8942 48.8667C71.6829 49.1718 71.5317 49.5302 71.4518 49.9151C71.3663 50.3098 71.3721 50.7251 71.4686 51.1163C71.5221 51.3093 71.601 51.4908 71.7024 51.6539C71.8044 51.8121 71.9332 51.9427 72.0804 52.0369C72.2231 52.1307 72.3858 52.1716 72.548 52.1545C72.7065 52.135 72.8533 52.0451 72.9596 51.9025C73.0542 51.7525 73.1215 51.5804 73.1572 51.3972C73.1929 51.214 73.1962 51.0238 73.1668 50.8391C73.1435 50.6565 73.0962 50.4796 73.0268 50.3149C72.9577 50.1542 72.8746 50.0027 72.779 49.863C72.4048 49.3454 71.9007 48.9876 71.3426 48.8432C70.859 48.7063 70.3548 48.7132 69.874 48.8634C69.4784 48.9862 69.1008 49.1805 68.754 49.4396C68.4899 49.6372 68.2407 49.8621 68.0092 50.1116C67.8174 50.3132 67.6816 50.4879 67.5892 50.6022L67.4856 50.7366C67.4742 50.7526 67.4616 50.7673 67.4478 50.7803C67.6126 50.5303 67.7953 50.2982 67.9938 50.0864C68.223 49.832 68.4713 49.6036 68.7358 49.4043C69.0859 49.137 69.4684 48.9364 69.8698 48.8096C70.3585 48.6523 70.8721 48.6419 71.365 48.7794C71.9376 48.9243 72.4551 49.2894 72.8392 49.8193C72.937 49.9595 73.0224 50.1115 73.094 50.2729C73.1646 50.446 73.2118 50.6314 73.234 50.8223C73.2584 51.0169 73.2556 51.2151 73.2256 51.4086C73.1954 51.61 73.1215 51.7983 73.0114 51.9546C72.8937 52.1131 72.7309 52.2131 72.555 52.2351C72.3784 52.2553 72.2009 52.2114 72.0454 52.1091C71.8891 52.009 71.7522 51.8705 71.6436 51.7026C71.5367 51.5315 71.4535 51.3409 71.3972 51.1381C71.2966 50.7317 71.2907 50.2999 71.3804 49.8899C71.462 49.4915 71.6186 49.1208 71.8382 48.8063C72.2725 48.2346 72.8404 47.8335 73.4678 47.6555C74.028 47.4911 74.6032 47.411 75.18 47.4169C75.719 47.4068 76.2202 47.4169 76.6766 47.4018C77.0875 47.3846 77.4974 47.3403 77.9044 47.2691C78.2113 47.2162 78.512 47.1203 78.8004 46.9835C78.9813 46.8953 79.1532 46.7826 79.3128 46.6475C79.3688 46.6021 79.4066 46.5601 79.4346 46.5366C79.4473 46.5199 79.4614 46.5047 79.4766 46.4912Z" fill="#FAFAFA"/>
<path d="M84.1064 53.4834C84.0867 53.49 84.0665 53.494 84.0462 53.4952C84.007 53.4952 83.9495 53.5069 83.8739 53.5103C83.6624 53.5187 83.4507 53.5125 83.2398 53.4918C82.9724 53.4683 82.656 53.4196 82.306 53.3608C81.956 53.302 81.5724 53.2398 81.1664 53.2146C80.7867 53.1898 80.406 53.2243 80.0338 53.3171C79.7294 53.3914 79.4371 53.5247 79.1686 53.7119C78.9253 53.8904 78.7093 54.1177 78.5302 54.3839C78.5377 54.3614 78.5481 54.3405 78.561 54.3217C78.5905 54.2624 78.6242 54.2062 78.6618 54.1537C78.7974 53.9549 78.9597 53.7846 79.142 53.6497C79.4123 53.4515 79.7086 53.3095 80.0184 53.2297C80.3965 53.1307 80.7841 53.0934 81.1705 53.1189C81.5807 53.1441 81.9657 53.2112 82.3157 53.2734C82.6657 53.3356 82.9793 53.391 83.2439 53.4212C83.5085 53.4515 83.7255 53.4649 83.8739 53.4666C83.9516 53.4665 84.0292 53.4721 84.1064 53.4834Z" fill="#FAFAFA"/>
<path d="M80.7422 61.0148C80.479 60.9413 80.2084 60.9136 79.9386 60.9324C79.6222 60.9581 79.3091 61.0252 79.0048 61.1324C78.6478 61.2483 78.2488 61.418 77.8008 61.5843C77.3143 61.7822 76.8052 61.8882 76.2916 61.8984C75.7001 61.8983 75.115 61.7525 74.5724 61.47C73.9694 61.1642 73.433 60.6964 73.0044 60.1025C72.7725 59.7922 72.5835 59.4394 72.4444 59.0576C72.2964 58.6623 72.2407 58.2262 72.2834 57.7959C72.3321 57.3621 72.5084 56.9636 72.7804 56.672C72.9155 56.5306 73.0775 56.4313 73.2522 56.383C73.4231 56.3396 73.6001 56.3454 73.7688 56.4C73.9374 56.4546 74.0929 56.5565 74.2224 56.6972C74.3489 56.8363 74.4368 57.0187 74.4744 57.2196C74.5106 57.4164 74.4975 57.6216 74.4366 57.8093C74.3777 57.9898 74.2886 58.1539 74.1748 58.2915C73.9577 58.5524 73.6952 58.7526 73.4062 58.8778C73.2701 58.9398 73.1295 58.9865 72.9862 59.0172C72.9162 59.0324 72.8462 59.0508 72.7776 59.0626L72.569 59.0928C72.0574 59.1537 71.541 59.1099 71.0416 58.9635C70.6298 58.8458 70.2329 58.6628 69.8614 58.4192C69.5805 58.2371 69.3171 58.0185 69.076 57.7673L68.936 57.6212L68.8212 57.4817C68.7593 57.4113 68.7013 57.3361 68.6476 57.2566L68.5468 57.1121C68.5353 57.0965 68.525 57.0796 68.516 57.0617C68.5295 57.0757 68.5422 57.0908 68.5538 57.1071L68.6588 57.2448C68.7143 57.3219 68.7737 57.3949 68.8366 57.4632L68.9528 57.5993L69.0928 57.7421C69.335 57.9863 69.5983 58.1987 69.8782 58.3755C70.2477 58.6124 70.6417 58.7898 71.05 58.903C71.5444 59.0443 72.0551 59.0841 72.5606 59.0206L72.765 58.9904C72.8336 58.9769 72.905 58.9584 72.9722 58.9433C73.1122 58.913 73.2496 58.8668 73.3824 58.8056C73.662 58.6833 73.9157 58.4889 74.1258 58.236C74.2329 58.106 74.3167 57.9511 74.3722 57.7808C74.4271 57.6077 74.4393 57.4193 74.4072 57.2381C74.3657 57.0531 74.2828 56.8852 74.1676 56.7526C74.0524 56.6199 73.9092 56.5276 73.7534 56.4855C73.5939 56.4302 73.4253 56.4245 73.2634 56.4689C73.1015 56.5133 72.9517 56.6063 72.828 56.7392C72.5688 57.0164 72.4013 57.3962 72.3562 57.8093C72.3161 58.2234 72.3692 58.6429 72.5102 59.024C72.6457 59.3969 72.829 59.7421 73.0534 60.0471C73.4747 60.63 74.0014 61.0897 74.5934 61.3911C75.1274 61.6708 75.7033 61.8171 76.286 61.8212C76.7944 61.8136 77.2988 61.7116 77.7812 61.5188C78.2278 61.3508 78.6212 61.1928 78.9894 61.0803C79.2968 60.9766 79.6128 60.9141 79.9316 60.8938C80.0477 60.8851 80.1641 60.8851 80.2802 60.8938C80.3796 60.9123 80.465 60.9207 80.5322 60.9392L80.6848 60.9845C80.705 60.9914 80.7243 61.0015 80.7422 61.0148Z" fill="#FAFAFA"/>
<path d="M68.4404 59.2222C68.4278 59.2222 68.3634 59.0542 68.2276 58.772C67.8722 58.0557 67.354 57.4759 66.7338 57.1004C66.4958 56.9559 66.339 56.8921 66.3432 56.877C66.3825 56.8811 66.4211 56.8918 66.458 56.9089C66.5599 56.9453 66.6595 56.9902 66.7562 57.0433C67.0769 57.2188 67.3719 57.4554 67.6298 57.7438C67.8881 58.032 68.1051 58.3691 68.2724 58.7418C68.3253 58.8533 68.3721 58.9689 68.4124 59.0878C68.4266 59.1309 68.436 59.1761 68.4404 59.2222Z" fill="#FAFAFA"/>
<path d="M63.0084 66.4126C63.0084 66.4126 62.9986 66.3992 62.986 66.3706C62.9734 66.3421 62.9524 66.2967 62.9286 66.2446C62.8782 66.1338 62.8054 65.9674 62.7158 65.7524C62.4557 65.1453 62.2411 64.5117 62.0746 63.859C61.9633 63.4056 61.8961 62.9383 61.8744 62.4663C61.8633 62.2027 61.8722 61.9384 61.901 61.6767C61.9358 61.3998 61.9911 61.1271 62.0662 60.8619C62.2296 60.2887 62.5125 59.7751 62.888 59.3701C63.0885 59.1493 63.3243 58.9796 63.5811 58.8713C63.8378 58.763 64.1102 58.7184 64.3818 58.7401C64.664 58.7654 64.9275 58.9193 65.1182 59.1702C65.2089 59.2942 65.2748 59.4415 65.311 59.6007C65.3471 59.76 65.3525 59.927 65.3268 60.0891C65.2966 60.2482 65.2273 60.3927 65.128 60.5041C65.0309 60.6107 64.9137 60.6874 64.7864 60.7275C64.54 60.8045 64.2784 60.7667 64.0542 60.6217C63.8462 60.487 63.6644 60.3009 63.5208 60.0757C63.3831 59.8671 63.2696 59.6371 63.1834 59.3919C63.0319 58.952 62.969 58.4754 63 58.0009C63.0283 57.6093 63.1236 57.229 63.28 56.8837C63.3959 56.6231 63.5441 56.3852 63.7196 56.1781C63.8293 56.0467 63.9499 55.9291 64.0794 55.827C64.1228 55.7917 64.1592 55.7698 64.183 55.753L64.2194 55.7312C64.2194 55.7312 64.1746 55.7698 64.0878 55.8421C63.9628 55.9491 63.8461 56.0694 63.7392 56.2016C63.5715 56.4105 63.43 56.6477 63.3192 56.9055C63.1704 57.2465 63.0813 57.6204 63.0574 58.0042C63.0303 58.4695 63.0956 58.9359 63.2478 59.365C63.3328 59.6029 63.4439 59.8261 63.5782 60.0286C63.7175 60.2443 63.893 60.4223 64.0934 60.5511C64.3026 60.6863 64.5468 60.7211 64.7766 60.6486C64.8945 60.6155 65.0024 60.544 65.0886 60.4421C65.1748 60.3401 65.2359 60.2116 65.2652 60.0706C65.2874 59.9222 65.2816 59.7697 65.2482 59.6243C65.2147 59.4789 65.1545 59.3444 65.072 59.2306C64.8933 58.9968 64.6469 58.8537 64.3832 58.8308C64.1216 58.8101 63.8592 58.8531 63.6119 58.9574C63.3646 59.0616 63.1374 59.2248 62.944 59.4373C62.5775 59.8328 62.3006 60.3334 62.139 60.8922C62.0635 61.1516 62.0077 61.4187 61.9724 61.6902C61.9433 61.9473 61.9335 62.2071 61.943 62.4663C61.9626 62.9333 62.0265 63.396 62.1334 63.8456C62.2947 64.4966 62.5008 65.1305 62.7494 65.7406L62.9496 66.2446C62.9706 66.2984 62.9874 66.3421 63.0014 66.3757C63.0154 66.4093 63.0084 66.4126 63.0084 66.4126Z" fill="#FAFAFA"/>
<path d="M61.2794 51.5815C61.2794 51.5815 61.2864 51.6051 61.292 51.6504C61.3019 51.7183 61.3089 51.7867 61.313 51.8554C61.3314 52.1063 61.3314 52.3587 61.313 52.6097C61.2564 53.4453 61.0183 54.2485 60.6223 54.9392C60.2263 55.6298 59.6863 56.1839 59.0562 56.5459C58.8676 56.6565 58.6713 56.747 58.4696 56.8164C58.3996 56.8433 58.3422 56.8551 58.3044 56.8668C58.2666 56.8786 58.2456 56.8803 58.2456 56.8769C58.3158 56.8406 58.3878 56.8098 58.4612 56.7845C58.6576 56.7028 58.8489 56.6045 59.0338 56.4905C59.6471 56.1187 60.1727 55.5678 60.5622 54.8885C60.9516 54.2092 61.1925 53.4232 61.2626 52.603C61.2847 52.3553 61.2926 52.1061 61.2864 51.8571C61.2791 51.7655 61.2768 51.6735 61.2794 51.5815Z" fill="#FAFAFA"/>
<path d="M85.3314 58.866C85.1231 59.0226 84.94 59.2229 84.791 59.4573C84.651 59.674 84.511 59.9613 84.3528 60.2637C84.1792 60.6023 83.9791 60.9202 83.755 61.2129C83.3451 61.7443 82.859 62.183 82.32 62.5082C82.1577 62.6068 81.9903 62.6926 81.8187 62.7652C81.7562 62.7947 81.6915 62.8172 81.6255 62.8324C81.6835 62.7927 81.7445 62.7595 81.8076 62.7333C81.9252 62.6712 82.096 62.5838 82.2962 62.4528C82.8193 62.1154 83.2923 61.6766 83.6962 61.1541C83.9179 60.8659 84.1171 60.5538 84.2912 60.2217C84.4303 59.9442 84.5822 59.6761 84.7462 59.4187C84.86 59.2462 84.9956 59.096 85.148 58.9735C85.1893 58.9406 85.2328 58.9119 85.2782 58.8878C85.3146 58.871 85.3314 58.8626 85.3314 58.866Z" fill="#FAFAFA"/>
<path d="M77.7658 46.1065C77.7453 46.1171 77.7236 46.1239 77.7014 46.1267L77.5152 46.167C77.3528 46.1989 77.1176 46.2409 76.8278 46.288C76.2454 46.3821 75.439 46.4929 74.5444 46.5719C74.1256 46.6178 73.7049 46.6358 73.2844 46.6257C72.9375 46.6155 72.5937 46.5448 72.2638 46.4157C72.0411 46.329 71.831 46.2015 71.6408 46.0377C71.5889 45.9938 71.5394 45.9461 71.4924 45.8949C71.4616 45.8579 71.4462 45.8394 71.4476 45.8361C71.449 45.8327 71.5204 45.9033 71.6562 46.0041C71.8496 46.1533 72.0593 46.2697 72.2792 46.3501C72.6061 46.4695 72.9455 46.5329 73.2872 46.5383C73.7078 46.5437 74.1283 46.5235 74.5472 46.4778C75.439 46.3989 76.2454 46.2997 76.8278 46.2208L77.518 46.1267C77.6001 46.113 77.6829 46.1063 77.7658 46.1065Z" fill="#263238"/>
<path d="M87.36 65.8279C87.4654 66.4778 87.4503 67.1476 87.3159 67.7898C87.1814 68.432 86.9309 69.0308 86.5821 69.5438C86.2333 70.0568 85.7947 70.4715 85.2974 70.7584C84.8001 71.0452 84.2563 71.1974 83.7046 71.2039L73.0996 71.0628L73.3796 66.9417L82.46 65.3054" fill="#B78876"/>
<path d="M74.0292 67.1215C73.9802 67.14 73.3684 66.8107 72.8196 66.5067C72.2374 66.183 71.5984 66.0343 70.9576 66.0732L68.4292 66.2278C68.4292 66.2278 68.5846 66.7318 68.8492 66.8998C69.1138 67.0678 70.7 67.1215 70.7 67.1215L70.6188 67.2207C70.2871 67.6306 69.8348 67.8682 69.3588 67.8826H69.1166C68.9373 67.8655 68.7602 67.8238 68.5888 67.7583L67.9658 67.4559C67.7768 67.3551 67.578 67.3702 67.4954 67.5987C67.4128 67.8271 67.4758 68.0892 67.991 68.4C68.278 68.568 69.3448 69.0166 69.3448 69.0166C69.3521 69.1988 69.3732 69.3799 69.4078 69.5575C69.454 69.744 69.8726 69.9305 69.8726 69.9305C69.9813 70.207 70.1058 70.4741 70.245 70.7302C70.294 70.7974 70.6734 70.9402 71.078 71.0763C71.7302 71.2953 72.4208 71.2889 73.0702 71.0578L74.0334 70.7117V67.1837" fill="#B78876"/>
<path d="M70.5712 69.4248C70.1257 69.4113 69.689 69.2732 69.2958 69.0216C69.2958 69.0015 69.5758 69.1292 69.93 69.2384C70.2842 69.3476 70.5726 69.3996 70.5712 69.4248Z" fill="#AA6550"/>
<path d="M70.4816 70.1322C70.3629 70.1617 70.2397 70.1507 70.126 70.1003C70.0072 70.074 69.8967 70.0089 69.8068 69.9121C69.9212 69.9395 70.0336 69.9783 70.1428 70.028C70.2578 70.0523 70.371 70.0871 70.4816 70.1322Z" fill="#AA6550"/>
<path d="M70.9436 66.8477C70.8883 66.9411 70.8228 67.0253 70.749 67.098C70.5813 67.2901 70.3963 67.4591 70.1974 67.602C69.9969 67.7424 69.779 67.8433 69.552 67.901C69.4607 67.9303 69.3663 67.9428 69.272 67.938C69.5849 67.8517 69.887 67.7167 70.1708 67.5365C70.3653 67.3958 70.5502 67.2368 70.7238 67.061C70.7916 66.9822 70.8652 66.9108 70.9436 66.8477Z" fill="#AA6550"/>
<path d="M74.2868 66.5688L74.0292 71.2292H84.0182C84.6964 71.2297 85.3619 71.0084 85.9432 70.5891C86.601 70.1147 87.1212 69.4087 87.4328 68.567C87.7444 67.7253 87.8324 66.7889 87.6848 65.8851C87.5411 65 87.3254 64.1341 87.0408 63.2996L82.0176 64.2924L82.1786 65.0417L74.2868 66.5688Z" fill="#FAD757"/>
<path d="M84.4928 64.6502C84.4597 64.6617 84.426 64.6707 84.392 64.6771L84.0994 64.7409L83.02 64.956L79.4696 65.628L75.915 66.2815L74.837 66.4696L74.543 66.5167C74.5086 66.5224 74.4741 66.5258 74.4394 66.5268C74.4725 66.5129 74.5068 66.5033 74.5416 66.4982L74.8328 66.436L75.908 66.2193L79.4584 65.5473L83.02 64.8888L84.098 64.7006L84.392 64.6536C84.4254 64.6482 84.4592 64.647 84.4928 64.6502Z" fill="#263238"/>
<path d="M79.3799 71.2325C79.3617 71.2325 79.4401 70.8965 79.4499 70.3471C79.4521 70.1979 79.4469 70.0487 79.4346 69.9002C79.4225 69.7309 79.402 69.5626 79.373 69.3962C79.3036 69.0129 79.1945 68.6415 79.0481 68.2908C78.8983 67.9417 78.7151 67.6147 78.5021 67.3164L78.3621 67.1198C78.3145 67.056 78.2627 67.0006 78.2151 66.9434C78.1213 66.8275 78.0219 66.7351 77.9351 66.6461C77.5781 66.3101 77.3247 66.1421 77.3331 66.127C77.3951 66.1567 77.4546 66.1933 77.511 66.2362C77.5806 66.2798 77.648 66.3286 77.7126 66.3823C77.7868 66.4462 77.8791 66.5083 77.9673 66.599C78.0682 66.6896 78.1645 66.7872 78.2557 66.8914C78.3047 66.9485 78.3593 67.0022 78.4083 67.0594L78.561 67.2576C78.7802 67.5579 78.9683 67.889 79.121 68.2438C79.2692 68.6018 79.3783 68.9812 79.4457 69.3727C79.4744 69.544 79.4931 69.7174 79.5017 69.8918C79.5107 70.0428 79.5107 70.1944 79.5017 70.3454C79.4991 70.4709 79.4897 70.596 79.4737 70.7201C79.4661 70.8136 79.4525 70.9062 79.4331 70.9973C79.4211 71.0774 79.4033 71.1561 79.3799 71.2325Z" fill="#FAFAFA"/>
<path d="M85.4616 70.8814C85.3056 70.8803 85.1501 70.8583 84.9982 70.8159C84.8191 70.7666 84.6452 70.6928 84.4802 70.5958C84.2613 70.4652 84.0636 70.2889 83.8964 70.075C83.6934 69.8128 83.546 69.4959 83.4666 69.151C83.4223 68.9593 83.3974 68.7619 83.3924 68.563C83.3822 68.3528 83.3964 68.1419 83.4344 67.9364C83.4718 67.7175 83.542 67.5086 83.6416 67.3198C83.7455 67.1196 83.89 66.9543 84.0616 66.8393C84.239 66.7152 84.4431 66.6567 84.6482 66.6713C84.7536 66.6801 84.8564 66.7144 84.9505 66.7721C85.0446 66.8299 85.128 66.9099 85.1956 67.0073C85.2655 67.1034 85.3181 67.2159 85.3499 67.3377C85.3817 67.4594 85.3921 67.5878 85.3804 67.7146C85.3632 67.8377 85.3234 67.9546 85.2638 68.0569C85.2042 68.1592 85.1264 68.2443 85.036 68.306C84.6971 68.5189 84.3069 68.5831 83.9328 68.4874C83.4017 68.3881 82.9163 68.0691 82.5607 67.5855C82.205 67.102 82.0015 66.4844 81.9854 65.8397C81.9764 65.6525 81.9896 65.4647 82.0246 65.282C82.0117 65.4669 82.0079 65.6526 82.0134 65.8381C82.0395 66.3437 82.1772 66.8319 82.4124 67.2526C82.5876 67.5614 82.8137 67.824 83.0766 68.0242C83.3395 68.2244 83.6337 68.358 83.9412 68.4169C84.2987 68.5091 84.6717 68.4497 84.9968 68.2489C85.078 68.1938 85.148 68.1177 85.2018 68.0262C85.2555 67.9347 85.2917 67.83 85.3076 67.7197C85.3158 67.6047 85.3051 67.4889 85.276 67.3789C85.2468 67.2689 85.1999 67.1669 85.1379 67.0787C85.0758 66.9905 84.9999 66.9179 84.9144 66.865C84.829 66.8121 84.7356 66.78 84.6398 66.7705C84.4499 66.755 84.2605 66.807 84.0952 66.92C83.9396 67.0315 83.8059 67.182 83.7033 67.3612C83.6006 67.5404 83.5313 67.744 83.5002 67.9582C83.4623 68.1575 83.4477 68.3622 83.4568 68.5664C83.4606 68.7588 83.4837 68.95 83.5254 69.1359C83.5992 69.4717 83.7394 69.7812 83.9342 70.0381C84.0943 70.2489 84.2838 70.4246 84.4942 70.5572C84.6555 70.6561 84.8255 70.7333 85.001 70.7873C85.295 70.8663 85.463 70.8697 85.4616 70.8814Z" fill="#FAFAFA"/>
<path d="M45.8374 20.1118H20.8208C19.3586 20.1118 17.9563 20.8088 16.9224 22.0496C15.8884 23.2903 15.3076 24.973 15.3076 26.7277V37.4259H9.91058L15.3076 43.9023V51.175C15.3076 52.9296 15.8884 54.6124 16.9224 55.8531C17.9563 57.0938 19.3586 57.7909 20.8208 57.7909H45.8374C47.2996 57.7909 48.7019 57.0938 49.7358 55.8531C50.7697 54.6124 51.3506 52.9296 51.3506 51.175V26.7277C51.3506 24.973 50.7697 23.2903 49.7358 22.0496C48.7019 20.8088 47.2996 20.1118 45.8374 20.1118Z" fill="#FAD757"/>
<path d="M35.6174 21.2425C35.4592 21.7347 35.7308 22.2706 36.0374 22.6503C36.344 23.03 36.7108 23.3895 36.8074 23.9036C36.8872 24.3353 36.7542 24.7839 36.7864 25.2241C36.8186 25.6642 37.0216 26.0792 37.1364 26.5093C37.345 27.2888 37.261 28.1405 37.0748 28.9285C36.9405 29.5832 36.6839 30.1927 36.3244 30.7109C36.1433 30.9676 35.9189 31.1752 35.6659 31.32C35.413 31.4648 35.1373 31.5435 34.8572 31.5509C34.7779 31.5569 34.6985 31.5433 34.6239 31.5109C34.5492 31.4785 34.4809 31.4281 34.4232 31.3628C34.3446 31.2268 34.3013 31.0661 34.2986 30.9008C33.978 27.5181 33.978 24.1027 34.2986 20.72" fill="#263238"/>
<path d="M35.322 32.1441C36.54 32.0803 37.6656 33.4797 37.569 34.938C38.8024 35.2992 39.669 36.9271 39.4324 38.4223C39.3526 38.9162 39.1692 39.3866 39.144 39.8872C39.116 40.4349 39.284 40.9675 39.3666 41.5051C39.5251 42.4849 39.4404 43.499 39.123 44.4216C38.9312 44.9776 38.5728 45.5522 38.0716 45.569C37.9017 45.5604 37.7363 45.5018 37.5898 45.3984C37.4433 45.295 37.3203 45.1499 37.2316 44.976C37.0571 44.6238 36.9419 44.2339 36.8928 43.8285C36.6758 42.5148 36.6127 41.1657 36.3103 39.8772C36.0079 38.5886 35.42 37.3185 34.4498 36.665C33.9136 36.3021 33.2696 36.1308 32.8426 35.5982C32.6278 35.3075 32.4845 34.9509 32.4289 34.5682C32.3733 34.1855 32.4074 33.7918 32.5276 33.431C32.6534 33.0735 32.8406 32.7518 33.077 32.4869C33.3134 32.2221 33.5937 32.02 33.8996 31.8938" fill="#263238"/>
<path d="M26.8912 22.447C26.8772 21.8221 27.3574 21.3399 27.8418 21.103C28.3262 20.8662 28.8652 20.7872 29.2964 20.431C29.68 20.1219 29.9362 19.6398 30.2596 19.255C30.6589 18.7691 31.1589 18.4194 31.708 18.2419C32.2572 18.0644 32.8359 18.0655 33.3846 18.2451C33.9333 18.4247 34.4323 18.7763 34.8303 19.2638C35.2284 19.7512 35.5111 20.3571 35.6496 21.019C35.8358 21.9078 35.7084 22.9594 35.1246 23.5508C34.447 24.2362 33.4446 24.0834 32.5724 23.87C31.7002 23.6566 30.7202 23.4466 29.995 24.0598C29.5582 24.4278 29.3062 25.0292 29.0388 25.5853C28.7714 26.1414 28.4368 26.7075 27.9314 26.9175C27.426 27.1275 26.7386 26.7646 26.719 26.1246" fill="#263238"/>
<path d="M28.9436 22.5747C28.7268 22.6028 28.5267 22.7275 28.3829 22.9241C28.239 23.1207 28.1618 23.3749 28.1666 23.6364L28.686 37.7484C28.7084 39.415 30.7384 40.3508 32.2252 40.3088C33.7274 40.2668 33.775 39.3831 33.7946 37.7972C33.8254 35.1495 33.8226 34.1549 33.824 34.17C33.8254 34.1852 35.721 33.787 36.1088 30.81C36.3006 29.3333 36.2348 26.9108 36.127 24.93C36.0304 23.1476 35.042 20.9636 33.5622 21.1551L28.9436 22.5747Z" fill="#FFBE9D"/>
<path d="M35.7 26.8017C35.7008 26.9009 35.6693 26.9965 35.6124 27.0683C35.5554 27.1401 35.4773 27.1825 35.3948 27.1864C35.3548 27.1905 35.3146 27.1851 35.2764 27.1704C35.2382 27.1557 35.2028 27.132 35.1723 27.1007C35.1419 27.0695 35.1169 27.0312 35.0988 26.9882C35.0807 26.9453 35.07 26.8984 35.0672 26.8504C35.066 26.7511 35.0973 26.6553 35.1544 26.5833C35.2114 26.5114 35.2897 26.4692 35.3724 26.4657C35.4123 26.4616 35.4526 26.467 35.4908 26.4817C35.5289 26.4964 35.5643 26.5201 35.5948 26.5514C35.6253 26.5827 35.6503 26.6209 35.6683 26.6639C35.6864 26.7068 35.6971 26.7537 35.7 26.8017Z" fill="#263238"/>
<path d="M35.6916 26.1969C35.6524 26.2473 35.4116 26.0289 35.07 26.0289C34.7284 26.0289 34.4778 26.2372 34.44 26.1868C34.4218 26.165 34.4624 26.0743 34.5716 25.9785C34.719 25.8554 34.8946 25.7902 35.0742 25.792C35.252 25.7908 35.4255 25.8573 35.5698 25.9819C35.6748 26.081 35.7112 26.1751 35.6916 26.1969Z" fill="#263238"/>
<path d="M32.417 26.8017C32.4178 26.9009 32.3864 26.9965 32.3294 27.0683C32.2724 27.1401 32.1944 27.1825 32.1118 27.1864C32.0719 27.1905 32.0316 27.1851 31.9934 27.1704C31.9552 27.1557 31.9199 27.132 31.8894 27.1007C31.8589 27.0695 31.8339 27.0312 31.8158 26.9882C31.7978 26.9453 31.787 26.8984 31.7842 26.8504C31.7831 26.7511 31.8144 26.6553 31.8714 26.5833C31.9285 26.5114 32.0067 26.4692 32.0894 26.4657C32.1294 26.4616 32.1696 26.467 32.2078 26.4817C32.246 26.4964 32.2813 26.5201 32.3118 26.5514C32.3423 26.5827 32.3673 26.6209 32.3854 26.6639C32.4034 26.7068 32.4142 26.7537 32.417 26.8017Z" fill="#263238"/>
<path d="M32.34 26.2825C32.3008 26.3329 32.06 26.1145 31.7184 26.1145C31.3768 26.1145 31.1262 26.3229 31.0898 26.2725C31.0716 26.2506 31.1108 26.1599 31.22 26.0641C31.3673 25.9407 31.5429 25.875 31.7226 25.876C31.9005 25.8752 32.0741 25.9423 32.2182 26.0675C32.3162 26.17 32.3526 26.2607 32.34 26.2825Z" fill="#263238"/>
<path d="M33.579 29.32C33.579 29.2964 33.789 29.2528 34.139 29.199C34.2258 29.1872 34.3084 29.1654 34.3238 29.0948C34.3302 28.9866 34.3097 28.8784 34.265 28.784L34.0046 27.9877C33.6448 26.8537 33.383 25.9213 33.4222 25.9045C33.4614 25.8877 33.7834 26.7932 34.1432 27.9205L34.3924 28.7219C34.4466 28.8481 34.463 28.9929 34.4386 29.1318C34.4263 29.1684 34.4073 29.2013 34.3831 29.2281C34.3589 29.2548 34.33 29.2747 34.2986 29.2864C34.2529 29.3015 34.2059 29.3094 34.1586 29.3099C33.7946 29.3401 33.5804 29.3435 33.579 29.32Z" fill="#263238"/>
<path d="M33.824 34.1718C32.6581 34.1959 31.5094 33.8312 30.506 33.1184C30.506 33.1184 31.3138 35.1579 33.7918 34.8723L33.824 34.1718Z" fill="#EB996E"/>
<path d="M33.4362 30.3078C33.3703 30.2084 33.2841 30.1312 33.186 30.0835C33.0879 30.0358 32.9812 30.0193 32.8762 30.0357C32.8008 30.0438 32.7276 30.0702 32.6609 30.1132C32.5943 30.1562 32.5356 30.215 32.4884 30.286C32.4429 30.3545 32.416 30.4382 32.4115 30.5257C32.407 30.6131 32.425 30.7001 32.4632 30.7749C32.518 30.8487 32.59 30.9009 32.6699 30.9249C32.7498 30.9489 32.8339 30.9434 32.9112 30.9093C33.0724 30.8405 33.2204 30.7337 33.3466 30.5951C33.3854 30.5626 33.4186 30.5216 33.4446 30.4742C33.4573 30.4516 33.4642 30.425 33.4642 30.3977C33.4642 30.3705 33.4573 30.3438 33.4446 30.3213" fill="#EB996E"/>
<path d="M32.5738 29.6089C32.6298 29.6089 32.6312 30.0507 32.949 30.3649C33.2668 30.679 33.6616 30.6303 33.6644 30.7009C33.6644 30.7294 33.5762 30.7882 33.4096 30.7933C33.1923 30.798 32.9806 30.7106 32.8118 30.5463C32.6502 30.3877 32.5463 30.16 32.522 29.9113C32.5066 29.7147 32.5486 29.6089 32.5738 29.6089Z" fill="#263238"/>
<path d="M32.48 25.5634C32.4464 25.6759 32.1048 25.6238 31.7044 25.6826C31.304 25.7414 30.9792 25.8742 30.926 25.7734C30.9022 25.7263 30.9582 25.6205 31.0884 25.513C31.2622 25.3789 31.4592 25.2941 31.6644 25.265C31.8697 25.2358 32.0777 25.2632 32.2728 25.345C32.4254 25.4239 32.4996 25.5113 32.48 25.5634Z" fill="#263238"/>
<path d="M35.56 25.0108C35.4998 25.1032 35.2646 25.0108 34.9804 25.0108C34.6962 25.0108 34.4582 25.0746 34.4036 24.9772C34.3784 24.9301 34.4162 24.8377 34.5212 24.7487C34.6617 24.6432 34.825 24.5899 34.9907 24.5956C35.1564 24.6013 35.3169 24.6657 35.4522 24.7806C35.56 24.8696 35.5894 24.9654 35.56 25.0108Z" fill="#263238"/>
<path d="M27.2146 32.349C27.5559 32.4318 27.9088 32.416 28.2441 32.303C28.5794 32.1899 28.8875 31.9828 29.1429 31.6987C29.3984 31.4147 29.5939 31.0618 29.7133 30.6692C29.8327 30.2766 29.8727 29.8556 29.8298 29.4409C29.7528 28.7101 29.4252 27.9692 29.6366 27.277C29.9166 26.3648 30.982 26.0842 31.2648 25.172C31.4286 24.6428 31.2816 24.0229 31.4678 23.5038C31.6428 23.0166 32.0712 22.736 32.4884 22.5546C32.9056 22.3731 33.3508 22.2488 33.7008 21.9229C34.0508 21.597 34.2678 20.9821 34.0424 20.5234C32.1934 20.7897 30.3774 21.3192 28.6328 22.101C28.2282 22.2824 27.804 22.5008 27.5646 22.9309C27.3126 23.3878 27.3252 23.9758 27.3462 24.5235C27.4498 27.1914 27.111 29.6895 27.2146 32.3574" fill="#263238"/>
<path d="M26.6252 31.5123C26.6111 31.5098 26.5974 31.5047 26.5846 31.4972C26.5446 31.4805 26.5065 31.4579 26.4712 31.43C26.3348 31.3241 26.2276 31.1722 26.1632 30.9932C26.0572 30.7104 26.0288 30.3945 26.082 30.0911C26.1663 29.6968 26.3195 29.3286 26.5314 29.0108C26.7484 28.6479 27.0242 28.28 27.2118 27.8113C27.3118 27.5731 27.3677 27.3118 27.3756 27.0452C27.3675 26.7623 27.3202 26.4829 27.2356 26.2187C27.1412 25.9329 27.0914 25.6289 27.0886 25.3215C27.1021 24.9927 27.1826 24.6729 27.3229 24.39C27.4632 24.1071 27.6592 23.8697 27.8936 23.6987C28.145 23.5341 28.4238 23.4388 28.7098 23.4198C28.9865 23.4035 29.2606 23.3471 29.526 23.2518C29.7752 23.1386 29.98 22.9174 30.1 22.6319C30.2143 22.351 30.3053 22.0572 30.3716 21.7549C30.4424 21.4648 30.5362 21.1836 30.6516 20.9149C30.8621 20.4056 31.1826 19.9733 31.5798 19.6633C31.9305 19.3987 32.3407 19.2708 32.7544 19.2971C33.097 19.3183 33.4233 19.4789 33.6798 19.7523C33.8709 19.9586 34.0134 20.2217 34.0928 20.5151C34.1444 20.6987 34.1639 20.8932 34.1502 21.0863C34.1473 21.1534 34.1379 21.22 34.1222 21.2845C34.1222 21.2845 34.132 21.2156 34.1362 21.0846C34.1429 20.8944 34.1191 20.7045 34.0662 20.5251C33.9698 20.195 33.7929 19.9073 33.5585 19.6993C33.324 19.4914 33.0429 19.3729 32.7516 19.3592C32.3494 19.338 31.9515 19.4658 31.612 19.7255C31.2255 20.0302 30.9142 20.4537 30.7104 20.9519C30.5973 21.2206 30.5063 21.5019 30.4388 21.7919C30.3704 22.0997 30.2766 22.3985 30.1588 22.6839C30.0939 22.8317 30.0092 22.9656 29.9082 23.0804C29.8037 23.1965 29.6809 23.2862 29.547 23.3442C29.2742 23.4451 28.992 23.5049 28.707 23.5223C28.4314 23.5397 28.1625 23.631 27.9202 23.7894C27.6961 23.9525 27.5087 24.1789 27.3742 24.4489C27.2398 24.7189 27.1624 25.0242 27.1488 25.3383C27.1513 25.6362 27.1987 25.931 27.2888 26.2086C27.3779 26.481 27.4276 26.7696 27.4358 27.062C27.4263 27.3394 27.3671 27.611 27.2622 27.8583C27.0662 28.3388 26.7876 28.6983 26.5692 29.0629C26.3584 29.3717 26.2047 29.7308 26.1184 30.1163C26.0626 30.4096 26.0856 30.7166 26.1842 30.9932C26.2447 31.1695 26.3457 31.3215 26.4754 31.4317C26.5692 31.4888 26.6266 31.5056 26.6252 31.5123Z" fill="#455A64"/>
<path d="M33.8198 18.5579C33.8537 18.5609 33.8867 18.5729 33.9164 18.5931C34.0004 18.6359 34.0791 18.6925 34.1502 18.7611C34.3941 18.9882 34.5557 19.3194 34.6013 19.6858C34.6469 20.0523 34.5731 20.4257 34.3952 20.7284C34.3435 20.8187 34.2823 20.9005 34.2132 20.972C34.1628 21.0224 34.132 21.0443 34.1292 21.0392C34.2081 20.9319 34.2824 20.8197 34.3518 20.7032C34.5095 20.408 34.5728 20.0542 34.5298 19.7073C34.4868 19.3604 34.3405 19.0439 34.118 18.8166C34.0228 18.7235 33.9232 18.6371 33.8198 18.5579Z" fill="#455A64"/>
<path d="M39.305 38.9479C39.3345 38.8446 39.3583 38.7391 39.3764 38.6321C39.4092 38.3388 39.3667 38.0405 39.2546 37.777C39.0819 37.3901 38.8071 37.0829 38.4734 36.9034C38.2781 36.7925 38.0741 36.7053 37.8644 36.643C37.646 36.5758 37.415 36.5203 37.184 36.4296C36.9515 36.3536 36.7372 36.2132 36.5582 36.0197C36.3978 35.8271 36.2941 35.577 36.2628 35.3074C36.225 35.0571 36.2124 34.8202 36.1662 34.6085C36.1248 34.4127 36.0478 34.2302 35.9408 34.0743C35.7842 33.8458 35.5762 33.6761 35.3416 33.5854C35.175 33.5249 35.0756 33.5249 35.0756 33.5148C35.0993 33.512 35.1232 33.512 35.147 33.5148C35.2154 33.5205 35.2834 33.5334 35.35 33.5535C35.5955 33.6347 35.815 33.8027 35.98 34.0356C36.0953 34.1967 36.179 34.3867 36.225 34.5917C36.2754 34.8118 36.2908 35.052 36.33 35.2939C36.3587 35.549 36.4572 35.7853 36.61 35.9659C36.7816 36.1488 36.9862 36.2817 37.2078 36.354C37.4332 36.4414 37.6642 36.4985 37.884 36.5674C38.0965 36.6298 38.3029 36.7187 38.5 36.8328C38.8448 37.0223 39.126 37.3462 39.298 37.7518C39.41 38.0274 39.4463 38.3386 39.4016 38.6405C39.3882 38.721 39.3671 38.7994 39.3386 38.874C39.3295 38.9 39.3183 38.9248 39.305 38.9479Z" fill="#455A64"/>
<path d="M28.5362 33.6863C27.2762 33.2831 26.1982 31.8097 25.7586 30.3431C25.319 28.8765 25.319 27.2754 25.4324 25.7231C25.5136 24.5992 25.6788 23.4097 26.3004 22.563C27.2384 21.2862 28.2604 20.6344 29.6716 20.6881" fill="#263238"/>
<path d="M35.8582 36.9621L34.6892 36.6093C34.8166 36.5042 34.9095 36.3491 34.9519 36.1706C34.9944 35.9922 34.9836 35.8015 34.9216 35.6316C34.8476 35.4137 34.7252 35.2244 34.5676 35.0843C34.4101 34.9441 34.2236 34.8586 34.0284 34.8369L28.7 34.1145C28.6068 34.0996 28.5122 34.1226 28.4312 34.1799C28.3503 34.2372 28.2876 34.3254 28.2534 34.4304C28.0172 35.1516 28.0093 35.7452 28.2296 36.2112H28.2044L27.1768 36.4564L25.4352 54.8928L36.8424 54.2527L35.8582 36.9621Z" fill="#F5F5F5"/>
<path d="M34.181 36.6799C34.111 36.7044 34.0393 36.7213 33.9668 36.7303C33.8268 36.7572 33.6266 36.7857 33.3774 36.816C32.0732 36.9614 30.7584 36.8827 29.4728 36.5825C29.2264 36.5237 29.029 36.4699 28.8932 36.4262C28.8218 36.4096 28.752 36.3849 28.6846 36.3523C28.7569 36.3587 28.8285 36.3727 28.8988 36.3943C29.0388 36.4262 29.2362 36.4716 29.4826 36.522C30.7669 36.7872 32.0733 36.865 33.3732 36.7538C33.6224 36.7337 33.824 36.7118 33.964 36.695C34.0359 36.6832 34.1084 36.6781 34.181 36.6799Z" fill="#263238"/>
<path d="M29.0248 39.6098C29.137 39.3302 29.2706 39.0636 29.4238 38.8135C29.5575 38.5476 29.7117 38.2973 29.8844 38.0659C29.772 38.3458 29.6379 38.6124 29.484 38.8622C29.351 39.1283 29.1972 39.3787 29.0248 39.6098Z" fill="#E0E0E0"/>
<path d="M32.7012 39.9224C32.3454 39.4839 32.0252 39.0058 31.745 38.4944C31.9315 38.7038 32.1012 38.9339 32.2518 39.1815C32.4212 39.4105 32.5717 39.6586 32.7012 39.9224Z" fill="#E0E0E0"/>
<path d="M30.9932 42.2659C30.9127 41.9671 30.855 41.6601 30.821 41.3487C30.7627 41.0425 30.7294 40.7302 30.7216 40.4163C30.8022 40.715 30.8599 41.0221 30.8938 41.3335C30.9504 41.6401 30.9837 41.9522 30.9932 42.2659Z" fill="#E0E0E0"/>
<path d="M33.8002 42.4104C33.6025 42.7054 33.3863 42.9817 33.1534 43.237C32.9371 43.5133 32.703 43.7689 32.4534 44.0014C32.651 43.7063 32.8672 43.43 33.1002 43.1748C33.3174 42.8995 33.5514 42.644 33.8002 42.4104Z" fill="#E0E0E0"/>
<path d="M30.0356 45.5521C29.5197 45.1822 29.0995 44.6478 28.8218 44.0082C28.8414 43.9931 29.0556 44.3963 29.393 44.8213C29.7304 45.2464 30.0496 45.5303 30.0356 45.5521Z" fill="#E0E0E0"/>
<path d="M31.2452 47.978C31.2452 48.0032 30.926 48.1259 30.5564 48.3627C30.1868 48.5996 29.9166 48.8483 29.9026 48.8264C30.0788 48.6 30.2893 48.4159 30.5228 48.2838C30.7449 48.1268 30.9902 48.023 31.2452 47.978Z" fill="#E0E0E0"/>
<path d="M33.2122 48.1342C33.1287 48.0493 33.054 47.9529 32.9896 47.8469C32.8608 47.6621 32.6886 47.3983 32.5094 47.0976C32.3302 46.7969 32.179 46.5163 32.074 46.308C32.0115 46.2003 31.9598 46.0841 31.92 45.9619C31.9945 46.0578 32.0606 46.1625 32.1174 46.2744L32.5696 47.0472L33.0302 47.8099C33.1002 47.91 33.1612 48.0187 33.2122 48.1342Z" fill="#E0E0E0"/>
<path d="M33.4096 50.2041C33.1375 50.3186 32.8559 50.3975 32.5696 50.4393C32.2865 50.5102 31.9978 50.5445 31.7086 50.5418C31.9883 50.4574 32.2721 50.3946 32.5584 50.3536C32.8394 50.2836 33.1237 50.2337 33.4096 50.2041Z" fill="#E0E0E0"/>
<path d="M30.2246 36.4195C30.2148 36.4195 30.282 36.3187 30.3394 36.1406C30.4105 35.9076 30.4316 35.6569 30.401 35.4115C30.3662 35.1642 30.3056 34.9231 30.2204 34.6941C30.1791 34.6004 30.1472 34.5011 30.1252 34.3984C30.1837 34.479 30.2309 34.5703 30.2652 34.6689C30.367 34.8966 30.4366 35.143 30.471 35.398C30.5049 35.6585 30.4752 35.9251 30.3856 36.1658C30.3543 36.2678 30.2982 36.3562 30.2246 36.4195Z" fill="#E0E0E0"/>
<path d="M32.3554 35.0386C32.4552 35.2035 32.5265 35.3907 32.5653 35.5892C32.604 35.7877 32.6092 35.9934 32.5808 36.1944C32.5598 36.1944 32.557 35.9273 32.494 35.6098C32.431 35.2923 32.34 35.052 32.3554 35.0386Z" fill="#E0E0E0"/>
<path d="M41.9664 48.1747L47.2724 36.9909L47.9122 35.0505C47.9122 35.0505 49.567 30.7833 49.6818 30.3465C49.8148 29.8425 50.0486 29.8022 50.1998 29.8727C50.435 29.9853 50.5106 30.4053 50.407 30.8404C50.3706 30.9899 49.728 33.3352 49.728 33.3352C49.9008 33.1565 50.0842 32.9931 50.2768 32.8463C50.6842 32.5103 51.4304 32.5271 52.122 32.8228C52.8136 33.1185 52.9844 33.2747 52.9018 33.6007C52.8835 33.6618 52.8541 33.7173 52.8155 33.763C52.777 33.8086 52.7304 33.8433 52.6792 33.8644C52.5164 33.946 52.3339 33.9508 52.1682 33.8779C51.0566 33.4243 50.5638 34.0257 50.5638 34.0257L50.4812 34.2794C50.4812 34.2794 51.3212 33.9585 51.7916 34.4121C51.8618 34.4787 51.9207 34.5608 51.9652 34.654C52.1174 34.7137 52.254 34.82 52.3615 34.9625C52.469 35.105 52.5436 35.2787 52.5779 35.4664C52.6123 35.6541 52.6052 35.8493 52.5574 36.0327C52.5096 36.2161 52.4228 36.3814 52.3054 36.5121C52.2544 36.5819 52.1869 36.6315 52.1119 36.6543C52.0369 36.6771 51.9579 36.672 51.8854 36.6398C51.8175 36.5843 51.763 36.5084 51.7272 36.4197C51.7044 36.3753 51.6786 36.3332 51.6502 36.2937L51.3338 36.9657C51.3338 36.9657 50.554 38.4273 50.274 39.1111L46.62 50.7921C46.4999 51.1766 46.3171 51.5286 46.0823 51.8274C45.8476 52.1262 45.5656 52.3659 45.2528 52.5325C44.94 52.6991 44.6026 52.7892 44.2605 52.7976C43.9183 52.8059 43.5782 52.7324 43.26 52.5813C42.9166 52.4186 42.6064 52.1694 42.3503 51.8503C42.0941 51.5313 41.8981 51.15 41.7754 50.7321C41.6528 50.3143 41.6064 49.8697 41.6393 49.4285C41.6723 48.9873 41.7838 48.5597 41.9664 48.1747Z" fill="#FFBE9D"/>
<path d="M47.6378 36.9521C47.8254 37.0999 48.0844 36.9991 48.2524 36.8244C48.4204 36.6497 48.5324 36.4095 48.6948 36.2196C49.1666 35.6535 49.9548 35.5997 50.407 35.0067C50.47 34.9243 50.526 34.7983 50.4714 34.7076C50.4168 34.6169 50.316 34.6337 50.232 34.6539L48.0606 35.1696" fill="#FFBE9D"/>
<path d="M48.0606 35.1696C48.1338 35.1299 48.2109 35.1016 48.2902 35.0856C48.44 35.0403 48.6584 34.9815 48.9272 34.9176L49.8736 34.6774L50.1536 34.6085C50.2614 34.5611 50.3804 34.566 50.4854 34.622C50.5154 34.6486 50.538 34.6854 50.5505 34.7276C50.563 34.7698 50.5647 34.8155 50.5554 34.8588C50.5409 34.93 50.5121 34.9958 50.4714 35.0504C50.3982 35.1475 50.316 35.2343 50.2264 35.3091C49.8652 35.6098 49.469 35.7324 49.1526 35.9324C49.0016 36.018 48.8628 36.1313 48.741 36.2684C48.629 36.3977 48.5408 36.5456 48.4484 36.6716C48.3819 36.7827 48.2959 36.8751 48.1965 36.9421C48.0971 37.0091 47.9867 37.0493 47.873 37.0596C47.7064 37.0596 47.6378 36.9605 47.6434 36.9588C47.7163 36.9888 47.7931 37.0031 47.8702 37.0008C47.9734 36.9803 48.072 36.9344 48.1597 36.8658C48.2475 36.7973 48.3224 36.7077 48.3798 36.6027C48.4695 36.4559 48.5652 36.3146 48.6668 36.1793C48.7937 36.0284 48.9397 35.9025 49.0994 35.8064C49.4256 35.5947 49.8204 35.4704 50.1536 35.1848C50.2339 35.1163 50.308 35.0381 50.3748 34.9512C50.4364 34.8689 50.4574 34.7698 50.414 34.7412C50.3706 34.7127 50.274 34.7261 50.1774 34.7496L49.8974 34.8118L48.9454 35.0218C48.6738 35.0789 48.454 35.1226 48.3014 35.1495C48.2225 35.1713 48.1412 35.1781 48.0606 35.1696Z" fill="#EB996E"/>
<path d="M50.4518 34.2826C50.5074 34.1266 50.5928 33.9885 50.701 33.8794C50.8221 33.7703 50.9695 33.7114 51.121 33.7114C51.3113 33.7128 51.5003 33.7502 51.681 33.8223C51.8655 33.897 52.056 33.9488 52.2494 33.9768C52.4117 33.9992 52.576 33.969 52.7254 33.8895C52.7767 33.861 52.8219 33.8186 52.8571 33.7655C52.8924 33.7124 52.9168 33.6502 52.9284 33.5837C52.939 33.537 52.939 33.4877 52.9284 33.4409C52.92 33.4409 52.92 33.4913 52.899 33.5753C52.8836 33.6319 52.8581 33.6838 52.8242 33.7274C52.7904 33.7709 52.749 33.805 52.703 33.8273C52.5604 33.8909 52.4071 33.9116 52.2564 33.8878C52.0686 33.8523 51.8839 33.7961 51.7048 33.7198C51.5178 33.6459 51.322 33.6096 51.1252 33.6123C50.9599 33.6169 50.8007 33.6879 50.673 33.8139C50.5883 33.8985 50.5232 34.0078 50.484 34.1314C50.449 34.2305 50.4462 34.2809 50.4518 34.2826Z" fill="#EB996E"/>
<path d="M50.4448 30.6724C50.3899 30.8227 50.3458 30.9784 50.3132 31.1377C50.2306 31.4603 50.1326 31.8433 50.0234 32.2667C49.9142 32.69 49.8064 33.0697 49.7196 33.3906C49.6689 33.5428 49.63 33.7003 49.6034 33.861C49.673 33.7195 49.7302 33.5697 49.7742 33.4141C49.8666 33.1319 49.9842 32.7421 50.1018 32.2969C50.2194 31.8517 50.3104 31.4569 50.3692 31.1562C50.4085 30.9986 50.4338 30.8364 50.4448 30.6724Z" fill="#EB996E"/>
<path d="M50.7514 34.9848C50.7941 34.9922 50.8375 34.9922 50.8802 34.9848C50.9339 34.9738 50.989 34.9768 51.0417 34.9936C51.0943 35.0105 51.1433 35.0407 51.1854 35.0823C51.2097 35.1131 51.227 35.151 51.2356 35.1922C51.2442 35.2334 51.2438 35.2765 51.2344 35.3175C51.2118 35.4207 51.1784 35.52 51.135 35.6132C51.0789 35.73 51.0605 35.8675 51.0832 35.9996C51.1023 36.0695 51.1348 36.1332 51.1781 36.1854C51.2213 36.2376 51.2742 36.2769 51.3324 36.3003C51.3898 36.3221 51.4504 36.3297 51.5103 36.3225C51.5703 36.3152 51.6283 36.2934 51.681 36.2583C51.779 36.1982 51.8595 36.1039 51.912 35.9878C51.9878 35.7963 52.0396 35.5926 52.066 35.383C52.0864 35.2424 52.0864 35.0986 52.066 34.958C52.0616 34.9051 52.0446 34.855 52.017 34.8135C52.01 34.8135 52.0282 34.8672 52.0352 34.963C52.0412 35.1001 52.0313 35.2374 52.0058 35.3712C51.9726 35.5698 51.918 35.7624 51.8434 35.9441C51.7978 36.0464 51.7253 36.1277 51.6372 36.1755C51.5491 36.2232 51.4503 36.2346 51.3562 36.2079C51.3101 36.19 51.2681 36.1594 51.2336 36.1186C51.199 36.0777 51.173 36.0278 51.1574 35.9727C51.1391 35.8629 51.1545 35.749 51.2008 35.6518C51.2443 35.5501 51.2773 35.4423 51.2988 35.3309C51.3082 35.2776 51.306 35.2223 51.2926 35.1702C51.2791 35.1182 51.2547 35.0711 51.2218 35.0336C51.1731 34.9873 51.1162 34.9554 51.0554 34.9402C50.9947 34.925 50.9318 34.9271 50.8718 34.9462C50.8302 34.9512 50.7895 34.9642 50.7514 34.9848Z" fill="#EB996E"/>
<path d="M51.667 36.161C51.667 36.161 51.6404 36.2047 51.6432 36.2988C51.6472 36.3648 51.6639 36.4287 51.6921 36.4856C51.7203 36.5425 51.7592 36.5907 51.8056 36.6264C51.8774 36.6759 51.9587 36.7019 52.0415 36.7019C52.1243 36.7019 52.2056 36.6759 52.2774 36.6264C52.4501 36.5069 52.5775 36.3118 52.633 36.082C52.694 35.8571 52.694 35.6148 52.633 35.3899C52.5833 35.2081 52.4939 35.0456 52.374 34.9195C52.295 34.8346 52.2033 34.7685 52.1038 34.7246C52.0684 34.7042 52.0296 34.6939 51.9904 34.6944C52.1152 34.7668 52.2311 34.8596 52.3348 34.9699C52.4523 35.1074 52.5353 35.2816 52.5744 35.4729C52.6135 35.6641 52.6071 35.8647 52.556 36.0518C52.506 36.2582 52.3937 36.4349 52.241 36.5474C52.18 36.5903 52.1109 36.6141 52.0401 36.6165C51.9694 36.6188 51.8993 36.5997 51.8364 36.5608C51.7947 36.5316 51.7586 36.4921 51.7306 36.4449C51.7026 36.3977 51.6833 36.3439 51.674 36.287C51.66 36.2131 51.674 36.161 51.667 36.161Z" fill="#EB996E"/>
<path d="M49.9002 37.2159C49.8448 37.171 49.7795 37.147 49.7126 37.1471C49.5418 37.1271 49.3703 37.1762 49.2254 37.2865L49.2856 37.3352C49.3045 37.2243 49.3176 37.1121 49.3248 36.9992C49.3738 36.3507 49.2016 35.8501 49.1848 35.8635C49.2387 36.2356 49.2589 36.6136 49.245 36.9908C49.2382 37.0985 49.2265 37.2056 49.21 37.3117L49.1932 37.4209L49.2702 37.3587C49.4014 37.256 49.5546 37.2011 49.7112 37.2008C49.8274 37.2042 49.8974 37.2277 49.9002 37.2159Z" fill="#EB996E"/>
<path d="M51.0048 33.2309C50.9824 33.2309 51.0132 33.4325 51.1616 33.5871C51.31 33.7417 51.4766 33.7551 51.4766 33.7265C51.4766 33.698 51.3436 33.6493 51.2162 33.5132C51.0888 33.3771 51.0272 33.2209 51.0048 33.2309Z" fill="#EB996E"/>
<path d="M34.44 57.4548L39.991 57.5203L39.06 52.687L39.3722 53.5992C39.66 54.4415 40.15 55.162 40.78 55.669C41.41 56.1761 42.1514 56.4469 42.91 56.4468C44.6656 56.4468 45.8794 54.8794 46.6214 52.9709C48.3574 48.5088 50.0304 41.3235 50.0304 41.3235L46.6466 37.7551C44.1966 43.3159 41.895 48.1443 41.895 48.1443C41.895 48.1443 41.23 45.72 40.7162 43.5562C40.2024 41.3923 40.2066 40.2567 39.4184 39.1781C38.2046 37.5183 36.4784 37.1067 34.8712 36.6094L34.811 45.5873L34.44 57.4548Z" fill="#FAD757"/>
<path d="M28.0882 50.777L38.1962 53.129L38.6876 57.7893H23.1896C22.7653 57.7955 22.3447 57.6956 21.9544 57.4958C21.5642 57.296 21.213 57.0008 20.9231 56.629C20.6333 56.2572 20.4113 55.8169 20.2712 55.3364C20.1311 54.8558 20.0761 54.3455 20.1096 53.8379C20.3322 50.441 20.5744 46.2578 20.7592 44.4887C20.8992 43.1095 21.3612 41.6831 21.903 40.4567C22.6856 38.6894 25.2938 36.4247 27.58 36.3071L28.0126 47.8605" fill="#FAD757"/>
<g opacity="0.4">
<path d="M34.4399 57.4548L39.9909 57.5203L39.0599 52.687L39.3721 53.5992C39.6599 54.4415 40.15 55.162 40.7799 55.669C41.4099 56.1761 42.1514 56.4469 42.9099 56.4468C44.6655 56.4468 45.8793 54.8794 46.6213 52.9709C48.3573 48.5088 50.0303 41.3235 50.0303 41.3235L46.6465 37.7551C44.1965 43.3159 41.8949 48.1443 41.8949 48.1443C41.8949 48.1443 41.2299 45.72 40.7161 43.5562C40.2023 41.3923 40.2065 40.2567 39.4183 39.1781C38.2045 37.5183 36.4783 37.1067 34.8711 36.6094L34.8109 45.5873L34.4399 57.4548Z" fill="black"/>
<path d="M28.0882 50.7769L37.205 52.7828C37.3907 52.8241 37.5621 52.9306 37.6974 53.0888C37.8328 53.247 37.9259 53.4498 37.9652 53.6715L38.6876 57.7993H23.1896C22.7653 57.8056 22.3447 57.7056 21.9544 57.5058C21.5642 57.3061 21.213 57.0108 20.9231 56.639C20.6333 56.2672 20.4113 55.827 20.2712 55.3464C20.1311 54.8658 20.0761 54.3555 20.1096 53.8479C20.3322 50.451 20.5744 46.2678 20.7592 44.4987C20.8992 43.1195 21.3612 41.6931 21.903 40.4667C22.6856 38.6994 25.2938 36.4347 27.58 36.3171L28.0126 47.8705" fill="black"/>
</g>
<path d="M26.1632 50.4309C26.1596 50.394 26.1596 50.3568 26.1632 50.32C26.1632 50.2377 26.1632 50.1318 26.1632 50.0025C26.1632 49.7152 26.1632 49.3187 26.1632 48.8265C26.1632 47.8403 26.1478 46.4745 26.0848 44.9742C26.0526 44.2216 26.012 43.5059 25.9686 42.8574C25.9483 42.2818 25.8803 41.71 25.7656 41.1505C25.6855 40.7771 25.533 40.4317 25.3204 40.1425C25.2381 40.0416 25.1511 39.9463 25.06 39.8569C25.1669 39.9229 25.2639 40.0098 25.347 40.114C25.5736 40.401 25.7368 40.7516 25.8216 41.1337C25.9439 41.6977 26.0171 42.2753 26.04 42.8574C26.0876 43.5076 26.1296 44.2233 26.1618 44.9759C26.2262 46.4879 26.2332 47.847 26.2192 48.8399C26.2108 49.3338 26.1996 49.7337 26.1898 50.0159L26.1744 50.3334C26.1739 50.3663 26.1701 50.399 26.1632 50.4309Z" fill="#263238"/>
<path d="M38.0002 53.465C37.8936 53.3236 37.7694 53.2029 37.632 53.1071C37.4687 53.0003 37.2952 52.9174 37.1154 52.8602C36.9068 52.7879 36.6618 52.7325 36.3916 52.667C35.3108 52.4015 33.8198 52.0336 32.1678 51.659C30.5158 51.2843 29.0122 50.987 27.9244 50.7787L26.635 50.5317L26.285 50.4611C26.2438 50.4551 26.2031 50.445 26.1632 50.4309C26.2045 50.4312 26.2457 50.4356 26.2864 50.4443L26.6392 50.4981C26.9444 50.5468 27.3868 50.6207 27.9314 50.7182C29.022 50.9131 30.527 51.202 32.1804 51.5733C33.8338 51.9446 35.3248 52.3209 36.4014 52.5998C36.6716 52.6703 36.9166 52.7308 37.1266 52.8081C37.3084 52.8698 37.4829 52.959 37.646 53.0736C37.7508 53.1445 37.8453 53.2353 37.926 53.3423C37.9475 53.3689 37.9672 53.3976 37.9848 53.428C37.9946 53.4482 38.0016 53.465 38.0002 53.465Z" fill="#263238"/>
<path d="M26.194 50.4309C26.194 50.446 26.0078 50.4981 25.7194 50.6392C25.551 50.7227 25.3873 50.8192 25.2294 50.9282C25.0384 51.0648 24.8563 51.2187 24.6848 51.3885C24.518 51.562 24.3626 51.7507 24.22 51.953C24.1027 52.1197 23.9951 52.296 23.898 52.4805C23.7328 52.798 23.6572 53.0131 23.6446 53.0063C23.6533 52.9522 23.6679 52.8997 23.688 52.8501C23.7357 52.7121 23.7909 52.578 23.8532 52.4486C23.9467 52.2569 24.052 52.0738 24.1682 51.9009C24.4556 51.4778 24.8071 51.1238 25.2042 50.8576C25.365 50.7487 25.5332 50.656 25.7068 50.5804C25.8236 50.5281 25.9434 50.486 26.0652 50.4544C26.107 50.4394 26.1504 50.4315 26.194 50.4309Z" fill="#263238"/>
<path d="M39.2462 53.3339C39.2365 53.296 39.2295 53.2573 39.2252 53.218C39.214 53.134 39.1986 53.0231 39.1804 52.882C39.1412 52.5913 39.0894 52.1713 39.0306 51.6505C38.913 50.6106 38.7702 49.1692 38.6498 47.5732C38.5294 45.9772 38.458 44.529 38.4188 43.479C38.3992 42.9549 38.388 42.5298 38.3824 42.2358C38.3824 42.0958 38.3824 41.9838 38.3824 41.8998C38.3793 41.8607 38.3793 41.8213 38.3824 41.7822C38.3899 41.8208 38.3937 41.8602 38.3936 41.8998L38.4118 42.2358C38.4272 42.5382 38.4468 42.9599 38.472 43.4757C38.5238 44.524 38.605 45.9705 38.724 47.5648C38.843 49.1591 38.9788 50.6005 39.0838 51.6421C39.1356 52.1562 39.179 52.5745 39.2098 52.8769C39.2224 53.0164 39.2336 53.1273 39.242 53.2129C39.2476 53.2529 39.249 53.2935 39.2462 53.3339Z" fill="#263238"/>
<path d="M42.5978 51.5279C42.5978 51.5279 42.5656 51.4909 42.5166 51.417C42.4488 51.3098 42.3866 51.1976 42.3304 51.081C41.9547 50.3115 41.7815 49.4238 41.8334 48.5341C41.8405 48.4003 41.8554 48.2672 41.8782 48.136C41.8832 48.0869 41.8935 48.0389 41.909 47.9932C41.9216 47.9932 41.895 48.2015 41.8852 48.5375C41.8618 49.4145 42.0308 50.2835 42.3752 51.0575C42.5068 51.3481 42.609 51.5178 42.5978 51.5279Z" fill="#263238"/>
<path d="M26.1226 44.188C26.1226 44.188 26.1044 44.1964 26.0708 44.2014C26.0203 44.2112 25.9693 44.2173 25.9182 44.2199C25.7304 44.2294 25.5423 44.2113 25.3582 44.1662C25.0847 44.1002 24.8177 43.9999 24.5616 43.8671C24.2718 43.7226 23.9638 43.5311 23.6418 43.3446C23.3404 43.163 23.0283 43.008 22.708 42.881C22.4481 42.7762 22.178 42.7124 21.9044 42.6911C21.651 42.6812 21.3977 42.7157 21.1526 42.7936C21.1676 42.7816 21.1842 42.7725 21.2016 42.7667C21.247 42.7429 21.2938 42.7232 21.3416 42.7079C21.5241 42.6492 21.7128 42.6232 21.9016 42.6306C22.1811 42.6411 22.4581 42.6977 22.7248 42.7986C23.0492 42.9239 23.3647 43.0801 23.6684 43.2657C23.9918 43.4572 24.297 43.6454 24.5826 43.7915C24.834 43.9256 25.0956 44.0302 25.3638 44.104C25.6134 44.1652 25.8679 44.1934 26.1226 44.188Z" fill="#FAFAFA"/>
<path d="M27.86 43.7798C27.591 43.878 27.3157 43.9488 27.0368 43.9915C26.7605 44.0637 26.4794 44.1058 26.1968 44.1175C26.4657 44.0192 26.7411 43.9484 27.02 43.9058C27.2962 43.8335 27.5774 43.7913 27.86 43.7798Z" fill="#FAFAFA"/>
<path d="M26.0596 47.385C25.9952 47.4286 25.9271 47.4641 25.8566 47.4909C25.7236 47.553 25.529 47.637 25.2868 47.7311C24.6535 47.975 24.007 48.1669 23.352 48.3057C22.9684 48.3863 22.6002 48.4451 22.2642 48.4854C21.9662 48.5316 21.665 48.5412 21.3654 48.514C21.1622 48.4943 20.9642 48.4263 20.783 48.314C20.7337 48.2833 20.6869 48.2473 20.643 48.2065C20.6269 48.1933 20.6123 48.1774 20.5996 48.1595C20.5996 48.1595 20.6668 48.2116 20.7942 48.2838C20.9757 48.3821 21.1708 48.4391 21.3696 48.4518C21.6656 48.4702 21.9623 48.4545 22.2558 48.4048C22.5904 48.3594 22.9558 48.2989 23.338 48.2183C23.99 48.0796 24.635 47.8973 25.27 47.6723C25.5136 47.5849 25.7096 47.5043 25.8454 47.4589C25.9152 47.428 25.9868 47.4033 26.0596 47.385Z" fill="#FAFAFA"/>
<path d="M27.8138 48.2704C27.5615 48.3185 27.3061 48.3382 27.0508 48.3292C26.7963 48.3484 26.5408 48.3389 26.2878 48.3006C26.54 48.2526 26.7955 48.2329 27.0508 48.2418C27.3053 48.2226 27.5608 48.2321 27.8138 48.2704Z" fill="#FAFAFA"/>
<path d="M20.6094 55.9244C20.611 55.8934 20.6162 55.8629 20.6248 55.8337C20.6388 55.7665 20.6584 55.6841 20.6808 55.5817L20.7228 55.4002C20.741 55.3347 20.7648 55.2658 20.7872 55.1902C20.8375 55.0186 20.8955 54.8504 20.9608 54.6862L21.0742 54.3989C21.1148 54.2981 21.1666 54.2007 21.2142 54.0965C21.3198 53.8762 21.4347 53.6626 21.5586 53.4565C22.1305 52.5076 22.8762 51.7288 23.7384 51.1801C23.9259 51.0612 24.1184 50.954 24.3152 50.8592C24.409 50.8172 24.4958 50.7685 24.584 50.7349L24.8374 50.6391C24.9825 50.5836 25.1303 50.5382 25.2798 50.503C25.3456 50.4862 25.4058 50.4677 25.4618 50.456L25.6186 50.4308L25.8342 50.3989C25.8592 50.3944 25.8847 50.3944 25.9098 50.3989C25.8859 50.4098 25.861 50.4172 25.8356 50.4207L25.6228 50.4694L25.4688 50.5013L25.2882 50.5551C25.1594 50.5971 25.0082 50.6324 24.8528 50.7029L24.6036 50.8037C24.5168 50.839 24.43 50.8877 24.339 50.9314C24.1451 51.028 23.9554 51.1362 23.7706 51.2557C23.3496 51.5351 22.9532 51.8649 22.5876 52.2401C22.2264 52.6226 21.8981 53.0475 21.6076 53.5085C21.4816 53.7269 21.357 53.9319 21.2618 54.1385C21.2128 54.241 21.161 54.3368 21.1218 54.4359L21.0042 54.7181C20.9244 54.8962 20.8754 55.0676 20.8222 55.2221C20.7984 55.2961 20.7732 55.3649 20.7536 55.4288L20.7046 55.6069L20.636 55.8538C20.6293 55.8784 20.6204 55.9021 20.6094 55.9244Z" fill="#FAFAFA"/>
<path d="M27.6304 50.7634C27.3962 51.0075 27.2016 51.3014 27.0564 51.6303C26.9037 51.9899 26.7952 52.3741 26.7344 52.771C26.662 53.2593 26.6152 53.7525 26.5944 54.2477C26.5769 54.7467 26.5302 55.2435 26.4544 55.7345C26.3858 56.1371 26.2674 56.525 26.103 56.8853C25.9932 57.1269 25.8513 57.3454 25.683 57.5321C25.6371 57.5832 25.588 57.6298 25.536 57.6716C25.501 57.7001 25.4814 57.7153 25.48 57.7119C25.7184 57.4732 25.917 57.1825 26.0652 56.8551C26.2203 56.4976 26.3316 56.1151 26.3956 55.7194C26.4701 55.2316 26.5169 54.7382 26.5356 54.2427C26.5538 53.7433 26.6005 53.2459 26.6756 52.7542C26.7408 52.3517 26.8559 51.9632 27.0172 51.6017C27.1272 51.3579 27.269 51.1367 27.4372 50.9465C27.4812 50.8959 27.528 50.8488 27.5772 50.8054C27.5934 50.7888 27.6112 50.7747 27.6304 50.7634Z" fill="#FAFAFA"/>
<path d="M30.0202 57.8177C30.0006 57.8177 30.0202 56.3695 30.072 54.5854C30.1238 52.8012 30.177 51.3547 30.1966 51.3547C30.2162 51.3547 30.1966 52.8029 30.1448 54.5887C30.093 56.3746 30.0398 57.8194 30.0202 57.8177Z" fill="#FAFAFA"/>
<path d="M33.8198 57.5692C33.7934 57.5019 33.7728 57.4315 33.7582 57.3592C33.7355 57.2764 33.7163 57.1923 33.7008 57.1072C33.6826 57.0081 33.6574 56.8955 33.642 56.7712C33.5984 56.4748 33.5736 56.1749 33.5678 55.8741C33.554 55.1348 33.6488 54.3983 33.8478 53.6985C33.9289 53.4134 34.0276 53.136 34.1432 52.8686C34.1894 52.7526 34.2412 52.6552 34.2832 52.5678C34.3188 52.4918 34.358 52.4183 34.4008 52.3478C34.432 52.2836 34.4691 52.2239 34.5114 52.1697C34.524 52.1781 34.3714 52.4385 34.188 52.8971C34.0792 53.1647 33.9856 53.4409 33.908 53.7237C33.7162 54.4164 33.6216 55.1425 33.628 55.8724C33.6312 56.1698 33.6503 56.4667 33.6854 56.7611C33.7554 57.2618 33.8338 57.5642 33.8198 57.5692Z" fill="#FAFAFA"/>
<path d="M27.3672 39.0017C27.3672 39.0152 27.146 38.8993 26.782 38.7581C25.8339 38.3909 24.8291 38.2841 23.842 38.4457C23.464 38.5078 23.233 38.5784 23.2302 38.5633C23.2804 38.5342 23.3336 38.5133 23.3884 38.5011C23.5348 38.4525 23.6835 38.4138 23.8336 38.3852C24.8282 38.1869 25.8485 38.295 26.7988 38.6993C26.9415 38.7598 27.0817 38.8287 27.2188 38.906C27.2713 38.9304 27.3212 38.9626 27.3672 39.0017Z" fill="#FAFAFA"/>
<path d="M38.4272 46.0728C38.2541 46.0836 38.0805 46.0802 37.9078 46.0627C37.5872 46.0476 37.1448 46.0274 36.6562 46.014C36.1676 46.0005 35.7252 45.9921 35.4046 45.9888C35.2312 45.9954 35.0577 45.9881 34.8852 45.9669C34.9311 45.9539 34.978 45.9472 35.0252 45.9468C35.1148 45.9468 35.245 45.9317 35.406 45.9266C35.7266 45.9149 36.169 45.9115 36.659 45.9266C37.149 45.9417 37.5914 45.972 37.919 46.0039C38.0786 46.019 38.2074 46.0325 38.297 46.0459C38.3411 46.0493 38.3847 46.0583 38.4272 46.0728Z" fill="#FAFAFA"/>
<path d="M41.1908 45.436C41.1908 45.4512 41.0158 45.5234 40.7428 45.6847C40.0286 46.1062 39.4237 46.7532 38.9928 47.5562C38.8276 47.8636 38.7478 48.0686 38.7366 48.0602C38.7444 48.0071 38.7595 47.956 38.7814 47.909C38.8304 47.7755 38.8865 47.6458 38.9494 47.5209C39.1547 47.1055 39.4126 46.7309 39.7138 46.4104C40.0141 46.089 40.3535 45.8245 40.7204 45.6259C40.831 45.5661 40.9447 45.5145 41.0606 45.4713C41.1025 45.4528 41.1463 45.4409 41.1908 45.436Z" fill="#FAFAFA"/>
<path d="M39.8272 40.0518C39.5861 40.0419 39.3455 40.0823 39.116 40.1711C38.8682 40.2749 38.628 40.403 38.3978 40.5542C38.1136 40.7432 37.8167 40.9034 37.5102 41.033C36.9437 41.2508 36.3411 41.2975 35.756 41.169C35.5801 41.1307 35.4073 41.0745 35.2394 41.001C35.1766 40.9774 35.116 40.9459 35.0588 40.907C35.0588 40.8902 35.322 41.0229 35.7588 41.1086C36.3358 41.2167 36.9258 41.162 37.4822 40.949C37.7852 40.8203 38.0795 40.6642 38.3628 40.4819C38.5971 40.3327 38.8422 40.209 39.095 40.1123C39.2669 40.0468 39.4466 40.0156 39.627 40.0199C39.6739 40.0216 39.7207 40.0272 39.767 40.0367C39.8104 40.0434 39.8286 40.0485 39.8272 40.0518Z" fill="#FAFAFA"/>
<path d="M39.1286 51.3112C39.0778 51.3499 39.0233 51.3809 38.9662 51.4036C38.913 51.4304 38.8472 51.4624 38.7688 51.4926C38.6904 51.5228 38.6022 51.5632 38.5028 51.5934C38.2684 51.6718 38.0298 51.7313 37.7888 51.7715C37.4936 51.8174 37.1959 51.8359 36.8984 51.8269C36.6009 51.8136 36.3047 51.7738 36.0122 51.7076C35.7748 51.6501 35.5409 51.5732 35.3122 51.4775C35.2128 51.4405 35.1274 51.3952 35.0518 51.3582C34.9762 51.3212 34.9118 51.286 34.8586 51.2557C34.8029 51.2279 34.7498 51.193 34.7004 51.1516C34.7004 51.1364 34.937 51.2708 35.329 51.4187C35.5585 51.5053 35.7923 51.5749 36.029 51.627C36.608 51.7556 37.2001 51.7772 37.7846 51.6908C38.0232 51.6556 38.2598 51.6029 38.493 51.5329C38.8878 51.412 39.1244 51.296 39.1286 51.3112Z" fill="#FAFAFA"/>
<path d="M42.3458 56.284C42.3258 56.2688 42.3074 56.2508 42.2911 56.2302C42.2589 56.1916 42.2057 56.1395 42.1511 56.0622C41.9821 55.8452 41.8337 55.6063 41.7088 55.3499C41.3047 54.4908 41.0898 53.5224 41.0844 52.5359C41.0853 51.5564 41.1921 50.5811 41.4022 49.6346C41.4778 49.2717 41.5422 48.9794 41.594 48.7794C41.6178 48.687 41.6374 48.6114 41.6528 48.5493C41.6682 48.4871 41.6752 48.4686 41.678 48.4703C41.6777 48.4983 41.6739 48.526 41.6668 48.5526C41.6556 48.6165 41.6402 48.6938 41.622 48.7878C41.58 49.0046 41.5226 49.2918 41.4526 49.6497C41.2593 50.5931 41.1611 51.561 41.16 52.5326C41.1645 53.5032 41.3668 54.4577 41.7494 55.313C41.8693 55.5692 42.01 55.8106 42.1694 56.0337C42.28 56.195 42.35 56.2773 42.3458 56.284Z" fill="#FAFAFA"/>
<path d="M47.4404 50.5786C47.2167 50.3657 46.9669 50.1957 46.6998 50.0746C46.4076 49.9534 46.1081 49.8596 45.8038 49.7941C45.4258 49.7176 45.0519 49.6149 44.6838 49.4866C44.0191 49.2273 43.4125 48.7894 42.91 48.2065C42.7584 48.0306 42.618 47.8413 42.49 47.6403C42.4438 47.5698 42.413 47.511 42.3906 47.4723C42.3682 47.4337 42.3584 47.4118 42.3612 47.4102C42.4153 47.4756 42.4658 47.5452 42.5124 47.6185C42.6467 47.8103 42.7912 47.9916 42.945 48.1611C43.4497 48.7231 44.0501 49.1467 44.7048 49.4026C45.0691 49.5302 45.4387 49.6345 45.8122 49.7151C46.119 49.7857 46.4206 49.8863 46.7138 50.0158C46.9119 50.1057 47.0977 50.2302 47.2654 50.3854C47.3112 50.4267 47.3543 50.4722 47.3942 50.5215C47.4292 50.5585 47.4432 50.577 47.4404 50.5786Z" fill="#FAFAFA"/>
<path d="M49.042 44.9724C48.988 44.9261 48.9379 44.8738 48.8922 44.8162C48.846 44.7641 48.79 44.7002 48.72 44.6297C48.65 44.5591 48.58 44.4751 48.4848 44.3945C48.278 44.1943 48.061 44.0097 47.8352 43.8418C47.2813 43.4306 46.6791 43.1215 46.0488 42.9245C45.7912 42.8449 45.5298 42.7838 45.2662 42.7414C45.1542 42.7195 45.052 42.7111 44.9624 42.701C44.8728 42.691 44.7944 42.6826 44.7314 42.6792C44.6652 42.6789 44.5991 42.6716 44.534 42.6574C44.5993 42.6452 44.6654 42.6413 44.7314 42.6456C44.8093 42.6409 44.8873 42.6409 44.9652 42.6456C45.0548 42.6456 45.1598 42.654 45.2732 42.6725C45.5397 42.7075 45.8039 42.7636 46.0642 42.8405C46.3831 42.9386 46.6957 43.0643 46.9994 43.2168C47.3006 43.3744 47.5917 43.5586 47.8702 43.7678C48.0967 43.9412 48.3132 44.1326 48.5184 44.3407C48.608 44.4264 48.6808 44.5087 48.748 44.5894C48.8054 44.652 48.8601 44.7182 48.9118 44.7876C48.9606 44.8434 49.0042 44.9054 49.042 44.9724Z" fill="#FAFAFA"/>
<path d="M36.792 37.2613C36.7098 37.3271 36.6202 37.3786 36.526 37.4142C36.3051 37.5181 36.0782 37.6024 35.847 37.6662C35.6167 37.7313 35.3827 37.7762 35.147 37.8006C35.0495 37.8183 34.9504 37.8183 34.853 37.8006C34.853 37.7737 35.2968 37.73 35.833 37.5772C36.3692 37.4243 36.7836 37.2361 36.792 37.2613Z" fill="#FAFAFA"/>
<path d="M41.7578 60.9224C41.776 60.9973 41.7782 61.0765 41.7643 61.1528C41.7504 61.2291 41.7208 61.2999 41.6782 61.3589C41.6356 61.4179 41.5813 61.4631 41.5204 61.4905C41.4594 61.5178 41.3938 61.5264 41.3294 61.5154C41.2547 61.5027 41.1847 61.4642 41.128 61.4045C41.0713 61.3448 41.0304 61.2666 41.0102 61.1794L40.8912 60.6519H40.9094C40.9215 60.7281 40.9184 60.8066 40.9002 60.881C40.882 60.9555 40.8494 61.0236 40.8049 61.0799C40.7605 61.1362 40.7055 61.179 40.6446 61.2048C40.5836 61.2306 40.5184 61.2386 40.4544 61.2281C40.271 61.2281 40.1128 60.9072 40.0596 60.7376C39.9211 60.7537 39.7817 60.724 39.6563 60.6517C39.5309 60.5795 39.4244 60.4674 39.3484 60.3276L38.5266 58.7888L37.0048 57.4532L37.926 53.5068L41.2006 56.0504C41.3294 56.1713 41.349 56.2184 41.5534 56.4485L43.6674 58.782C43.428 58.95 43.225 58.9416 42.8918 58.782C42.5586 58.6224 41.0998 57.438 41.0998 57.438L41.7578 60.9072" fill="#FFBE9D"/>
<path d="M38.9564 57.6768C38.9564 57.6768 38.9942 57.6969 39.053 57.7456L39.1622 57.8364C39.2141 57.8754 39.2612 57.9229 39.3022 57.9775C39.3506 58.0443 39.3886 58.1212 39.4142 58.2043C39.4394 58.2933 39.466 58.384 39.494 58.4798L39.6732 59.1115C39.7978 59.5617 39.907 59.9683 39.9826 60.2656C40.0304 60.4233 40.0665 60.5858 40.0904 60.7512C40.0268 60.6013 39.9743 60.445 39.9336 60.2841C39.8454 59.9918 39.7278 59.5886 39.6032 59.14C39.543 58.9166 39.4842 58.7032 39.4296 58.5067C39.4044 58.4092 39.3806 58.3168 39.3568 58.2295C39.3358 58.1525 39.3041 58.0803 39.263 58.0161C39.2275 57.9636 39.1871 57.9163 39.1426 57.875L39.0418 57.7725C38.9816 57.7154 38.9536 57.6818 38.9564 57.6768Z" fill="#EB996E"/>
<path d="M40.9262 60.7425C40.9053 60.6889 40.8898 60.6325 40.88 60.5745L40.775 60.1243C40.6854 59.7446 40.5664 59.2188 40.4138 58.6459C40.2612 58.073 40.1016 57.5623 39.9098 57.2465C39.8382 57.1203 39.7475 57.0114 39.6424 56.9256C39.5654 56.8685 39.5164 56.8517 39.5178 56.8416C39.5307 56.8412 39.5436 56.8441 39.5556 56.85C39.5905 56.8607 39.6243 56.8759 39.6564 56.8953C39.7726 56.9732 39.8734 57.0804 39.9518 57.2095C40.1604 57.5287 40.3284 58.0495 40.4824 58.619C40.6364 59.1885 40.7484 59.7245 40.824 60.1092C40.8618 60.3007 40.8898 60.4569 40.908 60.5661C40.9214 60.6235 40.9276 60.683 40.9262 60.7425Z" fill="#EB996E"/>
<path d="M41.7718 60.9812C41.7465 60.9256 41.7273 60.8663 41.7144 60.8048C41.6794 60.6704 41.636 60.5074 41.5842 60.3142C41.4778 59.8993 41.3364 59.3247 41.1838 58.6897C41.0312 58.0546 40.9038 57.4969 40.7988 57.0601C40.7626 56.8982 40.6841 56.7545 40.5748 56.6502C40.5305 56.6159 40.4836 56.5867 40.4348 56.5628C40.4486 56.5588 40.463 56.5588 40.4768 56.5628C40.5161 56.5734 40.5535 56.5922 40.5874 56.6182C40.7097 56.719 40.7999 56.8665 40.8436 57.0366C40.9584 57.4515 41.0942 58.0261 41.2496 58.6611C41.405 59.2962 41.5366 59.8758 41.6304 60.2941C41.6724 60.489 41.7088 60.6553 41.7368 60.7981C41.7538 60.8575 41.7655 60.9189 41.7718 60.9812Z" fill="#EB996E"/>
<path d="M61.6658 24.5502C61.6658 24.6665 61.6945 24.7801 61.7483 24.8768C61.8022 24.9735 61.8787 25.0489 61.9683 25.0934C62.0578 25.1379 62.1563 25.1495 62.2514 25.1269C62.3464 25.1042 62.4337 25.0482 62.5023 24.9659C62.5708 24.8837 62.6174 24.7789 62.6364 24.6649C62.6553 24.5508 62.6456 24.4326 62.6085 24.3251C62.5714 24.2177 62.5086 24.1259 62.428 24.0613C62.3474 23.9966 62.2527 23.9622 62.1558 23.9622C62.0258 23.9622 61.9012 24.0241 61.8093 24.1344C61.7174 24.2447 61.6658 24.3942 61.6658 24.5502Z" fill="#455A64"/>
<path d="M60.1944 25.1382C60.465 25.1382 60.6844 24.8749 60.6844 24.5502C60.6844 24.2254 60.465 23.9622 60.1944 23.9622C59.9238 23.9622 59.7044 24.2254 59.7044 24.5502C59.7044 24.8749 59.9238 25.1382 60.1944 25.1382Z" fill="#455A64"/>
<path d="M57.7486 24.2563C57.7001 24.357 57.6776 24.4727 57.6839 24.5888C57.6902 24.7048 57.725 24.8161 57.784 24.9083C57.843 25.0006 57.9235 25.0699 58.0153 25.1073C58.107 25.1447 58.206 25.1486 58.2996 25.1185C58.3932 25.0884 58.4773 25.0257 58.5412 24.9383C58.6051 24.8508 58.646 24.7426 58.6587 24.6273C58.6713 24.512 58.6552 24.3948 58.6123 24.2904C58.5694 24.1861 58.5018 24.0994 58.4178 24.0413C58.3621 24.0025 58.3006 23.9772 58.2368 23.967C58.173 23.9568 58.1081 23.9619 58.046 23.9819C57.9838 24.0019 57.9255 24.0364 57.8745 24.0835C57.8234 24.1306 57.7807 24.1893 57.7486 24.2563Z" fill="#455A64"/>
<path d="M60.1636 17.6807C60.131 17.6778 60.0982 17.6778 60.0656 17.6807L59.7744 17.6908C59.71 17.6908 59.6344 17.6908 59.5588 17.7026L59.3026 17.7463L59.003 17.7983L58.667 17.8975C58.0914 18.0689 57.5433 18.3527 57.0444 18.7375C56.3066 19.3012 55.6859 20.0599 55.2297 20.9555C54.7735 21.8512 54.494 22.8601 54.4124 23.9051C54.3904 24.2186 54.3852 24.5334 54.397 24.8476C54.4068 25.0055 54.404 25.1685 54.4236 25.3281C54.4432 25.4877 54.4642 25.6507 54.4838 25.8136C54.5864 26.4813 54.7703 27.1272 55.0298 27.7305C55.3061 28.3626 55.6574 28.9432 56.0728 29.4542C56.5154 29.9764 57.0226 30.4133 57.5764 30.7495C58.1495 31.1014 58.7699 31.3289 59.409 31.4215C59.5708 31.4504 59.734 31.4667 59.8976 31.4702C60.062 31.485 60.227 31.489 60.3918 31.4819C60.7242 31.4655 61.0548 31.4155 61.3802 31.3324C62.0826 31.1498 62.7506 30.812 63.35 30.3362L63.2912 30.3446L65.2974 31.3106L65.4164 31.3677L65.3828 31.2199L64.792 28.6461L64.7822 28.7083C65.3268 27.8429 65.6937 26.8356 65.8532 25.7683C65.93 25.2699 65.9563 24.7622 65.9316 24.2563C65.9268 24.0136 65.9076 23.7716 65.8742 23.5322C65.8593 23.4135 65.8439 23.2959 65.828 23.1794C65.8112 23.0635 65.7818 22.9509 65.758 22.8434C65.4219 21.2606 64.628 19.8727 63.518 18.9273C63.1084 18.5754 62.6604 18.2928 62.1866 18.0873L61.8856 17.9579L61.6056 17.8706L61.3452 17.7933C61.2612 17.7748 61.18 17.7647 61.1044 17.7496C60.9532 17.7278 60.8244 17.6959 60.7026 17.6891L60.4086 17.6774H60.228C60.2075 17.6756 60.1869 17.6756 60.1664 17.6774C60.1863 17.685 60.2071 17.6884 60.228 17.6875L60.4072 17.7059L60.6998 17.7295C60.816 17.7395 60.9476 17.7748 61.0988 17.8017C62.1879 18.0288 63.1986 18.6303 64.0082 19.5333C64.8179 20.4363 65.3917 21.602 65.66 22.8887C65.681 22.9996 65.7104 23.1105 65.7272 23.2247C65.744 23.339 65.7552 23.4532 65.7706 23.5708C65.8026 23.8058 65.8204 24.0433 65.8238 24.2815C65.8458 24.7758 65.8186 25.2716 65.7426 25.7582C65.58 26.8022 65.2161 27.786 64.68 28.631L64.6618 28.6595L64.6702 28.6948C64.8569 29.5259 65.0519 30.3843 65.2554 31.2703L65.3408 31.1795L63.3346 30.2102L63.3038 30.1951L63.2744 30.2169C62.414 30.901 61.4134 31.2881 60.382 31.3358C60.221 31.3425 60.0597 31.3392 59.899 31.3257C59.7391 31.3222 59.5797 31.3059 59.4216 31.277C58.7967 31.1862 58.1901 30.9639 57.6296 30.6201C57.0877 30.2911 56.591 29.8645 56.1568 29.3551C55.7496 28.8572 55.4044 28.2914 55.132 27.6751C54.8792 27.0829 54.7 26.4496 54.6 25.7951C54.579 25.6271 54.558 25.4776 54.5384 25.3197C54.5188 25.1618 54.5216 25.0039 54.5118 24.8476C54.4987 24.5397 54.5024 24.231 54.523 23.9236C54.5993 22.8949 54.8697 21.9006 55.3139 21.016C55.758 20.1314 56.3642 19.3798 57.0864 18.8181C57.5767 18.429 58.1161 18.1374 58.6838 17.9546L59.0142 17.8487L59.311 17.7899L59.5658 17.7395C59.6442 17.7295 59.7156 17.7261 59.7786 17.7211L60.0684 17.6959C60.1005 17.6948 60.1324 17.6898 60.1636 17.6807Z" fill="#455A64"/>
</svg>
