<svg width="27" height="30" viewBox="0 0 27 30" fill="none" xmlns="http://www.w3.org/2000/svg">
<path d="M5.61515 7.39201L5.71146 9.01784L16.6893 19.5593L18.097 17.8444L7.11919 7.30291L5.61515 7.39201ZM3.36904 5.23519L7.85477 4.96946L22.6527 19.206C22.8597 19.4227 23.0242 19.6658 23.146 19.9353C23.2679 20.2048 23.3379 20.4917 23.3559 20.7959C23.3739 21.1002 23.3386 21.398 23.25 21.6895C23.1613 21.981 23.0176 22.2376 22.8189 22.4593L21.4342 24.1156C21.2542 24.3552 21.0354 24.5352 20.7777 24.6554C20.5201 24.7756 20.2593 24.8435 19.9954 24.8591C19.714 24.8758 19.4426 24.8394 19.1813 24.7499C18.9201 24.6605 18.6771 24.5079 18.4525 24.2922L3.65629 10.0842L3.36904 5.23519ZM17.3791 18.6883L18.097 17.8444L16.6893 19.5593L17.3791 18.6883Z" fill="#263238"/>
</svg>
