<svg width="20" height="21" viewBox="0 0 20 21" fill="none" xmlns="http://www.w3.org/2000/svg">
<path d="M1.66667 21C1.66667 21 0 21 0 19.25C0 17.5 1.66667 12.25 10 12.25C18.3333 12.25 20 17.5 20 19.25C20 21 18.3333 21 18.3333 21H1.66667ZM10 10.5C11.3261 10.5 12.5979 9.94688 13.5355 8.96231C14.4732 7.97774 15 6.64239 15 5.25C15 3.85761 14.4732 2.52226 13.5355 1.53769C12.5979 0.553124 11.3261 0 10 0C8.67392 0 7.40215 0.553124 6.46447 1.53769C5.52678 2.52226 5 3.85761 5 5.25C5 6.64239 5.52678 7.97774 6.46447 8.96231C7.40215 9.94688 8.67392 10.5 10 10.5Z" fill="#FCE389" fill-opacity="0.5"/>
</svg>
