<svg width="27" height="28" viewBox="0 0 27 28" fill="none" xmlns="http://www.w3.org/2000/svg">
<path d="M13.5 12.8333C14.432 12.8333 15.1875 12.0498 15.1875 11.0833C15.1875 10.1168 14.432 9.33331 13.5 9.33331C12.568 9.33331 11.8125 10.1168 11.8125 11.0833C11.8125 12.0498 12.568 12.8333 13.5 12.8333Z" fill="#FCE389" fill-opacity="0.5"/>
<path d="M13.5 2.33331C11.1286 2.33319 8.85291 3.3037 7.16765 5.0339C5.48238 6.76411 4.52371 9.11417 4.5 11.5733C4.5 17.9666 12.4313 25.0833 12.7688 25.3866C12.9725 25.5674 13.2319 25.6667 13.5 25.6667C13.7681 25.6667 14.0275 25.5674 14.2312 25.3866C14.625 25.0833 22.5 17.9666 22.5 11.5733C22.4763 9.11417 21.5176 6.76411 19.8324 5.0339C18.1471 3.3037 15.8714 2.33319 13.5 2.33331ZM13.5 15.1666C12.7212 15.1666 11.96 14.9272 11.3124 14.4785C10.6649 14.0298 10.1602 13.3921 9.86222 12.6459C9.5642 11.8998 9.48623 11.0788 9.63816 10.2867C9.79009 9.4946 10.1651 8.76702 10.7158 8.19596C11.2664 7.6249 11.968 7.236 12.7318 7.07844C13.4956 6.92088 14.2873 7.00175 15.0068 7.3108C15.7263 7.61986 16.3413 8.14323 16.7739 8.81473C17.2066 9.48623 17.4375 10.2757 17.4375 11.0833C17.4375 12.1663 17.0227 13.2049 16.2842 13.9707C15.5458 14.7364 14.5443 15.1666 13.5 15.1666Z" fill="#FCE389" fill-opacity="0.5"/>
</svg>
