<svg width="50" height="54" viewBox="0 0 50 54" fill="none" xmlns="http://www.w3.org/2000/svg">
<path d="M20.7387 27.3809C20.1844 27.3809 19.6527 27.1482 19.2608 26.7341C18.8688 26.3199 18.6486 25.7582 18.6486 25.1725C18.6486 22.8449 17.2273 20.7559 16.5585 20.7559C15.8897 20.7559 14.4684 22.8449 14.4684 25.1725C14.4684 25.7582 14.2482 26.3199 13.8562 26.7341C13.4643 27.1482 12.9326 27.3809 12.3783 27.3809C11.824 27.3809 11.2924 27.1482 10.9004 26.7341C10.5084 26.3199 10.2882 25.7582 10.2882 25.1725C10.2882 20.9944 12.8632 16.3392 16.5585 16.3392C20.2538 16.3392 22.8288 20.9944 22.8288 25.1725C22.8288 25.7582 22.6086 26.3199 22.2166 26.7341C21.8246 27.1482 21.293 27.3809 20.7387 27.3809ZM39.5495 25.1725C39.5495 20.9944 36.9745 16.3392 33.2793 16.3392C29.584 16.3392 27.009 20.9944 27.009 25.1725C27.009 25.7582 27.2292 26.3199 27.6211 26.7341C28.0131 27.1482 28.5447 27.3809 29.0991 27.3809C29.6534 27.3809 30.185 27.1482 30.577 26.7341C30.969 26.3199 31.1892 25.7582 31.1892 25.1725C31.1892 22.8449 32.6104 20.7559 33.2793 20.7559C33.9481 20.7559 35.3693 22.8449 35.3693 25.1725C35.3693 25.7582 35.5895 26.3199 35.9815 26.7341C36.3735 27.1482 36.9051 27.3809 37.4594 27.3809C38.0138 27.3809 38.5454 27.1482 38.9374 26.7341C39.3293 26.3199 39.5495 25.7582 39.5495 25.1725ZM50 27.3809C49.9928 20.355 47.348 13.619 42.646 8.65092C37.9439 3.68286 31.5686 0.888458 24.9189 0.880859C-8.31361 2.20586 -8.29897 52.5559 24.9189 53.8809C31.5686 53.8733 37.9439 51.0789 42.646 46.1108C47.348 41.1427 49.9928 34.4068 50 27.3809ZM45.8198 27.3809C45.8137 33.2357 43.6097 38.849 39.6913 42.989C35.773 47.1291 30.4603 49.4578 24.9189 49.4642C-2.77277 48.36 -2.76232 6.40169 24.9189 5.29753C30.4603 5.30396 35.773 7.63265 39.6913 11.7727C43.6097 15.9127 45.8137 21.526 45.8198 27.3809ZM36.7613 35.6533C37.1608 35.2598 37.3986 34.7168 37.4239 34.1403C37.4492 33.5639 37.26 33 36.8967 32.5691C36.5335 32.1382 36.025 31.8747 35.4802 31.8349C34.9354 31.7952 34.3974 31.9823 33.9815 32.3562C31.5211 34.7778 28.2835 36.1242 24.921 36.1242C21.5584 36.1242 18.3208 34.7778 15.8604 32.3562C15.4469 31.9662 14.9036 31.7656 14.3502 31.7988C13.7967 31.8319 13.2784 32.096 12.9092 32.5329C12.54 32.9698 12.3502 33.5438 12.3816 34.1286C12.4129 34.7133 12.6629 35.261 13.0764 35.6511C16.3949 38.6475 20.5591 40.3986 24.9189 40.6309C29.2784 40.3992 33.4426 38.6489 36.7613 35.6533Z" fill="#FCE389"/>
</svg>
