<svg width="43" height="30" viewBox="0 0 43 30" fill="none" xmlns="http://www.w3.org/2000/svg">
<path d="M35.6513 30H24.4612C24.2723 30 24.0911 29.9441 23.9576 29.8447C23.8241 29.7453 23.7492 29.6104 23.7492 29.4698V21.0968H18.7096V29.4523C18.7096 29.5929 18.6347 29.7278 18.5011 29.8272C18.3676 29.9267 18.1864 29.9825 17.9975 29.9825H6.85438C6.66552 29.9825 6.48432 29.9267 6.35078 29.8272C6.21723 29.7278 6.14235 29.5929 6.14235 29.4523V13.7552H1.1654C1.02022 13.7548 0.878767 13.7213 0.759813 13.6594C0.640859 13.5974 0.55003 13.5098 0.499799 13.4084C0.449568 13.307 0.442157 13.1965 0.478593 13.0919C0.515028 12.9872 0.593558 12.8934 0.703645 12.8229L6.90921 8.89574V3.06904C6.90816 2.9992 6.92576 2.92988 6.96117 2.86519C6.99659 2.80051 7.04901 2.74175 7.11535 2.69236C7.18168 2.64296 7.2606 2.60393 7.34747 2.57756C7.43434 2.55119 7.52743 2.53801 7.62124 2.53879H12.1051C12.1982 2.53879 12.2904 2.55255 12.3764 2.57926C12.4623 2.60598 12.5403 2.64514 12.6058 2.69445C12.6713 2.74377 12.7232 2.80225 12.7581 2.86655C12.793 2.93084 12.8105 2.99969 12.8095 3.06904V5.1783L20.7912 0.126534C20.92 0.0448508 21.0836 0 21.2528 0C21.422 0 21.5857 0.0448508 21.7145 0.126534L41.8019 12.8404C41.9134 12.9095 41.9937 13.0025 42.0315 13.1068C42.0693 13.2111 42.0628 13.3216 42.0132 13.4231C41.9612 13.525 41.8692 13.6129 41.7491 13.6752C41.6291 13.7376 41.4867 13.7716 41.3403 13.7727H36.3634V29.4698C36.3634 29.6104 36.2883 29.7453 36.1547 29.8447C36.0212 29.9441 35.8402 30 35.6513 30ZM25.1967 28.9395H34.9391V13.225C34.9391 13.0843 35.0142 12.9495 35.1477 12.85C35.2813 12.7506 35.4625 12.6947 35.6513 12.6947H39.4075L21.2528 1.21033L12.559 6.69323C12.4535 6.76216 12.3232 6.80662 12.1842 6.82111C12.0451 6.83561 11.9034 6.81951 11.7765 6.77481C11.6538 6.73148 11.5502 6.66291 11.4781 6.57722C11.406 6.49153 11.3684 6.3923 11.3696 6.29119V3.5643H8.30212V9.12878C8.304 9.20554 8.28227 9.28162 8.23889 9.35127C8.19551 9.42091 8.13156 9.4823 8.05166 9.53083L3.07472 12.6831H6.83088C7.01974 12.6831 7.20093 12.7389 7.33448 12.8384C7.46802 12.9378 7.54291 13.0727 7.54291 13.2133V28.9104H17.2855V20.5666C17.2855 20.4972 17.3039 20.4286 17.3398 20.3645C17.3756 20.3005 17.4283 20.2425 17.4945 20.1937C17.5607 20.1449 17.6393 20.1064 17.7257 20.0804C17.812 20.0544 17.9044 20.0414 17.9975 20.0422H24.4612C24.5543 20.0414 24.6467 20.0544 24.733 20.0804C24.8194 20.1064 24.898 20.1449 24.9642 20.1937C25.0304 20.2425 25.0831 20.3005 25.119 20.3645C25.1548 20.4286 25.1732 20.4972 25.1732 20.5666L25.1967 28.9395Z" fill="#232323"/>
</svg>
