<svg width="199" height="92" viewBox="0 0 199 92" fill="none" xmlns="http://www.w3.org/2000/svg">
<path d="M47.9337 29.1757L48.1851 28.1406C48.1851 28.1406 44.9754 24.0306 44.0536 23.5261C43.1319 23.0216 37.4958 24.2872 37.1789 24.8831C36.8619 25.4789 36.9931 28.071 37.0696 28.5277C37.1461 28.9843 42.1701 30.0107 43.0153 30.0542C43.8606 30.0977 47.9337 29.1757 47.9337 29.1757Z" fill="#FFC727"/>
<path d="M48.1852 28.1406L47.9338 29.1757C47.9338 29.1757 50.0688 31.1024 50.1489 31.2155C50.2291 31.3286 50.0979 31.8766 50.0979 31.8766H52.262V28.1406C51.9411 28.3565 51.6015 28.53 51.2492 28.6582C50.9395 28.7234 48.1852 28.1406 48.1852 28.1406Z" fill="#FFC727"/>
<g opacity="0.1">
<path d="M47.9337 29.1757L48.1851 28.1406C48.1851 28.1406 44.9754 24.0306 44.0536 23.5261C43.1319 23.0216 37.4958 24.2872 37.1789 24.8831C36.8619 25.4789 36.9931 28.071 37.0696 28.5277C37.1461 28.9843 42.1701 30.0107 43.0153 30.0542C43.8606 30.0977 47.9337 29.1757 47.9337 29.1757Z" fill="black"/>
<path d="M48.1855 28.1406L47.9341 29.1757C47.9341 29.1757 50.069 31.1024 50.1492 31.2155C50.2293 31.3286 50.0982 31.8766 50.0982 31.8766H52.2622V28.1406C51.9413 28.3565 51.6017 28.53 51.2494 28.6582C50.9397 28.7234 48.1855 28.1406 48.1855 28.1406Z" fill="black"/>
</g>
<path d="M87.8597 68.688C88.0892 78.6911 91.4118 90.921 98.8222 90.921C99.5508 90.921 109.468 91.1471 110.116 90.8905C116.087 88.5246 119.625 75.5249 118.955 64.0649C118.43 55.1404 116.04 45.1417 109.81 43.9413C109.395 43.863 98.9606 43.9413 98.5161 43.9413C91.0293 43.9413 87.6083 57.9456 87.8597 68.688Z" fill="#263238"/>
<path d="M99.7474 68.6879C99.9806 78.691 103.303 90.9208 110.71 90.9208C118.117 90.9208 121.508 76.7687 120.762 64.0648C120.204 54.5444 117.632 43.9412 110.397 43.9412C102.921 43.9412 99.4997 57.9455 99.7474 68.6879Z" fill="#37474F"/>
<path d="M102.833 68.3833C103.023 76.0726 105.5 85.5059 110.976 85.5059C116.452 85.5059 118.929 74.6069 118.357 64.8257C117.927 57.493 116.007 49.3296 110.659 49.3296C105.132 49.3426 102.626 60.1199 102.833 68.3833Z" fill="#C7C7C7"/>
<path d="M112.411 50.9866C112.298 54.1136 111.905 64.0689 111.337 64.0689C110.856 64.0689 109.453 54.6703 108.958 51.2736C109.554 50.8996 110.218 50.7041 110.892 50.7039C111.408 50.7014 111.921 50.7968 112.411 50.9866Z" fill="#263238"/>
<path d="M110.309 64.6779C110.007 64.9476 107.326 60.4592 105.376 57.093C105.786 55.6862 106.379 54.3652 107.133 53.1787C108.397 57.0277 110.721 64.3126 110.309 64.6779Z" fill="#263238"/>
<path d="M109.803 65.8348C109.665 66.2437 106.783 64.6693 104.185 63.1557C104.316 61.9015 104.512 60.6581 104.772 59.4329C107.151 62.0641 109.971 65.339 109.803 65.8348Z" fill="#263238"/>
<path d="M109.547 67.2396C109.573 67.7093 106.655 68.3704 104.006 68.8749L103.984 68.3225C103.959 67.3222 103.984 66.2871 104.032 65.2346C106.669 65.887 109.5 66.7133 109.547 67.2396Z" fill="#263238"/>
<path d="M104.812 75.3898C104.505 73.9924 104.281 72.5711 104.141 71.1364C106.691 69.7272 109.65 68.2094 109.872 68.6965C110.094 69.1836 107.034 72.8325 104.812 75.3898Z" fill="#263238"/>
<path d="M107.966 82.5444C106.934 81.3343 106.133 79.8713 105.62 78.2562C107.252 74.929 110.047 69.4143 110.48 69.7666C110.914 70.1189 108.677 79.6174 107.966 82.5444Z" fill="#263238"/>
<path d="M113.683 83.1705C112.981 83.801 112.127 84.1429 111.249 84.1447C110.911 84.147 110.573 84.1018 110.244 84.0099C110.331 81.4004 110.732 70.5667 111.337 70.5667C111.799 70.558 113.166 79.626 113.683 83.1705Z" fill="#263238"/>
<path d="M116.834 76.8469C116.5 78.2901 116.001 79.6716 115.351 80.9525C114.083 77.0774 112.043 70.6232 112.437 70.2753C112.714 70.0274 114.98 73.7068 116.834 76.8469Z" fill="#263238"/>
<path d="M117.716 71.1366C117.631 72.2796 117.495 73.4164 117.308 74.542C115.231 72.2022 113.097 69.6449 113.25 69.1925C113.366 68.8185 115.508 69.9102 117.716 71.1366Z" fill="#263238"/>
<path d="M117.818 66.0957C117.855 67.1482 117.858 68.2094 117.818 69.2619C115.632 68.7096 113.567 68.0702 113.541 67.6136C113.515 67.1569 115.61 66.6133 117.818 66.0957Z" fill="#263238"/>
<path d="M117.705 64.0908C115.574 65.2999 113.439 66.3741 113.253 65.9522C113.067 65.5304 115.278 62.6208 117.235 60.1809C117.452 61.4728 117.609 62.7781 117.705 64.0908Z" fill="#263238"/>
<path d="M116.623 57.3455C115.045 60.5987 112.83 64.9739 112.444 64.6565C112.058 64.339 113.796 56.1625 114.564 52.7397C115.51 54.0884 116.211 55.6568 116.623 57.3455Z" fill="#263238"/>
<path d="M3.97409 68.688C4.20361 78.6911 7.52624 90.921 14.9366 90.921C15.6652 90.921 25.5821 91.1471 26.2306 90.8905C32.2018 88.5246 35.7394 75.5249 35.069 64.0649C34.5444 55.1404 32.1544 45.1417 25.9245 43.9413C25.5092 43.863 15.075 43.9413 14.6305 43.9413C7.1437 43.9413 3.72635 57.9456 3.97409 68.688Z" fill="#263238"/>
<path d="M15.8658 68.6879C16.0953 78.691 19.4179 90.9208 26.8246 90.9208C34.2313 90.9208 37.6231 76.7687 36.8799 64.0648C36.3189 54.5444 33.7467 43.9412 26.5149 43.9412C19.0354 43.9412 15.6144 57.9455 15.8658 68.6879Z" fill="#37474F"/>
<path d="M18.9478 68.3833C19.1372 76.0726 21.6146 85.5059 27.0904 85.5059C32.5662 85.5059 35.0436 74.6069 34.4716 64.8257C34.0417 57.493 32.1217 49.3296 26.7734 49.3296C21.2467 49.3426 18.7438 60.1199 18.9478 68.3833Z" fill="#C7C7C7"/>
<path d="M28.5262 50.9868C28.4133 54.1138 28.0198 64.069 27.4332 64.069C26.9523 64.069 25.5497 54.6705 25.0542 51.2738C25.6509 50.8998 26.3148 50.7043 26.9888 50.7041C27.5106 50.6988 28.0298 50.7943 28.5262 50.9868Z" fill="#263238"/>
<path d="M26.4236 64.6779C26.1213 64.9476 23.4398 60.4592 21.4907 57.093C21.9016 55.6869 22.4941 54.3662 23.2468 53.1787C24.511 57.0277 26.8463 64.3126 26.4236 64.6779Z" fill="#263238"/>
<path d="M25.9173 65.8348C25.7788 66.2437 22.8971 64.6693 20.2994 63.1557C20.43 61.9015 20.6259 60.6581 20.886 59.4329C23.265 62.0641 26.0849 65.339 25.9173 65.8348Z" fill="#263238"/>
<path d="M25.6478 67.2396C25.6733 67.7093 22.7551 68.3704 20.1065 68.8749C20.1065 68.6879 20.1065 68.5095 20.0883 68.3225C20.0591 67.3222 20.0883 66.2871 20.132 65.2346C22.7843 65.887 25.615 66.7133 25.6478 67.2396Z" fill="#263238"/>
<path d="M20.9301 75.3898C20.6238 73.9924 20.3998 72.5711 20.2598 71.1364C22.81 69.7272 25.7683 68.2094 25.9906 68.6965C26.2128 69.1836 23.1488 72.8325 20.9301 75.3898Z" fill="#263238"/>
<path d="M24.081 82.5444C23.0524 81.333 22.2557 79.8701 21.7457 78.2562C23.3779 74.929 26.1722 69.4143 26.6058 69.7666C27.0393 70.1189 24.7915 79.6174 24.081 82.5444Z" fill="#263238"/>
<path d="M29.7976 83.1705C29.096 83.801 28.2421 84.1429 27.3639 84.1447C27.0255 84.147 26.688 84.1018 26.3584 84.0099C26.4458 81.4004 26.8466 70.5667 27.4514 70.5667C27.9141 70.558 29.2803 79.626 29.7976 83.1705Z" fill="#263238"/>
<path d="M32.9525 76.8469C32.6182 78.2901 32.1193 79.6716 31.4698 80.9525C30.2019 77.0774 28.1617 70.6232 28.5552 70.2753C28.8284 70.0274 31.0945 73.7068 32.9525 76.8469Z" fill="#263238"/>
<path d="M33.8306 71.1366C33.7457 72.2796 33.6095 73.4164 33.4225 74.542C31.3459 72.2022 29.2146 69.6449 29.364 69.1925C29.4806 68.8185 31.6228 69.9102 33.8306 71.1366Z" fill="#263238"/>
<path d="M33.9324 66.0957C33.9688 67.1482 33.9725 68.2094 33.9324 69.2619C31.7465 68.7096 29.6808 68.0702 29.6553 67.6136C29.6298 67.1569 31.7246 66.6133 33.9324 66.0957Z" fill="#263238"/>
<path d="M33.8196 64.0908C31.6883 65.2999 29.5533 66.3741 29.3675 65.9522C29.1817 65.5304 31.3932 62.6208 33.3496 60.1809C33.5671 61.4728 33.724 62.7781 33.8196 64.0908Z" fill="#263238"/>
<path d="M32.7381 57.3455C31.1605 60.5987 28.9455 64.9739 28.5593 64.6565C28.1731 64.339 29.9109 56.1625 30.6796 52.7397C31.6254 54.0884 32.3263 55.6568 32.7381 57.3455Z" fill="#263238"/>
<path d="M164.171 68.688C164.4 78.6911 167.723 90.921 175.133 90.921C175.862 90.921 185.779 91.1471 186.427 90.8905C192.398 88.5246 195.936 75.5249 195.266 64.0649C194.741 55.1404 192.351 45.1417 186.121 43.9413C185.706 43.863 175.272 43.9413 174.827 43.9413C167.34 43.9413 163.923 57.9456 164.171 68.688Z" fill="#263238"/>
<path d="M176.062 68.6879C176.291 78.691 179.614 90.9208 187.021 90.9208C194.427 90.9208 197.819 76.7687 197.076 64.0648C196.515 54.5444 193.943 43.9412 186.711 43.9412C179.231 43.9412 175.81 57.9455 176.062 68.6879Z" fill="#37474F"/>
<path d="M179.133 68.3833C179.322 76.0726 181.8 85.5059 187.276 85.5059C192.751 85.5059 195.229 74.6069 194.657 64.8257C194.227 57.493 192.307 49.3296 186.959 49.3296C181.443 49.3426 178.94 60.1199 179.133 68.3833Z" fill="#C7C7C7"/>
<path d="M188.722 50.9867C188.609 54.1138 188.216 64.069 187.629 64.069C187.148 64.069 185.746 54.6705 185.25 51.2738C185.848 50.8993 186.513 50.7037 187.188 50.704C187.709 50.6991 188.227 50.7946 188.722 50.9867Z" fill="#263238"/>
<path d="M186.62 64.6779C186.318 64.9476 183.636 60.4592 181.687 57.093C182.1 55.6877 182.692 54.3673 183.443 53.1787C184.707 57.0277 187.032 64.3126 186.62 64.6779Z" fill="#263238"/>
<path d="M186.114 65.8348C185.979 66.2437 183.094 64.6693 180.496 63.1557C180.627 61.9015 180.823 60.6581 181.083 59.4329C183.462 62.0641 186.282 65.339 186.114 65.8348Z" fill="#263238"/>
<path d="M185.844 67.2396C185.87 67.7093 182.952 68.3704 180.303 68.8749C180.303 68.6879 180.303 68.5095 180.285 68.3225C180.256 67.3222 180.285 66.2871 180.329 65.2346C182.981 65.887 185.812 66.7133 185.844 67.2396Z" fill="#263238"/>
<path d="M181.126 75.3898C180.82 73.9924 180.596 72.5711 180.456 71.1364C183.006 69.7272 185.964 68.2094 186.187 68.6965C186.409 69.1836 183.345 72.8325 181.126 75.3898Z" fill="#263238"/>
<path d="M184.278 82.5444C183.245 81.3343 182.445 79.8713 181.932 78.2562C183.564 74.929 186.358 69.4143 186.792 69.7666C187.225 70.1189 184.988 79.6174 184.278 82.5444Z" fill="#263238"/>
<path d="M189.994 83.1705C189.292 83.801 188.438 84.1429 187.56 84.1447C187.222 84.147 186.884 84.1018 186.554 84.0099C186.642 81.4004 187.043 70.5667 187.647 70.5667C188.11 70.558 189.476 79.626 189.994 83.1705Z" fill="#263238"/>
<path d="M193.149 76.8469C192.814 78.2901 192.315 79.6716 191.666 80.9525C190.398 77.0774 188.358 70.6232 188.751 70.2753C189.028 70.0274 191.291 73.7068 193.149 76.8469Z" fill="#263238"/>
<path d="M194.027 71.1366C193.944 72.2799 193.807 73.4168 193.619 74.542C191.542 72.2022 189.411 69.6449 189.56 69.1925C189.677 68.8185 191.819 69.9102 194.027 71.1366Z" fill="#263238"/>
<path d="M194.129 66.0957C194.165 67.1482 194.169 68.2094 194.129 69.2619C191.943 68.7096 189.877 68.0702 189.852 67.6136C189.826 67.1569 191.921 66.6133 194.129 66.0957Z" fill="#263238"/>
<path d="M194.016 64.0908C191.885 65.2999 189.75 66.3741 189.564 65.9522C189.378 65.5304 191.59 62.6208 193.546 60.1809C193.764 61.4728 193.921 62.7781 194.016 64.0908Z" fill="#263238"/>
<path d="M192.934 57.3455C191.357 60.5987 189.142 64.9739 188.755 64.6565C188.369 64.339 190.107 56.1625 190.876 52.7397C191.821 54.0884 192.522 55.6568 192.934 57.3455Z" fill="#263238"/>
<path d="M120.864 83.5664H170.816C170.816 83.5664 175.381 74.6941 175.639 73.2893C175.898 71.8845 174.769 43.6324 186.995 43.6324C197.648 43.6324 197.175 71.9976 197.175 71.9976L198.479 69.6143L198.774 65.4695L197.943 63.0166C197.943 63.0166 199.506 45.6199 198.774 43.2235C198.042 40.8271 191.535 30.7893 191.094 30.263C190.653 29.7368 183.465 28.2755 182.977 27.7536C182.489 27.2317 162.374 7.43426 153.438 5.09876C144.501 2.76325 124.955 0.897461 112.411 0.897461C99.8677 0.897461 71.1736 4.94218 68.8274 5.87725C66.4812 6.81232 44.9606 30.9415 44.9606 30.9415C44.9606 30.9415 22.0083 34.4643 18.9407 35.2907C15.8731 36.117 4.17107 45.3938 3.68288 46.5593C3.19469 47.7249 1.67546 60.7463 1.67546 60.7463C1.67546 60.7463 0.502343 63.9604 0.454981 64.7171C0.407619 65.4739 1.8722 77.8559 2.06893 78.4953C2.26566 79.1346 4.41517 82.0572 4.90336 82.2921C5.39155 82.5269 86.8468 83.8099 87.845 83.5968C88.8433 83.3837 93.5394 81.731 94.3227 81.1048C95.106 80.4785 96.6143 43.9411 110.641 43.9411C122.82 43.9411 121.844 71.8323 120.864 83.5664Z" fill="#FFC727"/>
<path opacity="0.1" d="M52.7132 83.1966C30.2199 82.8573 5.17637 82.4094 4.90313 82.2833C4.41494 82.0484 2.26179 79.1301 2.0687 78.4908C1.87561 77.8515 0.403745 65.4694 0.458393 64.7126C0.513041 63.9559 1.67523 60.7375 1.67523 60.7375C1.67523 60.7375 3.19081 47.7161 3.67901 46.5505C4.1672 45.3849 15.8583 36.1125 18.9405 35.2862C22.0226 34.4598 44.9604 30.937 44.9604 30.937C44.9604 30.937 24.194 36.4822 23.101 37.5912C22.0081 38.7003 13.993 49.16 13.0603 50.7127C12.1276 52.2653 11.9892 64.0211 11.6941 64.991C11.399 65.9608 9.44259 72.041 9.24585 73.0891C9.04912 74.1373 9.93078 78.3473 10.2222 78.6908C10.5137 79.0344 50.826 83.0139 52.7132 83.1966Z" fill="black"/>
<path opacity="0.1" d="M120.86 83.5662C121.756 72.9151 122.638 48.9512 113.679 44.6238C118.255 45.6154 124.645 54.5703 124.907 77.9645L170.812 83.5662H120.86Z" fill="black"/>
<g opacity="0.6">
<path d="M169.639 68.4444C170.049 62.7864 171.065 57.2145 172.663 51.8653C173.07 50.5302 173.539 49.2234 174.069 47.9511C174.597 46.6698 175.206 45.4384 175.891 44.2673C176.567 43.0801 177.355 41.99 178.24 41.0185C178.683 40.5298 179.153 40.0779 179.647 39.6659C180.151 39.2666 180.683 38.9175 181.235 38.6221C182.34 38.0167 183.536 37.6796 184.751 37.6305C185.966 37.5386 187.183 37.758 188.321 38.2742C190.609 39.331 192.351 41.5535 193.582 43.976C194.79 46.4352 195.713 49.079 196.325 51.8349C196.952 54.5709 197.381 57.366 197.608 60.1896C197.309 57.3823 196.811 54.6106 196.118 51.9045C195.471 49.1929 194.521 46.5978 193.294 44.1891C192.037 41.8536 190.354 39.679 188.168 38.7135C187.083 38.2267 185.922 38.025 184.765 38.122C183.603 38.1786 182.462 38.5082 181.406 39.0918C180.876 39.3732 180.366 39.7048 179.88 40.0834C179.401 40.4824 178.945 40.9183 178.514 41.3882C177.649 42.3308 176.878 43.3887 176.215 44.5413C174.888 46.8678 173.801 49.3764 172.976 52.0132C172.134 54.6558 171.445 57.3645 170.914 60.12C170.357 62.8636 169.931 65.6429 169.639 68.4444Z" fill="white"/>
<path d="M93.8815 68.4443C94.2826 62.9144 95.2617 57.466 96.7961 52.2263C97.5625 49.5948 98.5873 47.0808 99.8491 44.737C100.5 43.5698 101.239 42.4764 102.057 41.4708C102.896 40.479 103.845 39.6289 104.877 38.9439C105.934 38.3006 107.075 37.8729 108.25 37.6783C109.428 37.5196 110.619 37.602 111.773 37.9219C114.094 38.5743 116.091 40.3531 117.552 42.5233C118.992 44.72 120.135 47.1721 120.94 49.7908C121.755 52.3869 122.352 55.0734 122.721 57.8106C122.282 55.097 121.617 52.4424 120.736 49.8864C119.904 47.3178 118.741 44.9201 117.289 42.7799C115.832 40.701 113.905 38.9918 111.679 38.3873C110.571 38.0898 109.429 38.0192 108.301 38.1785C107.179 38.3756 106.091 38.7899 105.081 39.405C104.085 40.0637 103.167 40.8784 102.352 41.8274C101.549 42.8037 100.823 43.8665 100.184 45.0023C98.9347 47.313 97.9046 49.7826 97.113 52.3655C96.3061 54.9523 95.6416 57.5994 95.1238 60.2896C94.5806 62.9776 94.1658 65.7002 93.8815 68.4443Z" fill="white"/>
<path d="M121.549 47.8205C124.736 46.7202 127.917 45.5851 131.112 44.5152L148.964 42.4841L166.816 40.5922H166.794L172.623 38.1828L178.481 35.8125L172.652 38.322L166.823 40.7967H166.801L148.949 42.8147L131.097 44.7022C127.961 45.7677 124.751 46.7767 121.549 47.8205Z" fill="white"/>
<path d="M47.5071 30.9543L37.8161 35.8906L28.1105 40.7922L28.1579 40.7443L24.2961 49.4035L24.2014 49.2165C33.5572 49.3165 42.9166 49.36 52.2542 49.5079H52.1886L63.3369 41.6794L77.2321 36.7431L91.1383 31.8633L77.305 36.9344L63.428 41.9316H63.4535L52.3489 49.8036L52.3161 49.8254H52.2797C42.9239 49.7601 33.5681 49.5905 24.2269 49.4731H24.0483L24.1321 49.2904L28.0304 40.6486V40.6138H28.0595L37.776 35.7645L47.5071 30.9543Z" fill="white"/>
</g>
<g opacity="0.3">
<path d="M46.7862 30.9417L27.2293 36.4912L24.7884 37.2044C24.384 37.3219 23.9832 37.4567 23.5788 37.5828L23.2983 37.6959C23.2518 37.7108 23.2066 37.7312 23.1635 37.7568L23.0578 37.8655C22.9083 38.0247 22.7683 38.1962 22.6389 38.3787C21.5459 39.8748 20.5513 41.4884 19.5275 43.0671C17.5019 46.2551 15.52 49.4691 13.5126 52.6831C15.418 49.3908 17.3525 46.1246 19.3417 42.9062C20.34 41.297 21.3382 39.6965 22.4385 38.1656C22.5759 37.9627 22.7283 37.7749 22.8939 37.6046L23.0287 37.4741C23.0789 37.4439 23.1314 37.4191 23.1853 37.4002L23.4987 37.2697C23.9031 37.1392 24.3111 36.9957 24.7155 36.8783L27.1565 36.1476C30.4159 35.2285 33.6815 34.334 36.9531 33.4642C40.2247 32.5943 43.5024 31.7535 46.7862 30.9417Z" fill="black"/>
<path d="M109.887 31.8767L103.938 34.1165L97.9774 36.3172L86.0786 40.7838C84.0931 41.5275 82.1075 42.2669 80.1438 43.0671C79.1696 43.4823 78.2264 43.9944 77.3239 44.598L74.5405 46.2811L68.981 49.6517L63.3995 52.9745L68.9154 49.4952L74.4567 46.068L77.2256 44.3588C78.1318 43.7386 79.0814 43.2133 80.0637 42.7888C82.031 41.9668 84.0093 41.2057 85.9912 40.4489L97.9191 36.0997L103.894 33.96L109.887 31.8767Z" fill="black"/>
<path d="M124.908 76.1381L130.649 75.9902L136.395 75.8945L147.878 75.6858L159.365 75.5553L165.107 75.4509L166.542 75.4204L167.271 75.39C167.384 75.39 167.519 75.39 167.614 75.3596C167.708 75.3291 167.796 75.2117 167.883 75.1247C168.517 74.2766 169.082 73.3459 169.65 72.4282C169.1 73.3633 168.557 74.3071 167.934 75.1813C167.847 75.2726 167.785 75.4248 167.646 75.4509C167.526 75.4749 167.404 75.4895 167.282 75.4944L166.553 75.5466L165.118 75.6205L159.376 75.7901L147.889 76.0337L136.402 76.125L130.66 76.1642L124.908 76.1381Z" fill="black"/>
<path d="M165.173 30.2109C165.777 33.6903 166.367 37.1696 166.943 40.6489V40.6968L165.796 48.9602L164.619 57.2236C163.832 62.7325 163.005 68.2415 162.138 73.7504C162.844 68.2183 163.573 62.6905 164.353 57.1714L165.522 48.908L166.725 40.6446V40.6881C166.193 37.2116 165.675 33.7193 165.173 30.2109Z" fill="black"/>
<path d="M133.484 30.9026C132.755 35.4866 132.013 40.0648 131.258 44.6372V44.6111C131.212 49.6011 131.148 54.5896 131.065 59.5766L130.93 67.0789L130.744 74.5595V67.0746L130.799 59.5897C130.843 54.5997 130.908 49.6112 130.996 44.6242V44.5937C131.805 40.0184 132.634 35.4547 133.484 30.9026Z" fill="black"/>
<path d="M176.434 26.7795C176.846 28.2626 177.217 29.7587 177.593 31.2548C177.968 32.7509 178.321 34.2558 178.642 35.7693V35.8084V35.8432C178.438 36.9479 178.241 38.0482 178.019 39.1442C177.797 40.2402 177.582 41.3188 177.337 42.4278C177.483 41.3101 177.647 40.2011 177.822 39.092C177.997 37.983 178.186 36.8827 178.369 35.778V35.8562C178.004 34.3558 177.684 32.8423 177.345 31.3375C177.006 29.8327 176.711 28.3061 176.434 26.7795Z" fill="black"/>
<path d="M123.862 57.8108L129.793 57.2715L135.725 56.7887L147.591 55.8232L159.46 54.9751L165.399 54.5489L171.337 54.1836L165.406 54.7229L159.475 55.2057L147.609 56.1712L135.739 57.0236L129.804 57.4455L123.862 57.8108Z" fill="black"/>
<path d="M157.69 32.2856C157.806 32.8596 157.901 33.4424 158.01 34.0252L157.93 33.9513C158.855 33.8252 159.784 33.6903 160.713 33.5903C161.642 33.4903 162.568 33.3772 163.501 33.2946L163.38 33.4903L163.1 31.8898L163.227 31.9985C162.2 32.0724 161.169 32.1464 160.138 32.1725C161.158 31.9898 162.182 31.8506 163.209 31.7158H163.311L163.333 31.8419L163.643 33.4337L163.679 33.612H163.522C162.593 33.7295 161.664 33.8208 160.735 33.9034C159.806 33.9861 158.874 34.0557 157.941 34.1253H157.872V34.047C157.806 33.4642 157.741 32.877 157.69 32.2856Z" fill="black"/>
<path d="M6.80904 55.9973C6.44472 58.298 5.98568 60.5683 5.53756 62.8386L5.3554 63.7084L5.31168 63.9172L5.28982 64.0215C5.28982 64.0737 5.28982 64.0215 5.25339 64.0215C5.25339 64.1477 5.2716 64.3129 5.27889 64.4564C5.31532 65.0479 5.36633 65.6351 5.39183 66.2309C5.45741 67.4182 5.5157 68.6056 5.53756 69.7755C5.39183 68.6186 5.28253 67.4748 5.17324 66.3353C5.11859 65.7699 5.08215 65.1915 5.03844 64.6217L5.00565 64.1868C4.99226 64.1123 4.99226 64.0352 5.00565 63.9606L5.02751 63.8563L5.06758 63.6388L5.23517 62.769C5.73794 60.4944 6.22248 58.2284 6.80904 55.9973Z" fill="black"/>
<path d="M79.783 55.9973C80.1764 57.1585 80.5116 58.3328 80.8759 59.5071C81.2402 60.6814 81.5609 61.8687 81.8669 63.0604V63.0908V63.1126C81.8669 64.0041 81.8669 64.8914 81.8268 65.7786C81.7867 66.6658 81.7758 67.5574 81.7285 68.4446C81.6774 67.5748 81.6483 66.6702 81.6264 65.7786C81.6046 64.887 81.5973 64.0041 81.59 63.1126V63.1647C81.2439 61.9861 80.9451 60.7901 80.6245 59.6028C80.3039 58.4155 80.038 57.2107 79.783 55.9973Z" fill="black"/>
<path d="M0.480835 65.2349L6.00761 71.7934H5.97846L25.7539 72.5632C29.0328 72.6893 32.3408 72.8546 35.6343 72.9503L45.522 72.9242L85.0765 73.0373L93.1098 70.7148L85.0947 73.1547L45.5366 73.2678L35.6489 73.246C32.3518 73.1329 29.0583 72.9546 25.7648 72.8111L6.00397 71.8847H5.98211L0.480835 65.2349Z" fill="black"/>
</g>
<path d="M138.537 30.0109C139.189 30.8068 164.947 28.9975 165.533 28.9192C166.12 28.8409 175.967 26.5837 176.423 26.0401C176.878 25.4964 160.757 11.64 159.402 10.9354C158.046 10.2309 143.116 9.06964 141.062 10.0656C139.455 10.8397 137.786 29.0932 138.537 30.0109Z" fill="#263238"/>
<path d="M140.209 29.1668C140.806 29.8931 164.338 28.2404 164.874 28.1708C165.409 28.1012 174.408 26.0354 174.823 25.5613C175.239 25.0873 160.527 12.4007 159.274 11.7614C158.021 11.1221 144.395 10.0522 142.515 10.9612C141.05 11.6483 139.524 28.3274 140.209 29.1668Z" fill="#37474F"/>
<g opacity="0.1">
<path d="M156.545 11.2399L140.238 23.2088C140.519 19.6947 141.044 15.4717 141.637 13.0013L144.894 10.6137C148.785 10.5686 152.674 10.7777 156.545 11.2399Z" fill="white"/>
<path d="M169.318 20.1427L157.714 28.6627C155.594 28.7975 153.226 28.9367 150.931 29.0541L166.469 17.6462C167.427 18.4726 168.396 19.3207 169.318 20.1427Z" fill="white"/>
<path d="M174.087 24.5789L171.238 26.6708C170.557 26.8491 169.839 27.0275 169.136 27.2014L173.508 23.9961C173.723 24.2092 173.92 24.4049 174.087 24.5789Z" fill="white"/>
</g>
<path d="M158.163 11.466C158.622 11.553 163.948 27.9624 163.846 28.2842C163.744 28.6061 164.899 28.3408 164.801 28.2581C164.703 28.1755 158.972 12.3489 159.139 11.6835C159.227 11.3312 158.163 11.466 158.163 11.466Z" fill="#263238"/>
<path d="M46.7861 30.9416C47.4382 30.9416 108.295 31.8766 109.887 31.8766C111.479 31.8766 133.433 30.611 133.703 30.4371C133.972 30.2631 136.122 11.2311 135.469 9.6785C135.291 9.24358 105.799 7.43433 102.181 7.43433C98.5636 7.43433 68.8932 8.97828 67.3266 9.30447C65.76 9.63066 45.7077 30.9242 46.7861 30.9416Z" fill="#263238"/>
<path opacity="0.1" d="M86.5881 39.679L58.058 60.6245C52.7972 60.5506 48.3889 60.481 45.8022 60.4419L73.1264 40.3748C77.5311 40.1313 82.4895 39.8747 86.5881 39.679ZM104.997 39.8486L76.3179 60.9246L82.4458 61.016L110.775 40.2183L104.997 39.8486ZM116.291 60.568C118.922 60.4158 121.392 60.2636 123.126 60.1331L125.873 58.1151C126.004 56.8799 126.168 55.1185 126.317 53.2005L116.291 60.568ZM119.417 40.7749L91.6923 61.129H93.0439L120.67 40.8489L119.417 40.7749ZM67.2972 40.7141L47.8388 54.9967C46.7713 56.1449 45.8168 57.1713 45.0626 58.0411L68.8055 40.614L67.2972 40.7141Z" fill="white"/>
<path d="M70.8493 49.9387C69.9968 50.952 71.5014 57.2539 72.8057 57.7237C74.1099 58.1934 83.0431 56.7103 84.0195 56.3972C84.9959 56.084 95.0403 52.5047 95.8892 51.4174C96.738 50.3301 97.5177 41.3752 96.6178 40.7532C95.7179 40.1313 80.6386 44.7979 79.0101 45.3459C77.3816 45.8939 71.567 49.0819 70.8493 49.9387Z" fill="white"/>
<path d="M2.94722 53.1615C3.31155 53.9704 5.73793 56.9757 6.22613 57.3889C6.71432 57.802 9.65076 58.3892 9.99322 58.1587C10.3357 57.9282 12.1792 53.0788 12.1427 52.2612C12.1063 51.4436 8.23354 42.58 7.53769 42.7583C6.84183 42.9366 3.13667 45.6766 2.93993 46.5507C2.7432 47.4249 2.57197 52.2916 2.94722 53.1615Z" fill="white"/>
<path d="M3.16536 52.8872C3.12893 53.47 4.42591 55.2749 4.58257 55.4967C3.97803 54.7817 3.43041 54.0013 2.94677 53.1655C2.58244 52.2957 2.74639 47.4203 2.94677 46.5504C3.14714 45.6806 6.85959 42.9276 7.54087 42.7493C6.81223 43.145 3.83571 46.0372 3.67541 46.7548C3.51511 47.4725 3.20543 52.2652 3.16536 52.8872Z" fill="#DBDBDB"/>
<path d="M13.5124 52.683C14.3722 52.3264 32.0491 51.6914 35.5211 51.6914C38.9931 51.6914 61.8325 52.3307 63.3991 52.9744C64.9656 53.6181 61.4427 64.7172 60.0728 65.5261C58.703 66.335 36.6942 68.4444 35.1786 68.4444C33.6631 68.4444 16.4816 65.5478 15.4542 64.7302C14.4268 63.9126 12.0952 53.2658 13.5124 52.683Z" fill="#263238"/>
<path d="M62.6525 59.807C62.5796 60.0331 62.5104 60.2419 62.4339 60.4811L13.7312 59.4286C13.6802 59.2024 13.6402 58.9719 13.5964 58.7371L62.6525 59.807Z" fill="#FFC727"/>
<path d="M15.859 77.9515H61.8839C62.8603 77.9515 57.8763 74.3939 57.0857 74.333C56.2952 74.2721 20.2127 74.333 19.4804 74.333C18.7481 74.333 15.0283 77.9515 15.859 77.9515Z" fill="#263238"/>
<path d="M4.20375 75.6074C4.69923 75.7074 9.81068 75.8249 10.6596 75.6074C11.5084 75.39 13.4648 70.0579 13.3337 69.262C13.2025 68.4661 9.40264 65.7827 8.91444 65.5826C8.42625 65.3825 4.97976 65.1738 4.6118 65.5826C4.24383 65.9914 3.74471 75.5204 4.20375 75.6074Z" fill="#455A64"/>
<path d="M70.3904 68.4441C69.782 69.3879 73.979 75.081 75.5747 75.7812C77.1704 76.4814 86.9598 76.5031 87.3241 76.3857C87.6884 76.2683 87.6884 70.4099 87.5026 69.514C87.3168 68.6181 85.4806 65.3519 85.0762 65.0605C84.6718 64.7691 75.8953 65.6607 74.7076 66.0303C73.5199 66.4 70.6673 68.0179 70.3904 68.4441Z" fill="#455A64"/>
<path d="M142.442 28.2016L142.187 27.1665C142.187 27.1665 145.401 23.0565 146.319 22.552C147.237 22.0475 152.877 23.3131 153.197 23.9089C153.518 24.5048 153.383 27.0969 153.306 27.5535C153.23 28.0102 148.206 29.0366 147.357 29.0801C146.508 29.1236 142.442 28.2016 142.442 28.2016Z" fill="#FFC727"/>
<path d="M142.187 27.1663L142.442 28.2014C142.442 28.2014 140.304 30.128 140.227 30.2411C140.151 30.3542 140.278 30.9022 140.278 30.9022H138.092V27.1663C138.414 27.3813 138.753 27.5548 139.105 27.6838C139.422 27.749 142.187 27.1663 142.187 27.1663Z" fill="#FFC727"/>
</svg>
