<svg width="43" height="30" viewBox="0 0 43 30" fill="none" xmlns="http://www.w3.org/2000/svg">
<path d="M35.6515 30H24.4613C24.2725 30 24.0913 29.9441 23.9577 29.8447C23.8242 29.7453 23.7493 29.6104 23.7493 29.4698V21.0968H18.7097V29.4523C18.7097 29.5929 18.6348 29.7278 18.5012 29.8272C18.3677 29.9267 18.1865 29.9825 17.9976 29.9825H6.8545C6.66564 29.9825 6.48445 29.9267 6.3509 29.8272C6.21736 29.7278 6.14247 29.5929 6.14247 29.4523V13.7552H1.16553C1.02034 13.7548 0.878889 13.7213 0.759935 13.6594C0.640981 13.5974 0.550152 13.5098 0.499921 13.4084C0.44969 13.307 0.442279 13.1965 0.478715 13.0919C0.51515 12.9872 0.593681 12.8934 0.703767 12.8229L6.90933 8.89574V3.06904C6.90828 2.9992 6.92588 2.92988 6.96129 2.86519C6.99671 2.80051 7.04913 2.74175 7.11547 2.69236C7.1818 2.64296 7.26072 2.60393 7.34759 2.57756C7.43446 2.55119 7.52755 2.53801 7.62136 2.53879H12.1052C12.1984 2.53879 12.2905 2.55255 12.3765 2.57926C12.4625 2.60598 12.5404 2.64514 12.6059 2.69445C12.6714 2.74377 12.7233 2.80225 12.7582 2.86655C12.7931 2.93084 12.8106 2.99969 12.8096 3.06904V5.1783L20.7913 0.126534C20.9201 0.0448508 21.0837 0 21.2529 0C21.4221 0 21.5858 0.0448508 21.7146 0.126534L41.802 12.8404C41.9135 12.9095 41.9938 13.0025 42.0316 13.1068C42.0695 13.2111 42.063 13.3216 42.0133 13.4231C41.9614 13.525 41.8693 13.6129 41.7493 13.6752C41.6292 13.7376 41.4868 13.7716 41.3404 13.7727H36.3635V29.4698C36.3635 29.6104 36.2884 29.7453 36.1549 29.8447C36.0213 29.9441 35.8403 30 35.6515 30ZM25.1968 28.9395H34.9392V13.225C34.9392 13.0843 35.0143 12.9495 35.1479 12.85C35.2814 12.7506 35.4626 12.6947 35.6515 12.6947H39.4076L21.2529 1.21033L12.5591 6.69323C12.4536 6.76216 12.3233 6.80662 12.1843 6.82111C12.0453 6.83561 11.9035 6.81951 11.7766 6.77481C11.6539 6.73148 11.5503 6.66291 11.4782 6.57722C11.4061 6.49153 11.3685 6.3923 11.3697 6.29119V3.5643H8.30225V9.12878C8.30412 9.20554 8.28239 9.28162 8.23901 9.35127C8.19563 9.42091 8.13168 9.4823 8.05178 9.53083L3.07484 12.6831H6.831C7.01986 12.6831 7.20105 12.7389 7.3346 12.8384C7.46814 12.9378 7.54303 13.0727 7.54303 13.2133V28.9104H17.2856V20.5666C17.2856 20.4972 17.304 20.4286 17.3399 20.3645C17.3758 20.3005 17.4284 20.2425 17.4946 20.1937C17.5609 20.1449 17.6394 20.1064 17.7258 20.0804C17.8121 20.0544 17.9045 20.0414 17.9976 20.0422H24.4613C24.5545 20.0414 24.6468 20.0544 24.7332 20.0804C24.8195 20.1064 24.8981 20.1449 24.9643 20.1937C25.0306 20.2425 25.0832 20.3005 25.1191 20.3645C25.155 20.4286 25.1733 20.4972 25.1733 20.5666L25.1968 28.9395Z" fill="#FCE389"/>
</svg>
