<svg width="32" height="21" viewBox="0 0 32 21" fill="none" xmlns="http://www.w3.org/2000/svg">
<g clip-path="url(#clip0_199_3188)">
<path d="M11.6624 3.02048H20.3061V18.7485H11.6624V3.02048Z" fill="#FF5F00"/>
<path d="M12.2111 10.8845C12.2111 7.68896 13.6929 4.85453 15.9704 3.02048C14.2966 1.68668 12.1837 0.880859 9.87875 0.880859C4.41787 0.880859 0 5.35466 0 10.8845C0 16.4143 4.41787 20.8882 9.87862 20.8882C12.1836 20.8882 14.2965 20.0824 15.9704 18.7485C13.6929 16.9423 12.2111 14.0801 12.2111 10.8845Z" fill="#EB001B"/>
<path d="M31.9682 10.8845C31.9682 16.4143 27.5503 20.8882 22.0896 20.8882C19.7846 20.8882 17.6717 20.0824 15.9978 18.7485C18.3028 16.9145 19.7572 14.0801 19.7572 10.8845C19.7572 7.68896 18.2753 4.85453 15.9978 3.02048C17.6716 1.68668 19.7846 0.880859 22.0896 0.880859C27.5503 0.880859 31.9683 5.3825 31.9683 10.8845H31.9682Z" fill="#F79E1B"/>
</g>
<defs>
<clipPath id="clip0_199_3188">
<rect width="32" height="20" fill="white" transform="translate(0 0.880859)"/>
</clipPath>
</defs>
</svg>
