<svg width="32" height="17" viewBox="0 0 32 17" fill="none" xmlns="http://www.w3.org/2000/svg">
<path d="M25.7334 5.14084V9.8617C25.7334 12.685 23.3867 13.895 19.8667 13.895H8.14669C7.54669 13.895 6.97336 13.8584 6.44002 13.7759C6.10669 13.7392 5.7867 13.675 5.49337 13.6017C3.49337 13.0884 2.28003 11.8967 2.28003 9.8617V5.14084C2.28003 2.31751 4.62669 1.10754 8.14669 1.10754H19.8667C22.8534 1.10754 25 1.97837 25.5734 3.96754C25.6667 4.33421 25.7334 4.71001 25.7334 5.14084Z" stroke="#FCE389" stroke-width="1.25" stroke-miterlimit="10" stroke-linecap="round" stroke-linejoin="round"/>
<path d="M29.7347 7.89096V12.6118C29.7347 15.4351 27.3881 16.6451 23.8681 16.6451H12.1481C11.1614 16.6451 10.2681 16.5535 9.49475 16.3518C7.90808 15.9485 6.82807 15.1143 6.44141 13.776C6.97474 13.8585 7.54807 13.8951 8.14807 13.8951H19.8681C23.3881 13.8951 25.7347 12.6851 25.7347 9.86181V5.14096C25.7347 4.71012 25.6814 4.32515 25.5747 3.96765C28.1081 4.33432 29.7347 5.56262 29.7347 7.89096Z" stroke="#FCE389" stroke-width="1.25" stroke-miterlimit="10" stroke-linecap="round" stroke-linejoin="round"/>
<path d="M13.998 9.92576C15.9421 9.92576 17.5181 8.84228 17.5181 7.50575C17.5181 6.16922 15.9421 5.08574 13.998 5.08574C12.054 5.08574 10.478 6.16922 10.478 7.50575C10.478 8.84228 12.054 9.92576 13.998 9.92576Z" stroke="#FCE389" stroke-width="1.25" stroke-miterlimit="10" stroke-linecap="round" stroke-linejoin="round"/>
<path d="M6.37354 5.48918V9.52254" stroke="#FCE389" stroke-width="1.25" stroke-miterlimit="10" stroke-linecap="round" stroke-linejoin="round"/>
<path d="M21.6289 5.48946V9.52282" stroke="#FCE389" stroke-width="1.25" stroke-miterlimit="10" stroke-linecap="round" stroke-linejoin="round"/>
</svg>
