<svg width="393" height="191" viewBox="0 0 393 191" fill="none" xmlns="http://www.w3.org/2000/svg">
<path d="M425.681 151.335H-8.14136V151.411H425.681V151.335Z" fill="#E0E0E0"/>
<path d="M401.549 169.725H369.313V169.989H401.549V169.725Z" fill="#EBEBEB"/>
<path d="M286.408 172.584H277.946V172.849H286.408V172.584Z" fill="#EBEBEB"/>
<path d="M58.0065 161.721H15.9719V161.986H58.0065V161.721Z" fill="#EBEBEB"/>
<path d="M72.7251 161.721H66.5591V161.986H72.7251V161.721Z" fill="#EBEBEB"/>
<path d="M183.686 166.165H92.5195V166.429H183.686V166.165Z" fill="#EBEBEB"/>
<path d="M360.665 187.004C360.665 189.133 292.659 190.866 208.77 190.866C124.88 190.866 56.874 189.133 56.874 187.004C56.874 184.874 124.897 183.135 208.77 183.135C292.642 183.135 360.665 184.868 360.665 187.004Z" fill="#F5F5F5"/>
<path d="M163.869 17.9196C166.238 11.4236 163.322 4.06524 157.358 1.48539C151.393 -1.09446 144.637 2.08011 142.269 8.57667C139.899 15.0732 142.815 22.431 148.779 25.0115C154.744 27.5913 161.5 24.4161 163.869 17.9196Z" fill="#636AE8"/>
<path d="M157.626 21.7749L156.822 24.9123L160.153 26.8464L160.558 22.827L157.626 21.7749Z" fill="#636AE8"/>
<path d="M162.481 2.01147C164.009 3.23241 165.236 4.84522 166.055 6.70687C166.873 8.56852 167.256 10.6217 167.172 12.6837" stroke="#636AE8" stroke-width="0.314249" stroke-linecap="round" stroke-linejoin="round"/>
<path d="M167.004 14.5239C167.014 15.152 166.907 15.7764 166.687 16.3572" stroke="#636AE8" stroke-width="0.314249" stroke-linecap="round" stroke-linejoin="round"/>
<path d="M153.078 13.6364C154.366 13.6364 155.409 12.4992 155.409 11.0975C155.409 9.69511 154.366 8.55859 153.078 8.55859C151.791 8.55859 150.747 9.69511 150.747 11.0975C150.747 12.4992 151.791 13.6364 153.078 13.6364Z" fill="white"/>
<path d="M153.078 13.9053C152.092 13.9053 151.146 14.3318 150.448 15.0916C149.75 15.8514 149.359 16.8814 149.359 17.9562H156.803C156.803 17.4238 156.707 16.8965 156.52 16.4045C156.332 15.9125 156.058 15.4658 155.712 15.0897C155.366 14.7129 154.955 14.415 154.503 14.2115C154.051 14.0086 153.567 13.904 153.078 13.9053Z" fill="white"/>
<path d="M338.153 147.946L33.9861 155.708V99.052H341.08L338.153 147.946Z" fill="#263238"/>
<path opacity="0.5" d="M338.153 147.946L33.9861 155.708V99.052H341.08L338.153 147.946Z" fill="black"/>
<path d="M22.2795 113.811V142.545C22.279 145.544 23.1605 148.464 24.7948 150.878C26.429 153.292 28.7301 155.072 31.3609 155.958L33.5126 156.669C34.8352 157.121 36.2166 157.333 37.6021 157.299L51.8084 156.94C50.2964 151.182 50.0158 145.123 50.9882 139.229C51.9611 133.334 54.1608 127.76 57.4191 122.935C60.6774 118.111 64.9075 114.163 69.7842 111.396C74.6615 108.629 80.0554 107.117 85.5528 106.974C91.0502 106.831 96.5048 108.062 101.497 110.573C106.49 113.084 110.887 116.807 114.353 121.457C117.819 126.107 120.26 131.56 121.489 137.398C122.719 143.235 122.704 149.302 121.446 155.132L265.995 151.39C265.763 149.551 265.649 147.696 265.654 145.84C265.618 140.653 266.527 135.51 268.33 130.709C270.131 125.908 272.791 121.544 276.153 117.87C279.515 114.197 283.513 111.286 287.915 109.308C292.318 107.33 297.036 106.322 301.799 106.345C306.561 106.368 311.272 107.419 315.658 109.439C320.045 111.459 324.019 114.407 327.352 118.112C330.684 121.818 333.309 126.206 335.073 131.025C336.836 135.842 337.705 140.994 337.628 146.18C337.628 146.942 337.576 147.698 337.576 148.448C337.761 148.366 337.963 148.284 338.154 148.183L343.1 145.777C345.487 144.603 347.514 142.704 348.934 140.306C350.356 137.909 351.112 135.117 351.111 132.263V73.73C351.111 71.0292 350.434 68.3787 349.153 66.0666C347.871 63.7539 346.034 61.8658 343.84 60.6071L306.688 39.3257C306.354 39.1322 306.079 38.8374 305.896 38.4777C305.713 38.1173 305.629 37.7072 305.655 37.2964C305.68 36.8863 305.814 36.4919 306.041 36.1624C306.267 35.8329 306.576 35.5816 306.931 35.4386L311.477 33.662C311.704 33.5788 311.899 33.4137 312.028 33.1939C312.158 32.9746 312.216 32.7132 312.191 32.4536C312.168 32.1934 312.063 31.9502 311.895 31.7638C311.727 31.5773 311.507 31.4576 311.269 31.4255C293.615 28.7417 224.955 18.9641 188.861 23.771C147.215 29.3213 107.332 68.6711 107.332 68.6711C76.6751 67.4111 48.0949 79.0409 35.7801 84.8684C33.8153 85.8033 32.0516 87.1748 30.6023 88.8953C29.1529 90.6165 28.0499 92.6482 27.3639 94.8602L23.1703 108.456C22.6123 110.177 22.3115 111.985 22.2795 113.811Z" fill="#FAD757"/>
<path d="M266.014 151.053C265.8 149.327 265.696 147.585 265.702 145.843C265.702 144.954 265.702 144.079 265.777 143.203L239.638 131.561C238.108 130.88 236.457 130.587 234.808 130.704L143.89 137.199C142.404 137.294 140.953 137.723 139.627 138.459L122.355 148.136C122.234 150.378 121.941 152.606 121.482 154.795L266.014 151.053Z" fill="#263238"/>
<path d="M350.591 131.942V130.448L335.806 135.381C336.67 138.794 337.106 142.318 337.102 145.858C337.102 146.62 337.05 147.377 337.05 148.126C337.235 148.044 337.438 147.962 337.628 147.862L342.586 145.455C344.972 144.28 346.997 142.38 348.417 139.983C349.837 137.586 350.592 134.794 350.591 131.942Z" fill="#263238"/>
<path d="M26.9934 152.471C28.4053 153.89 30.0912 154.947 31.9274 155.564L34.0965 156.276C35.4209 156.727 36.8043 156.94 38.1918 156.906L52.398 156.547C51.8844 154.59 51.513 152.594 51.2875 150.574L26.9934 152.471Z" fill="#263238"/>
<path d="M301.336 103.062C295.753 103.056 290.233 104.344 285.142 106.841C280.052 109.338 275.508 112.987 271.812 117.545C268.117 122.103 265.355 127.465 263.709 133.276C262.063 139.086 261.572 145.212 262.269 151.244L265.681 151.15C264.996 145.816 265.328 140.386 266.657 135.198C267.985 130.01 270.28 125.176 273.399 120.996C276.519 116.817 280.395 113.383 284.787 110.909C289.179 108.433 293.993 106.971 298.927 106.613C303.861 106.254 308.81 107.006 313.465 108.823C318.12 110.64 322.381 113.482 325.983 117.172C329.585 120.862 332.45 125.321 334.4 130.27C336.349 135.22 337.341 140.555 337.314 145.94C337.314 146.702 337.256 147.458 337.256 148.208C337.447 148.126 337.644 148.044 337.835 147.943L340.675 146.538V145.94C340.663 134.571 336.51 123.672 329.129 115.634C321.747 107.595 311.739 103.074 301.301 103.062H301.336Z" fill="#263238"/>
<path d="M86.8139 103.04C80.7948 103.038 74.8554 104.539 69.4523 107.429C64.0492 110.318 59.3264 114.517 55.6464 119.705C51.967 124.893 49.4283 130.932 48.2263 137.356C47.0243 143.779 47.1907 150.418 48.7127 156.76L52.1833 156.678C50.6869 150.925 50.4191 144.875 51.4007 138.992C52.3823 133.108 54.5867 127.547 57.8456 122.734C61.1044 117.922 65.3316 113.986 70.2026 111.226C75.0735 108.467 80.4593 106.959 85.948 106.816C91.4367 106.674 96.8826 107.901 101.869 110.405C106.855 112.908 111.249 116.621 114.715 121.258C118.18 125.896 120.625 131.337 121.863 137.163C123.101 142.989 123.098 149.046 121.855 154.87L125.326 154.782C126.538 148.537 126.453 142.076 125.08 135.871C123.707 129.665 121.079 123.872 117.388 118.914C113.697 113.956 109.036 109.958 103.746 107.212C98.4554 104.465 92.6688 103.04 86.8081 103.04H86.8139Z" fill="#263238"/>
<path d="M120.689 70.5265C120.345 70.8604 120.084 71.2844 119.933 71.7588C119.781 72.2332 119.743 72.7416 119.822 73.2368C119.901 73.7313 120.096 74.1956 120.386 74.5862C120.677 74.9762 121.054 75.2792 121.482 75.4657L136.521 80.0584C137.846 80.4679 139.233 80.5813 140.599 80.3923L252.004 65.3542C254.791 64.9258 257.333 63.3855 259.136 61.0324L273.765 42.5104C274.261 41.8684 274.565 41.0778 274.638 40.2424C274.841 38.1319 273.62 36.2293 271.926 35.9899C245.254 32.1217 211.514 28.6504 190.217 31.4539C162.302 35.1646 134.196 58.0147 120.689 70.5265Z" fill="#FAD757"/>
<path opacity="0.8" d="M121.187 70.5364C120.842 70.8703 120.582 71.2943 120.43 71.7687C120.278 72.2431 120.24 72.7515 120.32 73.2467C120.399 73.7412 120.593 74.2055 120.884 74.5961C121.174 74.9861 121.551 75.2891 121.979 75.4756L137.018 80.0683C138.343 80.4772 139.73 80.5906 141.096 80.4022L250.015 72.2689C252.727 71.8909 256.915 66.4666 259.877 62.0629L274.257 42.5203C274.756 41.8802 275.063 41.0889 275.136 40.2523C275.332 38.1418 274.118 36.2392 272.423 35.9998C245.74 32.1505 212.012 28.6477 190.714 31.4827C162.793 35.1745 134.693 58.0246 121.187 70.5364Z" fill="white"/>
<path opacity="0.3" d="M193.948 81.9456C193.611 81.8107 193.336 81.5373 193.182 81.1839C193.027 80.8311 193.005 80.426 193.121 80.0556C193.278 79.5868 193.558 79.1786 193.928 78.8838C194.298 78.5889 194.739 78.4201 195.197 78.3987L208.455 77.7687C208.634 77.7605 208.813 77.7901 208.981 77.8569C209.326 77.9911 209.608 78.2689 209.766 78.6286C209.923 78.989 209.943 79.4029 209.82 79.7784C209.664 80.2509 209.381 80.6616 209.009 80.9577C208.637 81.2538 208.192 81.4227 207.732 81.4416L194.474 82.0716C194.293 82.0653 194.115 82.0224 193.948 81.9456Z" fill="black"/>
<path d="M292.143 40.7659C291.58 41.3115 291.24 42.0782 291.197 42.8965C291.153 43.7155 291.41 44.5194 291.911 45.1318L295.052 48.8551C295.414 49.274 295.874 49.5764 296.382 49.7308L334.894 61.3669C335.566 61.5622 336.258 61.6636 336.954 61.6693H344.606C344.207 61.3795 343.796 61.1086 343.374 60.8629L306.222 39.5626C305.772 39.3188 305.429 38.891 305.268 38.3725C305.108 37.854 305.143 37.2876 305.365 36.7969L293.299 40.0855C292.87 40.2102 292.474 40.4433 292.143 40.7659Z" fill="#FAD757"/>
<path d="M53.2799 90.3066L40.138 88.7505L32.6184 92.1147C31.8349 92.4624 31.1373 93.0055 30.5816 93.7004C30.0261 94.3953 29.628 95.2225 29.4197 96.1152C29.1713 97.1622 29.3105 98.2729 29.8072 99.2085L29.9403 99.4542C30.3525 100.229 30.9668 100.853 31.7053 101.247C32.4437 101.641 33.273 101.786 34.0876 101.665L41.6651 100.531C42.3942 100.405 43.0835 100.085 43.6722 99.5991L52.4123 92.3793L53.2799 90.3066Z" fill="white"/>
<path d="M107.521 68.8997L109.615 69.5297C110.415 69.7779 111.26 69.8087 112.074 69.6185C112.888 69.4288 113.646 69.0238 114.283 68.4398C126.465 57.2321 147.641 40.033 170.489 31.9942C170.591 31.9583 170.678 31.8821 170.732 31.7801C170.786 31.6723 170.798 31.5457 170.767 31.4279C170.735 31.3094 170.662 31.2099 170.564 31.1501L167.724 29.5562C134.759 42.0113 107.521 68.8997 107.521 68.8997Z" fill="#FAD757"/>
<path opacity="0.8" d="M107.521 68.8997L109.615 69.5297C110.415 69.7779 111.26 69.8087 112.074 69.6185C112.888 69.4288 113.646 69.0238 114.283 68.4398C126.465 57.2321 147.641 40.033 170.489 31.9942C170.591 31.9583 170.678 31.8821 170.732 31.7801C170.786 31.6723 170.798 31.5457 170.767 31.4279C170.735 31.3094 170.662 31.2099 170.564 31.1501L167.724 29.5562C134.759 42.0113 107.521 68.8997 107.521 68.8997Z" fill="white"/>
<path opacity="0.2" d="M232.214 83.6833L121.468 92.3081L123.556 107.189C124.193 111.747 125.743 116.096 128.096 119.927L137.351 134.997L231.878 121.074L276.573 83.6833H232.214Z" fill="white"/>
<path d="M301.298 178.486C317.859 178.486 331.284 163.864 331.284 145.827C331.284 127.79 317.859 113.168 301.298 113.168C284.738 113.168 271.312 127.79 271.312 145.827C271.312 163.864 284.738 178.486 301.298 178.486Z" fill="#263238"/>
<path opacity="0.4" d="M301.298 165.848C311.451 165.848 319.681 156.885 319.681 145.827C319.681 134.77 311.451 125.805 301.298 125.805C291.146 125.805 282.916 134.77 282.916 145.827C282.916 156.885 291.146 165.848 301.298 165.848Z" fill="white"/>
<path opacity="0.3" d="M301.298 127.878H301.292C300.481 127.878 299.823 128.595 299.823 129.479V139.741C299.823 140.625 300.481 141.342 301.292 141.342H301.298C302.11 141.342 302.767 140.625 302.767 139.741V129.479C302.767 128.595 302.11 127.878 301.298 127.878Z" fill="white"/>
<path opacity="0.3" d="M301.298 150.309H301.292C300.481 150.309 299.823 151.025 299.823 151.909V162.171C299.823 163.055 300.481 163.772 301.292 163.772H301.298C302.11 163.772 302.767 163.055 302.767 162.171V151.909C302.767 151.025 302.11 150.309 301.298 150.309Z" fill="white"/>
<path opacity="0.3" d="M306.884 144.182C306.716 144.287 306.532 144.354 306.34 144.381C306.149 144.407 305.955 144.392 305.768 144.337C305.583 144.28 305.409 144.185 305.256 144.056C305.104 143.927 304.977 143.766 304.882 143.584C304.786 143.402 304.723 143.201 304.698 142.993C304.673 142.784 304.686 142.573 304.735 142.369C304.786 142.166 304.872 141.976 304.989 141.81C305.107 141.643 305.253 141.503 305.42 141.398L313.576 136.244C313.744 136.138 313.929 136.069 314.121 136.041C314.314 136.013 314.51 136.026 314.697 136.081C314.884 136.135 315.06 136.23 315.215 136.358C315.369 136.487 315.498 136.647 315.595 136.83C315.786 137.199 315.836 137.635 315.735 138.045C315.633 138.454 315.387 138.803 315.051 139.016L306.901 144.176L306.884 144.182Z" fill="white"/>
<path opacity="0.3" d="M289.003 155.326C288.665 155.536 288.265 155.591 287.89 155.48C287.515 155.369 287.195 155.101 287.001 154.734C286.808 154.367 286.757 153.932 286.857 153.523C286.958 153.115 287.203 152.766 287.539 152.554L295.695 147.394C296.032 147.182 296.433 147.123 296.809 147.232C297.185 147.341 297.506 147.608 297.702 147.974C297.8 148.157 297.864 148.358 297.89 148.567C297.916 148.776 297.904 148.989 297.855 149.193C297.805 149.398 297.72 149.589 297.602 149.757C297.484 149.926 297.338 150.067 297.17 150.173L289.009 155.326H289.003Z" fill="white"/>
<path opacity="0.3" d="M313.582 155.386L305.426 150.226C305.087 150.012 304.841 149.66 304.74 149.248C304.639 148.836 304.692 148.397 304.888 148.027C305.087 147.661 305.411 147.396 305.788 147.288C306.167 147.181 306.569 147.241 306.907 147.454L315.057 152.608C315.393 152.822 315.639 153.173 315.74 153.583C315.842 153.993 315.792 154.43 315.6 154.8C315.403 155.168 315.08 155.437 314.702 155.547C314.324 155.657 313.921 155.599 313.582 155.386Z" fill="white"/>
<path opacity="0.3" d="M297.708 143.584C297.512 143.95 297.192 144.218 296.816 144.327C296.44 144.437 296.039 144.38 295.701 144.17L287.545 139.016C287.378 138.911 287.232 138.771 287.114 138.605C286.997 138.438 286.911 138.248 286.861 138.045C286.811 137.841 286.798 137.63 286.823 137.422C286.848 137.213 286.911 137.012 287.007 136.83C287.203 136.463 287.525 136.197 287.901 136.088C288.277 135.98 288.678 136.038 289.015 136.251L297.176 141.404C297.343 141.51 297.489 141.65 297.605 141.817C297.722 141.984 297.808 142.174 297.856 142.378C297.906 142.581 297.917 142.792 297.891 143.001C297.865 143.209 297.8 143.409 297.703 143.59L297.708 143.584Z" fill="white"/>
<path d="M298.834 145.821C298.833 145.468 298.896 145.119 299.02 144.793C299.143 144.467 299.325 144.171 299.554 143.921C299.783 143.672 300.055 143.474 300.354 143.34C300.654 143.205 300.974 143.136 301.298 143.137C301.787 143.137 302.264 143.295 302.67 143.59C303.076 143.886 303.393 144.306 303.58 144.797C303.767 145.289 303.816 145.83 303.72 146.352C303.625 146.874 303.39 147.353 303.044 147.729C302.699 148.106 302.259 148.362 301.78 148.465C301.301 148.569 300.804 148.516 300.353 148.312C299.902 148.109 299.516 147.764 299.245 147.322C298.973 146.88 298.828 146.359 298.828 145.827L298.834 145.821Z" fill="#263238"/>
<path d="M86.8124 178.486C103.373 178.486 116.798 163.864 116.798 145.827C116.798 127.79 103.373 113.168 86.8124 113.168C70.252 113.168 56.8267 127.79 56.8267 145.827C56.8267 163.864 70.252 178.486 86.8124 178.486Z" fill="#263238"/>
<path opacity="0.4" d="M86.8124 165.848C96.965 165.848 105.195 156.885 105.195 145.827C105.195 134.77 96.965 125.805 86.8124 125.805C76.6598 125.805 68.4299 134.77 68.4299 145.827C68.4299 156.885 76.6598 165.848 86.8124 165.848Z" fill="white"/>
<path opacity="0.3" d="M86.8124 127.878H86.8066C85.9951 127.878 85.3374 128.595 85.3374 129.479V139.741C85.3374 140.625 85.9951 141.342 86.8066 141.342H86.8124C87.6239 141.342 88.2816 140.625 88.2816 139.741V129.479C88.2816 128.595 87.6239 127.878 86.8124 127.878Z" fill="white"/>
<path opacity="0.3" d="M86.8124 150.309H86.8066C85.9951 150.309 85.3374 151.025 85.3374 151.909V162.171C85.3374 163.055 85.9951 163.772 86.8066 163.772H86.8124C87.6239 163.772 88.2816 163.055 88.2816 162.171V151.909C88.2816 151.025 87.6239 150.309 86.8124 150.309Z" fill="white"/>
<path opacity="0.3" d="M92.392 144.181C92.2242 144.283 92.0391 144.348 91.8483 144.371C91.6568 144.395 91.4636 144.376 91.2791 144.318C91.0946 144.259 90.9222 144.162 90.773 144.03C90.6232 143.898 90.4994 143.736 90.408 143.551C90.3102 143.37 90.246 143.17 90.22 142.962C90.1934 142.754 90.205 142.542 90.2541 142.339C90.3027 142.136 90.3883 141.945 90.5046 141.778C90.6214 141.611 90.7678 141.471 90.9343 141.365L99.1018 136.212C99.2689 136.107 99.454 136.039 99.6455 136.012C99.837 135.985 100.032 136 100.218 136.055C100.404 136.11 100.579 136.204 100.732 136.333C100.885 136.461 101.013 136.622 101.109 136.804C101.205 136.986 101.267 137.187 101.292 137.395C101.317 137.603 101.303 137.814 101.253 138.017C101.202 138.219 101.115 138.409 100.997 138.575C100.879 138.741 100.732 138.88 100.565 138.984L92.4151 144.143L92.392 144.181Z" fill="white"/>
<path opacity="0.3" d="M72.5159 154.75C72.3227 154.383 72.2712 153.948 72.3719 153.539C72.4725 153.131 72.7178 152.783 73.0538 152.57L81.2097 147.411C81.3768 147.304 81.5619 147.235 81.7546 147.206C81.9466 147.177 82.1421 147.191 82.3295 147.245C82.5169 147.298 82.6928 147.392 82.8472 147.52C83.0011 147.648 83.1306 147.807 83.2284 147.99C83.4233 148.361 83.4754 148.8 83.3736 149.212C83.2718 149.624 83.0242 149.975 82.6847 150.189L74.5346 155.323C74.3674 155.43 74.1829 155.5 73.9909 155.529C73.7988 155.558 73.6039 155.546 73.4165 155.492C73.2285 155.439 73.0527 155.346 72.8982 155.219C72.7438 155.091 72.6136 154.932 72.5159 154.75Z" fill="white"/>
<path opacity="0.3" d="M101.103 154.8C101.007 154.982 100.879 155.142 100.727 155.269C100.575 155.397 100.4 155.491 100.214 155.545C100.029 155.6 99.8342 155.614 99.6433 155.586C99.4524 155.559 99.2685 155.491 99.1019 155.386L90.9344 150.226C90.5984 150.01 90.3543 149.657 90.2554 149.245C90.157 148.833 90.2114 148.396 90.4081 148.028C90.5047 147.846 90.6337 147.687 90.7875 147.56C90.9408 147.433 91.1155 147.34 91.3023 147.287C91.4886 147.233 91.6829 147.221 91.8744 147.25C92.0653 147.279 92.2492 147.348 92.4152 147.454L100.565 152.608C100.732 152.713 100.879 152.853 100.996 153.02C101.114 153.186 101.2 153.376 101.25 153.579C101.3 153.783 101.313 153.994 101.288 154.203C101.262 154.411 101.2 154.612 101.103 154.794V154.8Z" fill="white"/>
<path opacity="0.3" d="M83.2225 143.596C83.0259 143.962 82.7043 144.227 82.3277 144.335C81.9517 144.442 81.5514 144.383 81.2154 144.169L73.0595 139.016C72.8924 138.911 72.746 138.772 72.6286 138.605C72.5112 138.438 72.425 138.247 72.3747 138.045C72.3249 137.842 72.3122 137.63 72.3371 137.422C72.3625 137.213 72.425 137.012 72.5216 136.83C72.6188 136.647 72.7478 136.487 72.9016 136.358C73.0561 136.23 73.2319 136.135 73.4193 136.081C73.6067 136.027 73.8022 136.013 73.9949 136.041C74.1869 136.069 74.3726 136.138 74.5403 136.244L82.6904 141.397C83.0264 141.61 83.2717 141.958 83.3723 142.366C83.473 142.775 83.4215 143.211 83.2283 143.577L83.2225 143.596Z" fill="white"/>
<path d="M86.8124 143.137C87.3006 143.137 87.7784 143.295 88.1845 143.59C88.5905 143.886 88.9075 144.306 89.0943 144.797C89.2812 145.289 89.3303 145.83 89.2349 146.352C89.1395 146.874 88.904 147.353 88.5587 147.729C88.2134 148.106 87.7732 148.362 87.2943 148.465C86.8153 148.569 86.3184 148.516 85.8673 148.312C85.4161 148.109 85.0303 147.764 84.759 147.322C84.4871 146.88 84.3425 146.359 84.3425 145.827C84.3425 145.114 84.6028 144.429 85.0661 143.925C85.5289 143.42 86.1571 143.137 86.8124 143.137Z" fill="#263238"/>
<path opacity="0.3" d="M347.46 84.6608C347.698 84.5808 347.918 84.4497 348.109 84.2765C348.301 84.1032 348.458 83.8903 348.574 83.6503C348.689 83.4103 348.76 83.1482 348.782 82.8785C348.805 82.6083 348.778 82.3367 348.704 82.0778C348.357 75.2045 347.015 69.0809 343.145 64.8725C343.019 64.4233 342.756 64.0346 342.399 63.77C342.042 63.5054 341.614 63.3813 341.184 63.4172L318.336 65.7671C317.938 65.8169 317.565 65.9996 317.266 66.29C317.081 66.4721 316.931 66.6913 316.824 66.9364C316.717 67.1815 316.655 67.4473 316.643 67.7182C316.63 67.9897 316.667 68.2606 316.752 68.5158C316.836 68.7716 316.965 69.0066 317.133 69.2069L323.675 76.8866C323.899 77.1562 324.188 77.3522 324.508 77.4536L346.384 84.6734C346.736 84.7862 347.111 84.7818 347.46 84.6608Z" fill="black"/>
<path d="M120.064 72.0558C119.907 72.7331 119.986 73.4494 120.286 74.0668C120.586 74.6835 121.087 75.1567 121.69 75.3948L136.729 79.9812C138.085 80.4317 139.488 80.6925 140.905 80.7561L145.637 80.4159L141.171 54.1638C130.869 61.5348 130.181 61.8687 120.926 70.4493C120.48 70.8632 120.176 71.4296 120.064 72.0558Z" fill="#263238"/>
<path d="M217.654 30.6213L208.214 75.4521L220.563 74.4882L226.197 31.0182C223.313 30.8507 220.465 30.7184 217.654 30.6213Z" fill="#263238"/>
<path d="M256.657 66.1194L274.01 42.5259C274.522 41.8802 274.836 41.0757 274.907 40.2264C275.086 38.1348 273.871 36.2448 272.194 35.9865C268.642 35.4573 264.859 34.9533 261.082 34.4619" fill="#263238"/>
<path d="M133.722 76.5699C133.008 76.5787 132.299 76.4344 131.637 76.1453C130.974 75.8561 130.371 75.4277 129.86 74.884C129.35 74.3403 128.943 73.6927 128.663 72.9776C128.382 72.2626 128.234 71.4946 128.227 70.7172C128.213 69.3677 128.622 68.0536 129.386 66.9914C130.151 65.9298 131.225 65.1839 132.432 64.8771L139.674 63.0249L141.519 76.2549L133.866 76.5699H133.722Z" fill="#FAD757"/>
<path opacity="0.3" d="M139.383 76.3366L141.506 76.2484L139.661 63.0247L137.596 63.5602L139.383 76.3366Z" fill="black"/>
<path opacity="0.6" d="M220.316 74.1748C220.409 78.8242 220.363 83.7382 219.9 86.2456C218.876 91.8274 210.888 132.639 210.888 132.639" stroke="black" stroke-width="0.314249" stroke-linecap="round" stroke-linejoin="round"/>
<path opacity="0.6" d="M120.011 72.7751C120.011 72.7751 122.4 108.055 126.032 115.199C129.578 122.161 139.851 138.705 139.851 138.705" stroke="black" stroke-width="0.314249" stroke-linecap="round" stroke-linejoin="round"/>
<path opacity="0.6" d="M111.86 69.5786C111.86 69.5786 86.3283 76.4519 78.8145 77.7686C72.6426 78.8459 47.5792 85.4924 40.0076 88.8566" stroke="black" stroke-width="0.314249" stroke-linecap="round" stroke-linejoin="round"/>
<path opacity="0.8" d="M292.143 40.7659C291.58 41.3115 291.24 42.0782 291.197 42.8965C291.153 43.7155 291.41 44.5194 291.911 45.1318L295.052 48.8551C295.414 49.274 295.874 49.5764 296.382 49.7308L334.894 61.3669C335.566 61.5622 336.258 61.6636 336.954 61.6693H344.606C344.207 61.3795 343.796 61.1086 343.374 60.8629L306.222 39.5626C305.772 39.3188 305.429 38.891 305.268 38.3725C305.108 37.854 305.143 37.2876 305.365 36.7969L293.299 40.0855C292.87 40.2102 292.474 40.4433 292.143 40.7659Z" fill="white"/>
<path d="M148.087 67.4202C147.74 67.6533 143.651 72.2523 143.651 72.2523L144.449 77.9601L149.591 72.1767L148.087 67.4202Z" fill="#263238"/>
<path d="M154.239 79.3524C154.023 79.469 153.789 79.5376 153.55 79.5546C153.31 79.5723 153.07 79.5376 152.842 79.4532C152.614 79.3688 152.405 79.2365 152.224 79.0632C152.044 78.8906 151.897 78.6802 151.792 78.4452L143.619 60.4461C143.404 59.9736 143.371 59.4274 143.526 58.9272C143.681 58.4276 144.012 58.0156 144.446 57.7812C144.88 57.5481 145.382 57.5116 145.84 57.6804C146.299 57.8492 146.677 58.2096 146.892 58.6821L155.048 76.6875C155.262 77.1587 155.298 77.7024 155.146 78.2014C154.995 78.7004 154.668 79.1136 154.239 79.3524Z" fill="#263238"/>
<path d="M163.047 57.7007C163.047 57.7007 167.096 75.284 169.462 75.9707C173.766 77.1677 188.55 75.8258 188.261 75.3029L187.636 67.2137C187.636 67.2137 172.73 69.9038 172.846 69.614L167.241 55.9304L163.047 57.7007Z" fill="#EBB373"/>
<path d="M166.808 57.0765C166.808 57.0765 168.139 55.7283 168.173 54.0966C168.208 52.4649 168.642 51.1671 168.59 49.9449C168.538 48.7227 167.606 50.0205 167.236 50.8206C166.866 51.6207 166.438 52.5153 165.935 52.1121C165.432 51.7089 163.233 46.3854 162.464 45.9192C161.695 45.453 161.816 46.4358 161.816 46.4358C161.816 46.4358 161.238 45.1758 160.723 45.2577C160.584 45.2892 160.307 45.5916 160.486 46.2216C160.873 47.6328 161.834 50.5434 161.834 50.5434C161.782 50.3733 160.359 46.8705 160.098 46.3791C159.734 45.7491 159.265 45.6231 158.942 45.8625C158.461 46.209 160.098 50.619 160.041 50.8584C160.041 50.8584 159.179 48.2817 158.45 48.162C157.721 48.0423 158.178 49.6866 158.837 51.06C159.416 52.32 160.324 54.9597 161.053 56.1756C161.949 57.675 162.857 58.4562 164.379 58.2042C165.264 58.0625 166.101 57.6738 166.808 57.0765Z" fill="#EBB373"/>
<path opacity="0.3" d="M161.937 46.6025C162.365 47.6357 162.753 48.7004 163.094 49.7525" stroke="black" stroke-width="0.157125" stroke-linecap="round" stroke-linejoin="round"/>
<path opacity="0.3" d="M160.346 51.8711C161.398 50.9337 162.679 50.3516 164.03 50.1953" stroke="black" stroke-width="0.157125" stroke-linecap="round" stroke-linejoin="round"/>
<path opacity="0.3" d="M165.596 52.7319C165.133 53.0608 164.788 53.5541 164.622 54.1286C164.455 54.7032 164.477 55.3231 164.682 55.8819" stroke="black" stroke-width="0.157125" stroke-linecap="round" stroke-linejoin="round"/>
<path d="M205.206 65.9577C202.498 62.0643 198.201 62.4549 195.407 62.9904L189.877 63.9858C189.701 64.0166 189.527 64.0607 189.357 64.1181L188.096 64.5465L176.255 68.673L179.113 76.9323L182.982 76.4157L182.334 77.5497L186.129 77.2914L206.842 76.1133V71.5332C206.866 69.5304 206.292 67.5736 205.206 65.9577Z" fill="#263238"/>
<path d="M204.088 72.3773C204.088 72.3773 201.49 91.3466 199.651 93.3563C195.267 98.1569 179.03 84.9458 179.03 84.9458L179.533 79.8491L193.554 86.1491L196.18 70.0715L204.088 72.3773Z" fill="#EBB373"/>
<path d="M206.197 71.1341C206.07 71.6066 204.954 84.8366 204.954 84.8366L193.061 83.627C193.061 83.627 193.68 79.9541 194.577 73.547C195.52 66.8564 196.063 63.467 199.112 62.9252C204.879 61.8794 206.197 71.1341 206.197 71.1341Z" fill="#263238"/>
<path d="M202.233 41.2976C204.026 44.7185 204.651 46.7723 204.813 50.0546C205.004 53.8913 204.842 57.2807 204.055 58.2446C203.026 59.5361 191.874 60.7646 185.621 60.4685C185.395 60.4685 185.21 58.3013 185.21 58.3013C185.21 58.3013 184.325 60.4118 184.053 60.3992C182.347 60.311 181.254 60.2417 181.254 60.2417C181.254 60.2417 182.671 57.0917 184.4 45.6383C185.245 40.0565 190.404 37.8263 193.441 37.4105C198.485 36.749 202.233 41.2976 202.233 41.2976Z" fill="#263238"/>
<path d="M187.358 52.1155C185.721 49.0348 184.096 40.7314 190.915 38.1673C199.424 34.9732 203.23 40.8826 203.965 46.7353C204.699 52.588 201.651 57.0169 196.04 56.5759C190.43 56.1349 188.486 54.2449 187.358 52.1155Z" fill="#263238"/>
<path d="M199.177 52.4573L194.15 57.4973L193.201 58.6124C193.483 59.3822 193.677 60.1861 193.78 61.0064C193.852 61.8701 193.627 62.7319 193.149 63.4256L192.021 66.2165C194.538 64.0682 200.27 62.9216 200.27 62.9216C199.314 59.5372 198.944 55.9891 199.177 52.4573Z" fill="#EBB373"/>
<path opacity="0.2" d="M193.781 61.3196C195.135 60.5321 196.674 59.1209 196.546 57.4199C196.516 56.7962 196.416 56.1788 196.251 55.5803L193.4 59.3162C193.593 59.967 193.721 60.6392 193.781 61.3196Z" fill="black"/>
<path d="M200.781 46.9303C200.099 52.279 199.914 54.5533 197.247 57.2434C193.239 61.288 187.414 59.5618 186.621 54.1879C185.91 49.3495 187.142 41.4115 192.082 39.3955C193.129 38.9262 194.274 38.7693 195.396 38.9425C196.517 39.1158 197.576 39.6122 198.464 40.3802C199.35 41.1482 200.033 42.1606 200.44 43.3122C200.848 44.4632 200.965 45.7125 200.781 46.9303Z" fill="#EBB373"/>
<path d="M194.513 48.5658C194.461 49.1076 194.137 49.536 193.79 49.5297C193.443 49.5234 193.212 49.0698 193.247 48.5343C193.281 47.9988 193.623 47.5641 193.97 47.5704C194.317 47.5767 194.565 48.024 194.513 48.5658Z" fill="#263238"/>
<path d="M189.403 48.2358C189.351 48.7524 189.033 49.1619 188.692 49.1556C188.35 49.1493 188.113 48.7209 188.16 48.2043C188.206 47.6877 188.53 47.2782 188.871 47.2908C189.212 47.3034 189.449 47.7003 189.403 48.2358Z" fill="#263238"/>
<path d="M195.288 46.6323C195.254 46.6386 195.22 46.638 195.187 46.6292C195.155 46.6203 195.124 46.6046 195.097 46.5819C194.849 46.369 194.559 46.2216 194.25 46.1516C193.941 46.0817 193.621 46.0911 193.316 46.1787C193.285 46.1907 193.253 46.1957 193.221 46.1938C193.188 46.1919 193.157 46.1838 193.128 46.168C193.099 46.1529 193.073 46.1315 193.051 46.105C193.03 46.0792 193.014 46.0483 193.003 46.0149C192.989 45.9425 192.999 45.8669 193.034 45.8026C193.068 45.7383 193.123 45.6905 193.188 45.6684C193.573 45.5531 193.977 45.5367 194.369 45.6205C194.76 45.7049 195.128 45.887 195.444 46.1535C195.468 46.1775 195.489 46.2064 195.502 46.2386C195.515 46.2713 195.522 46.3066 195.522 46.3425C195.522 46.3784 195.515 46.4137 195.502 46.4465C195.489 46.4786 195.468 46.5082 195.444 46.5315C195.403 46.5819 195.348 46.6172 195.288 46.6323Z" fill="#263238"/>
<path d="M187.762 45.5292C187.709 45.4989 187.669 45.4466 187.652 45.3843C187.645 45.3515 187.643 45.3168 187.647 45.2828C187.652 45.2494 187.663 45.2167 187.679 45.1877C187.695 45.1581 187.716 45.1329 187.741 45.1121C187.767 45.0919 187.795 45.0774 187.826 45.0693C188.197 44.9357 188.592 44.8973 188.98 44.9571C189.367 45.017 189.736 45.1745 190.058 45.4157C190.082 45.4384 190.101 45.4661 190.113 45.497C190.126 45.5279 190.133 45.5613 190.133 45.5953C190.133 45.6293 190.126 45.6627 190.113 45.6936C190.101 45.7251 190.082 45.7522 190.058 45.7749C190.014 45.8271 189.954 45.8599 189.888 45.8675C189.824 45.8744 189.758 45.8549 189.706 45.8127C189.449 45.6237 189.155 45.5021 188.848 45.4573C188.541 45.4126 188.229 45.446 187.936 45.5543C187.877 45.5663 187.816 45.5575 187.762 45.5292Z" fill="#263238"/>
<path d="M196.845 41.9442C195.202 43.6641 195.688 50.4807 200.061 51.5895C205.192 50.5626 201.762 36.8349 196.845 41.9442Z" fill="#263238"/>
<path d="M190.473 53.2341C190.783 53.8862 191.05 54.5621 191.272 55.2564L191.624 55.1871C193.209 54.8658 193.851 54.1476 194.077 53.442C194.182 53.0968 194.209 52.7295 194.158 52.371C194.133 52.1669 194.082 51.9678 194.008 51.7788C193.261 52.497 191.798 52.9191 191.011 53.1144C190.682 53.2341 190.473 53.2341 190.473 53.2341Z" fill="#263238"/>
<path d="M191.016 53.1449L191.265 53.7308C192.763 53.4284 193.775 52.9937 194.157 52.4015C194.132 52.1974 194.081 51.9983 194.007 51.8093C193.266 52.5275 191.803 52.9496 191.016 53.1449Z" fill="white"/>
<path d="M191.632 55.2126C193.216 54.8913 193.859 54.1731 194.084 53.4675C193.484 53.603 192.91 53.8525 192.389 54.2046C192.045 54.4453 191.78 54.7981 191.632 55.2126Z" fill="#DC5753"/>
<path d="M190.802 47.8923C190.258 49.1523 189.568 50.3317 188.749 51.4014C189.327 52.1007 190.484 51.8046 190.484 51.8046L190.802 47.8923Z" fill="#E4873E"/>
<path d="M192.997 47.2759L194.119 47.6224C193.575 48.2398 192.997 47.2759 192.997 47.2759Z" fill="#263238"/>
<path d="M187.954 46.9761L189.07 47.3226C188.532 47.9148 187.954 46.9761 187.954 46.9761Z" fill="#263238"/>
<path d="M192.17 38.2855C190.186 38.9155 187.965 42.475 187.543 43.8736C190.29 44.5036 197.879 42.0592 197.879 42.0592C197.879 42.0592 202.802 43.8106 200.39 40.9315C197.978 38.0524 192.17 38.2855 192.17 38.2855Z" fill="#263238"/>
<path d="M202.07 51.3625C201.502 52.3245 200.608 53.0037 199.583 53.2525C198.264 53.5423 197.686 51.2239 198.189 49.819C198.427 49.189 198.864 48.6712 199.42 48.3593C199.977 48.0481 200.617 47.9624 201.226 48.118C202.441 48.4834 202.788 50.1403 202.07 51.3625Z" fill="#EBB373"/>
<path d="M185.149 44.6677C184.848 47.0334 184.314 49.3562 183.559 51.5977C182.732 53.809 181.014 58.3702 179.134 59.5987" stroke="#263238" stroke-width="0.314249" stroke-miterlimit="10" stroke-linecap="round"/>
<path d="M199.194 53.1027C199.188 53.2344 199.205 53.3654 199.246 53.4889C199.286 53.613 199.349 53.7264 199.43 53.824C199.512 53.9211 199.61 53.9998 199.719 54.0559C199.828 54.1113 199.947 54.1428 200.067 54.1485C200.249 54.1586 200.429 54.1094 200.586 54.0074C200.742 53.9053 200.867 53.7547 200.944 53.5758C201.022 53.3963 201.049 53.1959 201.022 53C200.995 52.8034 200.915 52.6207 200.793 52.474C200.671 52.3272 200.511 52.2238 200.334 52.176C200.158 52.1281 199.972 52.1388 199.801 52.2062C199.629 52.273 199.48 52.3946 199.372 52.554C199.264 52.714 199.202 52.9049 199.194 53.1027Z" fill="#FAD757"/>
<path opacity="0.1" d="M201.097 49.7864C200.881 49.7121 200.652 49.69 200.427 49.7228C200.202 49.7555 199.986 49.8418 199.796 49.9754C199.604 50.1165 199.444 50.303 199.329 50.5216C199.214 50.7402 199.145 50.984 199.13 51.2354" stroke="black" stroke-width="0.314249" stroke-linecap="round" stroke-linejoin="round"/>
<path d="M185.103 83.3771L179.585 79.8491L178.081 77.7512C178.081 77.7512 176.53 75.7604 175.281 75.6344C174.654 75.6085 174.03 75.749 173.465 76.0439C173.465 76.0439 172.019 77.0456 172.886 78.5639C172.886 78.5639 171.458 79.3703 172.429 81.0839C172.429 81.0839 171.058 81.0839 172.233 82.6715C172.685 83.2624 173.241 83.7488 173.87 84.1016C174.497 84.4544 175.184 84.6667 175.888 84.7253C176.702 84.8128 177.524 84.7335 178.312 84.4922L184.403 88.8518L185.103 83.3771Z" fill="#EBB373"/>
<path d="M194.119 76.8248L195.114 70.0334L192.077 76.9067L194.119 76.8248Z" fill="black"/>
<path d="M183.017 76.3889L185.499 70.8953L180.733 76.6913L183.017 76.3889Z" fill="black"/>
</svg>
