<svg width="108" height="99" viewBox="0 0 108 99" fill="none" xmlns="http://www.w3.org/2000/svg">
<path d="M38.2478 32.4139C35.9746 31.7685 33.5383 32.0513 31.4734 33.2003C29.7478 34.1715 28.4062 35.6883 27.099 37.1755L11.1438 55.3325C10.9694 55.5309 10.7862 55.7493 10.767 56.0125C10.7118 56.7637 11.827 56.9077 12.5502 56.6989C14.5838 56.1141 16.443 55.0741 18.3622 54.1877C24.0062 51.5925 30.1942 50.3541 35.855 47.7981C37.4638 47.0717 39.055 46.2197 40.283 44.9541C41.8622 43.3293 42.7046 41.1691 43.291 39.0179C43.5134 38.2027 43.9718 37.1571 43.4638 36.3731C42.9012 35.5249 42.2174 34.7638 41.4342 34.1139C40.5004 33.334 39.4156 32.7552 38.2478 32.4139Z" fill="#22CCB2"/>
<path d="M67.96 61.4289C69.1328 63.2185 70.1552 65.3417 69.68 67.4289C69.2648 69.2497 67.8048 70.6201 66.4 71.8537C59.5688 77.8673 52.395 83.4801 44.9146 88.6641C44.481 88.9649 43.9338 89.2761 43.457 89.0505C42.817 88.7473 42.9058 87.8193 43.1194 87.1457C45.3906 79.9761 52.1986 73.0993 54.0464 65.8089C54.5264 63.9225 52.9474 62.6697 53.9218 60.9857C55.0888 58.9705 57.1456 57.6577 59.3328 56.9857C59.9048 56.8153 60.4856 56.6793 61.0736 56.5785C61.5336 56.4985 62.0064 56.3289 62.4752 56.3129C63.5152 56.2769 64.5232 57.3625 65.208 58.0241C66.2664 59.0377 67.1592 60.2073 67.96 61.4289Z" fill="#22CCB2"/>
<path d="M100.32 0.972655C102.228 0.140655 104.624 -0.608145 106.228 0.717455C106.93 1.29666 107.32 2.18626 107.46 3.08546C107.843 5.55426 106.516 7.93506 105.196 10.0559C96.438 24.1123 85.794 36.9015 73.5612 48.0665C68.7284 52.4753 63.65 56.6265 59.1452 61.3713C56.6652 63.9857 53.9798 66.9713 50.3862 67.2633C47.4998 67.4977 44.7934 65.8825 42.5358 64.0689C39.219 61.4009 36.3788 58.1905 34.1358 54.5737C32.6526 52.1801 31.4062 49.3737 32.0086 46.6201C32.511 44.3289 34.1822 42.6007 35.9078 41.1255C37.5454 39.7207 39.2518 38.4335 40.9854 37.1535C43.2502 35.4735 45.4654 33.7191 47.7294 32.0391C49.9934 30.3591 52.2774 28.7111 54.5828 27.0903C56.8884 25.4695 59.2252 23.8631 61.5852 22.2999C63.9452 20.7367 66.3004 19.2183 68.6916 17.7295C71.0828 16.2407 73.4916 14.7903 75.9284 13.3767C78.3652 11.9631 80.8364 10.5767 83.3244 9.24466C85.8124 7.91266 88.3236 6.61505 90.8564 5.36785C93.3892 4.12065 95.9284 2.92706 98.4972 1.77826C99.1036 1.50674 99.7116 1.23826 100.32 0.972655Z" fill="#FCE389"/>
<path d="M103.096 9.92272C103.034 9.92248 102.972 9.90384 102.92 9.86912C100.554 8.30232 98.6416 6.14032 97.376 3.60032C97.3576 3.56272 97.3464 3.52176 97.3432 3.47984C97.3408 3.43792 97.3456 3.39584 97.3592 3.35592C97.3728 3.31608 97.3936 3.27928 97.4208 3.24752C97.4488 3.21584 97.4824 3.18984 97.52 3.17112C97.5576 3.15232 97.5984 3.1412 97.64 3.13824C97.6824 3.13528 97.724 3.14064 97.764 3.154C97.804 3.16736 97.8408 3.1884 97.8728 3.216C97.904 3.24352 97.9304 3.27712 97.9488 3.31472C99.164 5.75432 101.001 7.83088 103.273 9.33552C103.33 9.37344 103.374 9.42888 103.398 9.4936C103.422 9.5584 103.423 9.62896 103.403 9.69496C103.383 9.76088 103.343 9.81872 103.287 9.85976C103.232 9.9008 103.165 9.92288 103.096 9.92272Z" fill="black"/>
<path d="M60.744 38.935C62.0992 40.1134 64.3704 40.0262 65.6312 38.747C66.892 37.4678 66.9472 35.1966 65.7496 33.8582C64.676 32.6582 62.6432 32.367 61.1896 33.0038C59.928 33.5566 59.504 34.8718 59.5496 36.1638C59.5872 37.207 59.94 38.2342 60.744 38.935Z" fill="white"/>
<path d="M73.2116 24.6994C72.1636 25.1138 71.5188 26.3306 71.7132 27.4418C71.9076 28.553 72.886 29.4626 74.0012 29.6306C75.1164 29.7986 76.2924 29.2458 76.922 28.3106C77.642 27.2394 77.5924 25.6706 76.71 24.7306C75.8276 23.7906 74.1612 23.677 73.2364 24.577L73.2116 24.6994Z" fill="white"/>
<path d="M83.2932 17.4703C82.4996 17.9087 82.1468 18.9735 82.4596 19.8247C82.7724 20.6759 83.6756 21.2503 84.582 21.2439C85.4884 21.2375 86.354 20.6839 86.8124 19.9047C87.3444 18.9959 87.274 17.6903 86.4556 17.0247C85.5756 16.3143 84.25 16.5799 83.278 17.1551L83.2932 17.4703Z" fill="white"/>
<path d="M92.9108 11.9046C92.6036 11.9784 92.3324 12.1586 92.1452 12.4134C91.958 12.6682 91.8668 12.9809 91.8876 13.2964C91.9092 13.6118 92.0412 13.9096 92.2604 14.137C92.4804 14.3645 92.7732 14.5068 93.0876 14.539C93.3716 14.5617 93.6572 14.511 93.9156 14.3918C94.6548 14.0678 95.19 13.2126 94.9612 12.4382C94.7324 11.6638 93.6012 11.2726 93.046 11.8582L92.9108 11.9046Z" fill="white"/>
<path d="M52.7074 41.0379C52.6243 41.0377 52.5446 41.0053 52.485 40.9475C49.6621 38.2201 47.2994 35.0535 45.489 31.5707C45.4696 31.5334 45.4578 31.4926 45.4542 31.4508C45.4505 31.4089 45.4551 31.3667 45.4678 31.3266C45.4805 31.2865 45.5009 31.2493 45.5279 31.2172C45.555 31.185 45.5881 31.1585 45.6254 31.1391C45.6627 31.1197 45.7034 31.1078 45.7453 31.1042C45.7872 31.1006 45.8294 31.1053 45.8694 31.1179C45.9095 31.1305 45.9467 31.151 45.9789 31.1781C46.011 31.2051 46.0376 31.2382 46.057 31.2755C47.8358 34.6969 50.1567 37.8078 52.9298 40.4875C52.9758 40.5317 53.0074 40.5888 53.0207 40.6512C53.034 40.7137 53.0283 40.7786 53.0044 40.8377C52.9805 40.8969 52.9394 40.9476 52.8866 40.9833C52.8336 41.0189 52.7712 41.038 52.7074 41.0379Z" fill="black"/>
<path d="M57.016 45.668C56.9488 45.668 56.8832 45.6464 56.8288 45.6064C55.856 44.9032 55.0176 44.0304 54.3552 43.0296C54.332 42.9943 54.316 42.9551 54.308 42.9138C54.3 42.8726 54.3 42.8301 54.3088 42.7889C54.3168 42.7477 54.3336 42.7086 54.3568 42.6737C54.38 42.6389 54.4104 42.609 54.4456 42.5858C54.4808 42.5626 54.52 42.5464 54.5608 42.5384C54.6024 42.5303 54.6448 42.5305 54.6856 42.5389C54.7272 42.5472 54.7664 42.5636 54.8008 42.5871C54.836 42.6106 54.8656 42.6407 54.8888 42.6758C55.5096 43.6128 56.2936 44.4296 57.204 45.088C57.2592 45.1272 57.3008 45.1832 57.3216 45.248C57.3432 45.312 57.3432 45.3816 57.3224 45.4464C57.3008 45.5112 57.26 45.5672 57.2056 45.6072C57.1504 45.6464 57.084 45.668 57.016 45.668Z" fill="black"/>
<path d="M59.512 48.0709C59.456 48.0709 59.4008 48.0573 59.352 48.0301C58.992 47.8253 58.6792 47.5476 58.432 47.2156C58.3816 47.1468 58.3608 47.0612 58.3736 46.9772C58.3856 46.894 58.4312 46.8181 58.5 46.7677C58.568 46.7173 58.6536 46.6965 58.7376 46.7093C58.8216 46.7213 58.8968 46.7668 58.9472 46.8356C59.14 47.0964 59.3856 47.3148 59.6672 47.4756C59.7288 47.51 59.7776 47.5645 59.8048 47.6301C59.832 47.6957 59.8368 47.7676 59.8184 47.8364C59.8008 47.9052 59.76 47.9653 59.704 48.0085C59.6472 48.0517 59.5784 48.0741 59.5072 48.0741L59.512 48.0709Z" fill="black"/>
<path d="M63.146 52.1173C63.0732 52.1173 63.0028 52.0925 62.946 52.0469C62.1868 51.4357 61.4796 50.7637 60.8308 50.0373C60.8028 50.0053 60.7812 49.9685 60.7676 49.9293C60.754 49.8893 60.7484 49.8469 60.7508 49.8045C60.7532 49.7629 60.7636 49.7213 60.782 49.6837C60.8004 49.6461 60.826 49.6117 60.858 49.5837C60.8892 49.5557 60.926 49.5341 60.966 49.5205C61.006 49.5069 61.0476 49.5005 61.09 49.5037C61.1324 49.5061 61.1732 49.5165 61.2108 49.5349C61.2492 49.5533 61.2828 49.5789 61.3108 49.6109C61.9364 50.3117 62.6188 50.9597 63.3508 51.5485C63.4028 51.5901 63.4404 51.6469 63.458 51.7109C63.4756 51.7749 63.4732 51.8429 63.4508 51.9053C63.4284 51.9677 63.3868 52.0221 63.3324 52.0597C63.278 52.0981 63.2124 52.1181 63.146 52.1173Z" fill="black"/>
<path d="M67.484 55.588C67.412 55.588 67.3424 55.5632 67.2856 55.5192L64.6328 53.4248C64.6 53.3984 64.5728 53.3656 64.552 53.3288C64.532 53.292 64.5184 53.2512 64.5136 53.2096C64.5088 53.168 64.5128 53.1256 64.524 53.0848C64.536 53.044 64.5552 53.0064 64.5816 52.9736C64.608 52.94 64.6408 52.9128 64.6776 52.8928C64.7144 52.872 64.7552 52.8592 64.7968 52.8544C64.8384 52.8496 64.8808 52.8528 64.9216 52.8648C64.9624 52.876 65 52.896 65.0328 52.9224L67.6856 55.0168C67.7376 55.0576 67.776 55.1144 67.7944 55.1784C67.8136 55.2416 67.812 55.3096 67.7896 55.3728C67.768 55.4352 67.7272 55.4904 67.6728 55.5288C67.6184 55.5672 67.5536 55.588 67.4872 55.588H67.484Z" fill="black"/>
<path d="M28.6934 62.5236C21.4051 65.3468 14.4598 68.986 7.99016 73.3716C7.47736 73.7188 6.95016 74.0916 6.65736 74.6388C6.36456 75.186 6.40056 75.9588 6.89736 76.326C7.36056 76.6668 7.99976 76.5428 8.57336 76.4996C9.14696 76.4564 9.86216 76.6164 10.0086 77.1724C10.1214 77.6028 9.82216 78.022 9.54216 78.3668C6.57208 82.0348 3.76728 85.83 1.12776 89.7524C0.836559 90.1852 0.538959 90.6428 0.487759 91.162C0.436559 91.6812 0.727761 92.2724 1.23656 92.3764C1.53736 92.438 1.84376 92.3236 2.12456 92.1996C4.01016 91.3644 5.59976 89.9988 7.21736 88.7196C10.1013 86.4396 13.155 84.3828 16.3518 82.5676C16.8526 82.2828 17.5062 82.0076 17.963 82.3612L16.8638 86.0244C16.6566 86.7148 16.5318 87.6372 17.155 88.0004C17.6646 88.298 18.3022 87.9764 18.7878 87.642C20.4371 86.5076 21.9258 85.1564 23.2134 83.6244C22.7054 84.3588 23.5494 85.4148 24.4422 85.4364C25.335 85.458 26.1054 84.8436 26.7622 84.2364C30.4294 80.8452 33.3134 76.6628 35.5342 72.1884C36.3558 70.5332 37.1022 68.7884 37.2086 66.9436C37.3046 65.2852 36.7046 63.8868 35.739 62.5748C34.8822 61.4108 32.9542 61.4548 31.6854 61.658C30.659 61.8244 29.6614 62.15 28.6934 62.5236Z" fill="#878CED"/>
<path d="M14.5266 79.3365C14.0834 79.3365 13.6578 79.1629 13.5666 78.7397C13.5106 78.4757 13.6306 78.2413 13.6954 78.1157C14.6554 76.2453 16.2706 74.8357 17.8738 73.5909C20.8044 71.3165 23.9658 69.3573 27.3058 67.7437C27.9554 67.4301 28.821 67.0597 29.7674 66.9765C30.5442 66.9077 31.2402 67.1021 31.677 67.5085C31.84 67.6613 31.9681 67.8477 32.0525 68.0549C32.1368 68.2621 32.1754 68.4845 32.1658 68.7085C32.1482 69.8405 31.5578 71.1781 30.4114 72.6837C29.1834 74.2981 27.5378 75.5701 26.0914 76.6037C25.4762 77.0429 24.8114 77.4709 24.0266 77.4709H24.0226C23.7638 77.4661 23.5094 77.4037 23.2778 77.2885C23.0464 77.1725 22.8438 77.0061 22.685 76.8021C22.5545 76.6317 22.4703 76.4309 22.441 76.2189C21.1226 76.3621 19.9378 77.0277 18.6882 77.7301C17.4602 78.4205 16.1898 79.1341 14.7578 79.3245C14.681 79.3333 14.6038 79.3373 14.5266 79.3365ZM27.5874 68.3205C24.2876 69.9133 21.1643 71.8493 18.269 74.0957C16.725 75.2957 15.1706 76.6485 14.269 78.4077C14.2294 78.4677 14.2047 78.5365 14.197 78.6085C14.2058 78.6509 14.3954 78.7237 14.677 78.6885C15.9874 78.5141 17.2034 77.8309 18.3794 77.1685C19.745 76.4005 21.1578 75.6069 22.7794 75.5509C22.8302 75.5485 22.8806 75.5589 22.9267 75.5797C22.9728 75.6013 23.0132 75.6333 23.0444 75.6733C23.0757 75.7133 23.097 75.7605 23.1066 75.8101C23.1161 75.8597 23.1137 75.9117 23.0994 75.9605C23.0802 76.0389 23.0798 76.1213 23.0985 76.2005C23.1171 76.2789 23.1542 76.3525 23.2066 76.4149C23.3046 76.5389 23.4282 76.6405 23.5691 76.7117C23.7099 76.7837 23.8646 76.8245 24.0226 76.8309C24.617 76.8309 25.185 76.4613 25.7154 76.0829C27.1234 75.0789 28.7218 73.8429 29.8986 72.2989C30.6282 71.3389 31.4986 69.9373 31.5218 68.6989C31.5302 68.5653 31.509 68.4309 31.4598 68.3069C31.4106 68.1821 31.3345 68.0701 31.237 67.9789C30.937 67.7005 30.4074 67.5645 29.8194 67.6165C29.1618 67.6741 28.4714 67.8917 27.5794 68.3229L27.5874 68.3205Z" fill="white"/>
<path d="M2.03655 98.634C1.97343 98.634 1.91167 98.6148 1.85919 98.5796C1.80671 98.5444 1.76575 98.4948 1.74159 98.4364C1.71735 98.378 1.71095 98.314 1.72319 98.2516C1.73535 98.19 1.76567 98.1332 1.81015 98.0884C4.90127 94.9908 8.19663 92.1044 11.6741 89.4484C11.7418 89.3988 11.8261 89.378 11.9089 89.39C11.9917 89.402 12.0665 89.446 12.1173 89.5124C12.1681 89.5788 12.1907 89.6628 12.1805 89.746C12.1701 89.8292 12.1277 89.9052 12.0621 89.9572C8.60871 92.5956 5.33631 95.4628 2.26695 98.5404C2.23679 98.57 2.20079 98.594 2.16127 98.61C2.12167 98.626 2.07927 98.634 2.03655 98.634Z" fill="black"/>
<path d="M10.379 95.2468C10.3204 95.2468 10.263 95.23 10.213 95.1996C10.1629 95.1692 10.1222 95.126 10.0952 95.074C10.0682 95.022 10.056 94.9636 10.0599 94.9052C10.0638 94.8468 10.0838 94.7908 10.1174 94.7428C10.8 93.77 11.6148 92.898 12.5382 92.1508C12.6047 92.1044 12.6863 92.0852 12.7665 92.0964C12.8466 92.1084 12.9194 92.15 12.9702 92.2132C13.021 92.2756 13.0458 92.3556 13.0399 92.4364C13.034 92.5172 12.9977 92.5932 12.9382 92.6484C12.0609 93.358 11.2868 94.1868 10.6382 95.1108C10.609 95.1524 10.5702 95.186 10.525 95.21C10.48 95.2332 10.4299 95.246 10.379 95.2468Z" fill="black"/>
<path d="M19.9806 93.824C19.9202 93.824 19.8611 93.8072 19.81 93.7752C19.7589 93.7424 19.7178 93.6969 19.6917 93.6425C19.6655 93.5881 19.6552 93.5273 19.662 93.4681C19.6689 93.4081 19.6925 93.3512 19.7302 93.304C20.6057 92.2096 21.5586 91.18 22.5814 90.2232C22.6434 90.1648 22.726 90.1345 22.8108 90.1369C22.8957 90.1401 22.9758 90.1769 23.0338 90.2385C23.0917 90.3009 23.1226 90.3833 23.1197 90.4681C23.1168 90.5529 23.0802 90.6329 23.0182 90.6913C22.0167 91.6273 21.0839 92.6336 20.227 93.704C20.1974 93.7408 20.1599 93.7705 20.1173 93.7913C20.0746 93.8121 20.028 93.8232 19.9806 93.824Z" fill="black"/>
<path d="M1.56864 82.5324C1.5032 82.5332 1.43912 82.514 1.38496 82.4772C1.33088 82.4404 1.2892 82.3884 1.26568 82.3276C1.24216 82.266 1.23784 82.1996 1.25344 82.1364C1.26896 82.0724 1.3036 82.0156 1.35264 81.9724C2.07208 81.3148 2.83336 80.7044 3.63184 80.146C3.70136 80.0972 3.78744 80.078 3.87104 80.0932C3.95456 80.1076 4.0288 80.1556 4.07744 80.2252C4.126 80.2948 4.14496 80.3804 4.13008 80.4644C4.1152 80.5476 4.06776 80.622 3.99824 80.6708C3.22152 81.214 2.48128 81.8076 1.78224 82.4484C1.72416 82.502 1.64784 82.5324 1.56864 82.5324Z" fill="black"/>
<path d="M31.6702 35.7002C30.2349 36.8544 28.9591 38.1941 27.8766 39.6842C27.6158 40.0442 27.3542 40.4602 27.419 40.8994C28.459 40.6738 29.247 39.8658 30.059 39.185C31.8167 37.7198 33.9198 36.7285 36.1686 36.305C36.4446 36.253 36.7286 36.2066 36.9686 36.0514C37.9238 35.421 36.5078 34.5682 35.9438 34.2914C35.1318 33.8978 34.0462 34.2594 33.2934 34.6298C32.7146 34.9258 32.1702 35.2848 31.6702 35.7002Z" fill="white"/>
<path d="M63.2468 72.1286C63.182 72.1294 63.1172 72.1102 63.0636 72.0734C63.0092 72.0366 62.9676 71.9846 62.9444 71.9238C62.9204 71.8622 62.9164 71.7958 62.9316 71.7326C62.9476 71.6686 62.982 71.6118 63.0308 71.5686C64.0924 70.595 65.1908 69.5878 65.9596 68.3598C66.7892 67.0334 67.0876 65.5798 66.7788 64.3718C66.758 64.2894 66.77 64.2022 66.8132 64.1286C66.8564 64.0558 66.9268 64.003 67.0092 63.9814C67.0916 63.9606 67.1788 63.9726 67.2516 64.0158C67.3244 64.059 67.378 64.1294 67.3988 64.2118C67.7508 65.5894 67.4244 67.2246 66.502 68.699C65.6876 70.0006 64.5564 71.0374 63.462 72.0398C63.4044 72.095 63.3276 72.127 63.2468 72.1286Z" fill="black"/>
<path d="M57.3248 77.795C57.2624 77.795 57.2016 77.7766 57.1496 77.7422C57.0968 77.7086 57.056 77.6598 57.0312 77.6022C57.0064 77.5454 56.9984 77.4822 57.0088 77.4206C57.02 77.359 57.048 77.3022 57.0904 77.2566L58.4824 75.7662C58.5352 75.7102 58.6072 75.675 58.6832 75.667C58.76 75.659 58.8368 75.6798 58.9 75.7238C58.9632 75.7686 59.008 75.8342 59.0264 75.9094C59.0448 75.9838 59.0352 76.063 59 76.1318L58.588 76.9262C58.5688 76.963 58.5424 76.9966 58.5104 77.0238C58.4776 77.051 58.4408 77.071 58.4008 77.0838C58.3608 77.0966 58.3184 77.1014 58.276 77.0974C58.2344 77.0942 58.1936 77.0822 58.156 77.063H58.1504L57.5584 77.6966C57.5288 77.7278 57.492 77.7526 57.452 77.7694C57.412 77.7862 57.3688 77.795 57.3248 77.795Z" fill="black"/>
<path d="M101.982 6.56499C101.898 6.56507 101.816 6.53171 101.756 6.47219C100.702 5.42699 99.784 4.25355 99.0224 2.97939C98.9792 2.90651 98.9664 2.81931 98.9872 2.73699C99.008 2.65475 99.0608 2.58403 99.1336 2.54059C99.2064 2.49707 99.2936 2.48435 99.376 2.50507C99.4584 2.52587 99.5288 2.57851 99.572 2.65139C100.306 3.87939 101.191 5.01035 102.207 6.01779C102.253 6.06243 102.283 6.11947 102.296 6.18163C102.308 6.24379 102.302 6.30827 102.278 6.36691C102.254 6.42555 102.213 6.47571 102.16 6.51099C102.107 6.54619 102.046 6.56499 101.982 6.56499Z" fill="black"/>
<path d="M52.2878 52.6962C52.455 52.9362 52.6262 53.1938 52.6654 53.4858C52.7222 53.9002 52.5054 54.3002 52.2654 54.641C51.3598 55.9138 50.0606 56.8378 48.7838 57.7346C44.1214 61.0034 39.411 64.2042 34.683 67.3786C32.567 68.7994 30.387 70.2426 27.9054 70.8266C28.191 69.4002 29.1054 68.1866 30.007 67.0522C34.8542 60.9618 40.3078 55.3642 46.167 50.2362C47.047 49.4626 48.1358 48.5818 49.3918 48.9338C50.3558 49.2042 50.4318 49.9578 50.9246 50.701C51.3654 51.373 51.8326 52.0314 52.2878 52.6962Z" fill="#22CCB2"/>
</svg>
