<svg width="50" height="55" viewBox="0 0 50 55" fill="none" xmlns="http://www.w3.org/2000/svg">
<path d="M25 54.8809C20.0555 54.8809 15.222 53.2973 11.1108 50.3305C6.99952 47.3637 3.79521 43.1469 1.90302 38.2133C0.0108322 33.2797 -0.484251 27.8509 0.480379 22.6134C1.44501 17.3759 3.82603 12.565 7.32234 8.78899C10.8187 5.01297 15.2732 2.44147 20.1227 1.39967C24.9723 0.357868 29.9989 0.892558 34.5671 2.93612C39.1352 4.97969 43.0397 8.44035 45.7867 12.8805C48.5338 17.3206 50 22.5408 50 27.8809C49.9928 35.0393 47.3566 41.9024 42.6698 46.9642C37.9829 52.026 31.6282 54.8731 25 54.8809ZM25 5.38087C20.8796 5.38087 16.8517 6.70047 13.4256 9.1728C9.9996 11.6451 7.32934 15.1592 5.75252 19.2705C4.17569 23.3818 3.76312 27.9058 4.56698 32.2704C5.37084 36.635 7.35502 40.6441 10.2686 43.7908C13.1822 46.9374 16.8944 49.0804 20.9356 49.9485C24.9769 50.8167 29.1658 50.3711 32.9726 48.6682C36.7794 46.9652 40.0331 44.0813 42.3223 40.3812C44.6115 36.6811 45.8333 32.3309 45.8333 27.8809C45.8273 21.9155 43.6304 16.1964 39.7247 11.9782C35.819 7.76005 30.5235 5.38742 25 5.38087ZM35.4167 36.8809C35.4167 36.2841 35.1972 35.7118 34.8065 35.2899C34.4158 34.8679 33.8859 34.6309 33.3333 34.6309H16.6667C16.1141 34.6309 15.5842 34.8679 15.1935 35.2899C14.8028 35.7118 14.5833 36.2841 14.5833 36.8809C14.5833 37.4776 14.8028 38.0499 15.1935 38.4719C15.5842 38.8938 16.1141 39.1309 16.6667 39.1309H33.3333C33.8859 39.1309 34.4158 38.8938 34.8065 38.4719C35.1972 38.0499 35.4167 37.4776 35.4167 36.8809ZM12.5 23.3809C12.5 25.6309 14.3646 25.6309 16.6667 25.6309C18.9688 25.6309 20.8333 25.6309 20.8333 23.3809C20.8333 22.1874 20.3944 21.0428 19.6129 20.1989C18.8315 19.355 17.7717 18.8809 16.6667 18.8809C15.5616 18.8809 14.5018 19.355 13.7204 20.1989C12.939 21.0428 12.5 22.1874 12.5 23.3809ZM29.1667 23.3809C29.1667 25.6309 31.0313 25.6309 33.3333 25.6309C35.6354 25.6309 37.5 25.6309 37.5 23.3809C37.5 22.1874 37.061 21.0428 36.2796 20.1989C35.4982 19.355 34.4384 18.8809 33.3333 18.8809C32.2283 18.8809 31.1685 19.355 30.3871 20.1989C29.6057 21.0428 29.1667 22.1874 29.1667 23.3809Z" fill="#595454"/>
</svg>
