<svg width="23" height="31" viewBox="0 0 23 31" fill="none" xmlns="http://www.w3.org/2000/svg">
<g clip-path="url(#clip0_199_2074)">
<path d="M5.69161 6.97127H0.461542C0.370752 6.97059 0.282184 6.94338 0.206912 6.89313C0.13164 6.84287 0.0730074 6.77178 0.0383562 6.68872C0.00370505 6.60566 -0.00542459 6.51433 0.0121006 6.42615C0.0296258 6.33798 0.0730195 6.25689 0.136877 6.193L5.36695 1.01144C5.4315 0.946107 5.51477 0.901933 5.60548 0.884875C5.69618 0.867817 5.78996 0.878665 5.87422 0.916011C5.95875 0.950143 6.03097 1.00858 6.08161 1.08376C6.13225 1.15894 6.15901 1.2474 6.15833 1.33775V6.50932C6.15901 6.57017 6.14736 6.63054 6.12415 6.68688C6.10093 6.74323 6.06662 6.79445 6.02315 6.83747C5.97968 6.8805 5.92793 6.91446 5.871 6.93744C5.81408 6.96041 5.75309 6.97194 5.69161 6.97127ZM1.57251 6.05743H5.22997V2.43736L1.57251 6.05743Z" fill="#FCE389"/>
<path d="M22.5383 30.8809H0.461579C0.339149 30.8809 0.22175 30.8327 0.135179 30.747C0.0486081 30.6613 0 30.5452 0 30.424V6.50933C0.000931259 6.3885 0.0501262 6.27295 0.136913 6.18798L5.36698 1.00642C5.40974 0.964567 5.46044 0.931491 5.51616 0.909088C5.57187 0.886686 5.63151 0.875393 5.69165 0.875869H22.5383C22.6608 0.875869 22.7782 0.92398 22.8647 1.00967C22.9513 1.09535 23 1.21155 23 1.33273V30.4189C23.0007 30.4794 22.9892 30.5393 22.9663 30.5953C22.9434 30.6514 22.9095 30.7023 22.8666 30.7453C22.8237 30.7882 22.7725 30.8223 22.7162 30.8456C22.6598 30.8689 22.5994 30.8809 22.5383 30.8809ZM0.923219 29.9671H22.0767V1.78965H5.88442L0.923219 6.70012V29.9671Z" fill="#FCE389"/>
<path d="M18.546 10.5562H8.61862C8.558 10.5562 8.49796 10.5443 8.44195 10.5214C8.38595 10.4984 8.33503 10.4647 8.29216 10.4223C8.2493 10.3799 8.21529 10.3296 8.19209 10.2741C8.16889 10.2187 8.15698 10.1593 8.15698 10.0993C8.15698 10.0393 8.16889 9.97983 8.19209 9.92439C8.21529 9.86896 8.2493 9.81862 8.29216 9.77619C8.33503 9.73377 8.38595 9.70011 8.44195 9.67715C8.49796 9.65419 8.558 9.64233 8.61862 9.64233H18.546C18.6067 9.64233 18.6667 9.65419 18.7227 9.67715C18.7787 9.70011 18.8296 9.73377 18.8724 9.77619C18.9153 9.81862 18.9493 9.86896 18.9725 9.92439C18.9957 9.97983 19.0077 10.0393 19.0077 10.0993C19.0077 10.1593 18.9957 10.2187 18.9725 10.2741C18.9493 10.3296 18.9153 10.3799 18.8724 10.4223C18.8296 10.4647 18.7787 10.4984 18.7227 10.5214C18.6667 10.5443 18.6067 10.5562 18.546 10.5562Z" fill="#FCE389"/>
<path d="M18.546 15.7327H4.47918C4.41484 15.7394 4.3498 15.7327 4.28827 15.7129C4.22674 15.6931 4.17009 15.6608 4.122 15.6179C4.07392 15.5751 4.0355 15.5227 4.00918 15.4642C3.98286 15.4057 3.96924 15.3424 3.96924 15.2783C3.96924 15.2143 3.98286 15.151 4.00918 15.0925C4.0355 15.034 4.07392 14.9816 4.122 14.9388C4.17009 14.8959 4.22674 14.8636 4.28827 14.8438C4.3498 14.824 4.41484 14.8173 4.47918 14.824H18.5714C18.6357 14.8173 18.7008 14.824 18.7623 14.8438C18.8238 14.8636 18.8805 14.8959 18.9286 14.9388C18.9766 14.9816 19.0151 15.034 19.0414 15.0925C19.0677 15.151 19.0813 15.2143 19.0813 15.2783C19.0813 15.3424 19.0677 15.4057 19.0414 15.4642C19.0151 15.5227 18.9766 15.5751 18.9286 15.6179C18.8805 15.6608 18.8238 15.6931 18.7623 15.7129C18.7008 15.7327 18.6357 15.7394 18.5714 15.7327H18.546Z" fill="#FCE389"/>
<path d="M18.546 20.9143H4.47918C4.41484 20.921 4.3498 20.9143 4.28827 20.8945C4.22674 20.8747 4.17009 20.8424 4.122 20.7995C4.07392 20.7567 4.0355 20.7043 4.00918 20.6458C3.98286 20.5873 3.96924 20.524 3.96924 20.46C3.96924 20.3959 3.98286 20.3326 4.00918 20.2741C4.0355 20.2156 4.07392 20.1632 4.122 20.1204C4.17009 20.0775 4.22674 20.0452 4.28827 20.0254C4.3498 20.0056 4.41484 19.9989 4.47918 20.0056H18.5714C18.6357 19.9989 18.7008 20.0056 18.7623 20.0254C18.8238 20.0452 18.8805 20.0775 18.9286 20.1204C18.9766 20.1632 19.0151 20.2156 19.0414 20.2741C19.0677 20.3326 19.0813 20.3959 19.0813 20.46C19.0813 20.524 19.0677 20.5873 19.0414 20.6458C19.0151 20.7043 18.9766 20.7567 18.9286 20.7995C18.8805 20.8424 18.8238 20.8747 18.7623 20.8945C18.7008 20.9143 18.6357 20.921 18.5714 20.9143H18.546Z" fill="#FCE389"/>
<path d="M13.4327 26.0909H4.47918C4.41484 26.0976 4.3498 26.0908 4.28827 26.071C4.22674 26.0513 4.17009 26.0189 4.122 25.9761C4.07392 25.9332 4.0355 25.8809 4.00918 25.8224C3.98286 25.7639 3.96924 25.7005 3.96924 25.6365C3.96924 25.5724 3.98286 25.5091 4.00918 25.4506C4.0355 25.3921 4.07392 25.3398 4.122 25.2969C4.17009 25.2541 4.22674 25.2217 4.28827 25.2019C4.3498 25.1821 4.41484 25.1754 4.47918 25.1821H13.458C13.5223 25.1754 13.5874 25.1821 13.649 25.2019C13.7105 25.2217 13.7671 25.2541 13.8152 25.2969C13.8633 25.3398 13.9017 25.3921 13.928 25.4506C13.9544 25.5091 13.968 25.5724 13.968 25.6365C13.968 25.7005 13.9544 25.7639 13.928 25.8224C13.9017 25.8809 13.8633 25.9332 13.8152 25.9761C13.7671 26.0189 13.7105 26.0513 13.649 26.071C13.5874 26.0908 13.5223 26.0976 13.458 26.0909H13.4327Z" fill="#FCE389"/>
</g>
<defs>
<clipPath id="clip0_199_2074">
<rect width="23" height="30" fill="white" transform="translate(0 0.880859)"/>
</clipPath>
</defs>
</svg>
