<svg width="49" height="55" viewBox="0 0 49 55" fill="none" xmlns="http://www.w3.org/2000/svg">
<path d="M38.7585 18.8809C38.7585 19.4776 38.5427 20.0499 38.1586 20.4718C37.7745 20.8938 37.2535 21.1309 36.7102 21.1309C35.6404 21.0548 34.5788 21.38 33.6993 22.0534C34.0704 22.4386 34.3484 22.9193 34.5079 23.4522C34.6674 23.985 34.7036 24.5531 34.613 25.1051C34.5224 25.6572 34.3081 26.1757 33.9893 26.6138C33.6704 27.052 33.2572 27.396 32.787 27.6146C32.3168 27.8333 31.8043 27.9198 31.296 27.8662C30.7877 27.8127 30.2996 27.6208 29.8757 27.308C29.4519 26.9952 29.1057 26.5712 28.8685 26.0745C28.6313 25.5778 28.5105 25.024 28.5171 24.4631C28.5171 22.2559 29.9673 16.6444 36.7102 16.6309C37.2535 16.6309 37.7745 16.8679 38.1586 17.2899C38.5427 17.7118 38.7585 18.2841 38.7585 18.8809ZM14.179 24.5059C14.1842 25.401 14.5129 26.2572 15.0927 26.8861C15.6725 27.515 16.4561 27.8652 17.2709 27.8595C18.0858 27.8538 18.8652 27.4928 19.4378 26.8559C20.0103 26.2189 20.3291 25.3582 20.3239 24.4631C20.3239 22.2559 18.8737 16.6444 12.1308 16.6309C11.5875 16.6309 11.0665 16.8679 10.6824 17.2899C10.2983 17.7118 10.0825 18.2841 10.0825 18.8809C10.0825 19.4776 10.2983 20.0499 10.6824 20.4718C11.0665 20.8938 11.5875 21.1309 12.1308 21.1309C13.2016 21.054 14.2646 21.3784 15.1458 22.0511C14.8401 22.3656 14.5964 22.7458 14.4301 23.1681C14.2638 23.5904 14.1783 24.0457 14.179 24.5059ZM49 27.8809C48.993 35.0393 46.4011 41.9024 41.793 46.9642C37.185 52.026 30.9372 54.8731 24.4205 54.8809C-8.14733 53.5309 -8.133 2.23086 24.4205 0.880859C30.9372 0.888602 37.185 3.73572 41.793 8.79753C46.4011 13.8593 48.993 20.7224 49 27.8809ZM44.9034 27.8809C44.8975 21.9155 42.7375 16.1963 38.8975 11.9782C35.0575 7.76004 29.8511 5.38741 24.4205 5.38086C-2.71527 6.50586 -2.70912 49.2559 24.4205 50.3809C29.8511 50.3743 35.0575 48.0017 38.8975 43.7835C42.7375 39.5654 44.8975 33.8462 44.9034 27.8809ZM36.0261 37.4524C32.8607 34.2579 28.7189 32.4853 24.4205 32.4853C20.1221 32.4853 15.9803 34.2579 12.8149 37.4524C12.4091 37.8492 12.1634 38.4068 12.1319 39.0027C12.1004 39.5985 12.2857 40.1836 12.6469 40.6294C13.0082 41.0751 13.5158 41.345 14.0582 41.3796C14.6006 41.4142 15.1333 41.2107 15.5391 40.8139C17.95 38.345 21.1234 36.9721 24.4195 36.9721C27.7155 36.9721 30.889 38.345 33.2998 40.8139C33.7054 41.211 34.2379 41.4149 34.7803 41.3807C35.3227 41.3465 35.8305 41.0771 36.192 40.6316C36.5536 40.1861 36.7392 39.6012 36.7081 39.0054C36.677 38.4096 36.4316 37.8517 36.0261 37.4546V37.4524Z" fill="#765D03"/>
</svg>
