<svg width="49" height="55" viewBox="0 0 49 55" fill="none" xmlns="http://www.w3.org/2000/svg">
<path d="M24.5 0.880859C18.0044 0.888627 11.7768 3.74499 7.18364 8.82322C2.59052 13.9014 0.00702554 20.7868 0 27.9685C1.225 63.8596 47.775 63.8438 49 27.9685C48.993 20.7868 46.4095 13.9014 41.8164 8.82322C37.2232 3.74499 30.9956 0.888627 24.5 0.880859ZM24.5 50.5415C19.087 50.5349 13.8974 48.1546 10.0698 43.9227C6.24222 39.6909 4.08928 33.9532 4.08333 27.9685C5.10417 -1.93625 43.8958 -1.92948 44.9167 27.9685C44.9107 33.9532 42.7578 39.6909 38.9302 43.9227C35.1026 48.1546 29.913 50.5349 24.5 50.5415ZM36.4274 35.9638C35.2278 38.3021 33.4958 40.2527 31.4035 41.622C29.3111 42.9913 26.9312 43.7317 24.5 43.7696C22.0671 43.732 19.6854 42.9919 17.591 41.6227C15.4966 40.2535 13.7624 38.3027 12.5603 35.9638C12.3433 35.5892 12.2312 35.1521 12.2381 34.7073C12.245 34.2624 12.3707 33.8298 12.5993 33.4637C12.8279 33.0976 13.1493 32.8143 13.523 32.6495C13.8968 32.4847 14.3062 32.4456 14.7 32.5373C17.8394 33.845 21.1479 34.5888 24.5 34.7404C27.8465 34.5868 31.1494 33.8431 34.2837 32.5373C34.6777 32.4445 35.0878 32.4827 35.4623 32.647C35.8367 32.8114 36.1589 33.0946 36.3881 33.4609C36.6172 33.8273 36.7433 34.2604 36.7503 34.7058C36.7573 35.1512 36.645 35.5889 36.4274 35.9638ZM11.711 29.6705C11.4484 29.4703 11.2523 29.1805 11.1527 28.8454C11.0532 28.5103 11.0556 28.1484 11.1598 27.815L12.2194 24.1898L9.43046 21.9325C9.17578 21.7261 8.98657 21.436 8.88984 21.1037C8.79312 20.7713 8.79381 20.4137 8.89183 20.0818C8.98985 19.7499 9.18019 19.4608 9.43567 19.2556C9.69115 19.0504 9.99873 18.9397 10.3145 18.9393H13.7465L14.7898 15.3434C14.89 15.0119 15.0818 14.7236 15.3383 14.5194C15.5948 14.3151 15.9029 14.2052 16.219 14.2052C16.5351 14.2052 16.8432 14.3151 17.0997 14.5194C17.3562 14.7236 17.548 15.0119 17.6482 15.3434L18.6894 18.9393H22.1215C22.4378 18.9391 22.746 19.0495 23.0021 19.2548C23.2582 19.4601 23.4489 19.7497 23.547 20.0822C23.6451 20.4146 23.6456 20.7729 23.5483 21.1056C23.4511 21.4384 23.261 21.7286 23.0055 21.9347L20.2166 24.192L21.2762 27.8172C21.3733 28.1509 21.3723 28.51 21.2733 28.8429C21.1744 29.1759 20.9826 29.4657 20.7255 29.6708C20.4684 29.8758 20.1592 29.9856 19.8422 29.9843C19.5252 29.983 19.2167 29.8708 18.961 29.6637L16.219 27.4335L13.475 29.6614C13.2204 29.871 12.9118 29.985 12.5943 29.9866C12.2769 29.9882 11.9674 29.8774 11.711 29.6705ZM39.3776 21.9347L36.5887 24.192L37.6483 27.8172C37.7454 28.1509 37.7444 28.51 37.6455 28.8429C37.5465 29.1759 37.3548 29.4657 37.0977 29.6708C36.8406 29.8758 36.5313 29.9856 36.2143 29.9843C35.8973 29.983 35.5888 29.8708 35.3331 29.6637L32.5911 27.4335L29.8471 29.6637C29.5916 29.872 29.2825 29.9843 28.9651 29.9843C28.6477 29.9843 28.3386 29.872 28.0831 29.6637C27.8205 29.4635 27.6244 29.1737 27.5248 28.8386C27.4253 28.5035 27.4278 28.1416 27.5319 27.8082L28.5935 24.183L25.8026 21.9257C25.5505 21.7184 25.3636 21.4288 25.2685 21.0977C25.1734 20.7666 25.1748 20.4109 25.2725 20.0807C25.3703 19.7506 25.5594 19.4627 25.8131 19.2579C26.0669 19.0531 26.3724 18.9416 26.6866 18.9393H30.1207L31.164 15.3434C31.2631 15.0108 31.4546 14.7213 31.7112 14.516C31.9678 14.3107 32.2764 14.2003 32.5932 14.2003C32.9099 14.2003 33.2185 14.3107 33.4751 14.516C33.7318 14.7213 33.9232 15.0108 34.0223 15.3434L35.0615 18.9393H38.4936C38.8099 18.9391 39.1181 19.0495 39.3742 19.2548C39.6303 19.4601 39.821 19.7497 39.9191 20.0822C40.0173 20.4146 40.0177 20.7729 39.9204 21.1056C39.8232 21.4384 39.6332 21.7286 39.3776 21.9347Z" fill="#FCE389"/>
</svg>
